<?xml version="1.0" encoding="UTF-8"?>
<!DOCTYPE svg PUBLIC "-//W3C//DTD SVG 1.1//EN" "http://www.w3.org/Graphics/SVG/1.1/DTD/svg11.dtd">
<!-- Creator: CorelDRAW 2019 (64-Bit Evaluation Version) -->
<svg xmlns="http://www.w3.org/2000/svg" xml:space="preserve" width="162.56mm" height="91.44mm" version="1.1" style="shape-rendering:geometricPrecision; text-rendering:geometricPrecision; image-rendering:optimizeQuality; fill-rule:evenodd; clip-rule:evenodd"
viewBox="0 0 16256 9144"
 xmlns:xlink="http://www.w3.org/1999/xlink"
 xmlns:xodm="http://www.corel.com/coreldraw/odm/2003">
 <defs>
  <style type="text/css">
   <![CDATA[
    .str0 {stroke:white;stroke-width:20;stroke-miterlimit:22.9256}
    .str1 {stroke:white;stroke-width:35.13;stroke-miterlimit:22.9256}
    .fil0 {fill:none}
    .fil1 {fill:white}
    .fil2 {fill:white;fill-rule:nonzero}
   ]]>
  </style>
 </defs>
 <g id="Layer_x0020_1">
  <metadata id="CorelCorpID_0Corel-Layer"/>
  <rect class="fil0" width="16256" height="9144"/>
  <path class="fil0 str0" d="M5975.27 3081.87l-1034.75 0c0,0 -70.48,-384.86 -415.86,-148.02 0,0 -49.35,-217.1 -320.72,-172.69 0,0 -44.4,-557.55 -656.22,-493.41 0,0 -419.39,-646.35 -888.13,69.08 0,0 -518.08,-152.95 -557.55,468.74 0,0 -236.83,-88.81 -350.31,271.37l-888.13 0"/>
  <path class="fil1" d="M3493.44 2785.83l-424.33 394.72 75.08 0 0 30.51 19.73 0 0 426.79 -46.87 0 0 59.21 -69.08 0 0 71.54 445.47 0 445.47 0 0 -71.54 -69.08 0 0 -59.21 -46.87 0 0 -426.79 19.73 0 0 -30.51 75.08 0 -424.33 -394.72zm133.22 400.56l111.35 0 0 466.26 -111.35 0 0 -466.26zm-374.98 0l111.35 0 0 466.26 -111.35 0 0 -466.26zm241.76 466.26l-55.68 0 0 -466.26 55.68 0 55.68 0 0 466.26 -55.68 0z"/>
  <line class="fil0 str0" x1="1524.76" y1="3323.64" x2="2950.84" y2= "3323.64" />
  <line class="fil0 str0" x1="3974.05" y1="3533.63" x2="4736.96" y2= "3533.63" />
  <line class="fil0 str0" x1="5467.06" y1="4527.55" x2="5891.53" y2= "4527.55" />
  <line class="fil0 str0" x1="5669.35" y1="4680.5" x2="6118.5" y2= "4680.5" />
  <line class="fil0 str0" x1="1648.11" y1="4922.27" x2="2714" y2= "4922.27" />
  <line class="fil0 str0" x1="1865.21" y1="5183.77" x2="2008.44" y2= "5183.77" />
  <line class="fil0 str0" x1="2339.03" y1="5183.77" x2="2906.43" y2= "5183.77" />
  <line class="fil0 str0" x1="2615.19" y1="5504.49" x2="2112.05" y2= "5504.49" />
  <line class="fil0 str0" x1="5649.62" y1="2741.42" x2="6150.57" y2= "2741.42" />
  <line class="fil0 str0" x1="5920.99" y1="2548.99" x2="6708.12" y2= "2548.99" />
  <line class="fil0 str0" x1="9389.62" y1="3782.5" x2="9503.25" y2= "3782.5" />
  <line class="fil0 str0" x1="9813.94" y1="3802.24" x2="10324.77" y2= "3802.24" />
  <line class="fil0 str0" x1="10080.38" y1="4068.68" x2="9609.33" y2= "4068.68" />
  <line class="fil0 str0" x1="12468.46" y1="4448.6" x2="12562.33" y2= "4448.6" />
  <line class="fil0 str0" x1="12695.43" y1="4655.83" x2="12330.43" y2= "4655.83" />
  <line class="fil0 str0" x1="12567.14" y1="4818.65" x2="13228.42" y2= "4818.65" />
  <line class="fil0 str0" x1="11422.44" y1="2494.72" x2="11898.69" y2= "2494.72" />
  <line class="fil0 str0" x1="10756.35" y1="2095.06" x2="11721.06" y2= "2095.06" />
  <g id="_2076045435264">
   <path class="fil0 str1" d="M11787.71 4188.14c-3.71,0 -59.24,-29.4 -66.72,-33.36l-57.98 58.77c2.33,8.81 16.3,33.75 21.09,43.32l7.63 15.15c5.96,10.26 6.24,3.53 -4.06,26.84 -1.45,3.29 -3.23,7.71 -4.37,10.79 -8.19,22.18 -0.73,13.35 -50.44,29.91 -6.67,2.23 -18.88,7.22 -25.58,7.78l0 83.39 71.26 22.74c0.84,10.08 6.83,22.85 10.61,30.33 8.16,16.16 9.1,10.69 1.01,26.78 -9.63,19.19 -18.61,36.78 -28.3,55.09l58.77 57.98c8.92,-2.42 44.22,-22.28 54.94,-27.66 17.59,-8.81 10.13,-5.8 27.51,1.31 9.78,4 19.22,8.29 30.11,10.83 0.18,7.9 7.96,27.67 10.42,35.06 2.7,8.11 10.17,27.03 10.81,34.68l84.91 0c1,-12.05 20.02,-55.28 21.22,-69.74 7.56,-0.63 24.4,-7.66 30.35,-10.6 21.81,-10.76 9.35,-9.73 54.06,12.62 7.11,3.56 21.02,11.56 27.79,13.14l58.77 -57.98c-9.12,-17.56 -18,-34.88 -27.43,-53.72 -8.66,-17.28 -7.89,-9.86 0.01,-26.77 3.05,-6.55 10.51,-24.23 11.11,-31.35l55.53 -17.25c5.46,-1.82 15.73,-3.17 15.73,-8.52 0,-91.41 6.83,-77.34 -21.04,-86.62l-48.79 -16.41 -9.43 -23.92c-12.1,-28.15 -12.66,-13.67 1.93,-42.87 4.62,-9.25 19.24,-35.44 21.23,-43.97l-57.98 -58.77c-82.82,42.52 -54.62,35.41 -94.2,21.43 -22.13,-7.82 -15.15,-1.46 -30.71,-48.14 -4.03,-12.08 -6.82,-28.23 -12.7,-28.23l-75.81 0c-6.25,0 -8.48,15.58 -12.33,27.1 -20.56,61.61 -6.55,36.03 -44.3,54.25 -3.23,1.56 -11.85,6.59 -14.63,6.59z"/>
   <path class="fil0 str1" d="M11758.9 4388.28c0,53.3 34.45,103.85 81.21,124.98 137.61,62.2 261.62,-113.44 153.42,-221.64 -18.17,-18.17 -39.57,-31.33 -65.71,-37.39 -47.54,-11.04 -93.66,3.44 -127.61,37.39 -18.27,18.27 -31.32,39.54 -37.39,65.71 -1.88,8.1 -3.92,22.06 -3.92,30.95z"/>
  </g>
  <path id="path5491-6-42" class="fil2" d="M2308.55 3718.43c-152.64,0 -275.59,124.06 -275.59,276.22 0,152.23 122.95,276.31 275.59,276.31 152.59,0 277.02,-123.94 277.02,-276.31 0.01,-0.04 0.01,-0.07 0.01,-0.08 0,-2.45 -0.49,-4.89 -1.43,-7.14 0,0.01 -0.02,0.01 -0.03,0.01 -0.01,0 -0.03,0 -0.04,0 -4.14,-148.74 -125.51,-268.94 -275.53,-268.94l0 -0.07zm0 36.84c132.71,0 240.19,107.1 240.19,239.38 0,132.35 -107.48,239.47 -240.19,239.47 -132.74,0 -238.74,-106.98 -238.74,-239.47 0,-132.42 106,-239.38 238.74,-239.38zm-55.7 110.45l0 74.04 -35.69 11.87 0 38.79 35.69 -11.88 0 34.9 -35.69 11.87 0 38.78 35.69 -11.86 0 108.22 18.42 0c37.64,0 69.94,-4.24 94.34,-23.6 24.39,-19.39 35.76,-52.01 35.76,-96.64l-36.85 0c0,38.81 -8.37,57.12 -21.79,67.77 -9.97,7.92 -31.58,9.66 -53.03,11.59l0 -79.65 74.82 -24.9 0 -38.77 -74.82 24.89 0 -34.91 74.82 -24.89 0 -38.78 -74.82 24.9 0 -61.74 -36.85 0z"/>
  <polygon class="fil0 str0" points="9899.55,2691.98 10977.58,2238.93 11184.6,2731.55 10361.62,2731.55 10350.81,3128.53 10123.21,3224.18 "/>
  <path class="fil0 str0" d="M10276.47 3063.43l65.96 -27.72 19.19 -8.06 0 -296.1 599.59 0 0.02 0.29c-1.65,-46.32 25.08,-91.21 70.17,-110.16l-64 -152.29c-58.18,24.45 -125.81,-3.16 -150.26,-61.34l-693.6 291.49c24.45,58.18 -3.15,125.81 -61.33,150.26l64 152.29c58.18,-24.45 125.81,3.16 150.26,61.34z"/>
  <path class="fil0 str0" d="M10644.12 2731.55c0.32,-12.98 -2.04,-26.22 -7.39,-38.96 -20.26,-48.21 -75.76,-70.87 -123.98,-50.6 -36.96,15.53 -58.9,51.77 -58,89.56l189.37 0z"/>
  <rect class="fil0 str0" x="10361.62" y="2731.55" width="1169.37" height="577.28"/>
  <rect class="fil0 str0" x="10450.43" y="2825.3" width="981.88" height="394.72" rx="68.86" ry="114.76"/>
  <circle class="fil0 str0" cx="10946.31" cy="3017.73" r="94.69"/>
  <path class="fil0 str0" d="M15315.5 4415.83l-1034.75 0c0,0 -70.48,-384.86 -415.86,-148.02 0,0 -49.35,-217.1 -320.72,-172.69 0,0 -44.4,-557.55 -656.22,-493.41 0,0 -419.39,-646.35 -888.13,69.08 0,0 -518.08,-152.95 -557.55,468.73 0,0 -236.83,-88.8 -350.31,271.38l-888.13 0"/>
  <g id="_2076045441056">
   <path class="fil2" d="M1427.56 4416.17c-3.16,-2.05 -7.12,-3.76 -11.9,-5.15 -4.77,-1.38 -8.66,-2.37 -11.67,-2.97 -3,-0.6 -7.42,-0.89 -13.26,-0.86 -5.84,0.02 -10.14,0.14 -12.92,0.33l-14.99 1.07c-7.21,0.51 -12.28,0.91 -15.18,1.21 -4.2,0.12 -9.52,0.43 -15.96,0.94 -6.45,0.49 -10.96,0.86 -13.51,1.08 -2.56,0.23 -5.82,0.31 -9.78,0.25 -3.96,-0.07 -6.87,-0.44 -8.77,-1.12 -1.89,-0.68 -3.91,-1.66 -6.07,-2.92 -2.15,-1.26 -3.98,-2.87 -5.49,-4.82 -3.59,-4.64 -4.47,-9.82 -2.65,-15.53 1.83,-5.71 5.06,-10.36 9.71,-13.96 4.88,-3.78 13.08,-7.3 24.62,-10.57 11.53,-3.26 17.66,-5.18 18.39,-5.74 0.98,-0.76 1.3,-1.59 0.98,-2.52 0.25,-3.71 -0.66,-12.96 -2.74,-27.75 -2.08,-14.79 -3.68,-22.93 -4.81,-24.39 -0.38,-0.49 -1.4,-0.68 -3.07,-0.56 -1.67,0.12 -3.74,0.35 -6.2,0.69l-7.4 1.04c-2.47,0.35 -4.79,0.75 -6.94,1.25 -2.15,0.49 -3.48,0.68 -3.9,0.62 -14.07,5.04 -25.34,10.15 -33.72,15.47 -3.14,-3.04 -7.36,-7.99 -12.46,-14.58 -0.94,-1.22 -3.36,-3.32 -6.41,-5.25l-3.45 0.84 -27.1 20.98c-2.93,2.27 -2.57,5.77 -0.11,8.95 1.7,2.19 4.78,5.93 8.24,9.88 3.45,3.97 5.99,6.99 7.5,8.95 -28.21,33.17 -30.01,65.65 -5.43,97.39 5.29,6.84 11.58,12.45 18.84,16.78 7.27,4.34 13.81,7.49 19.62,9.43 5.8,1.95 13.92,2.99 24.37,3.11 10.43,0.12 18.11,-0.06 23.01,-0.53 4.91,-0.49 13.53,-1.59 25.85,-3.31 12.33,-1.74 20.16,-2.73 23.5,-2.96 13.89,-0.22 24.24,4.07 31.04,12.86 7.38,9.52 4.72,19.2 -7.98,29.03 -14.41,11.15 -29.25,17.95 -44.54,20.41 -0.92,0.33 -4.54,0.69 -10.86,1.09 -6.32,0.41 -10.93,1.52 -13.81,3.36 2.05,28.88 4.87,48.15 8.48,57.86 0.94,1.22 7.42,1.26 19.45,0.15 21.33,-3.23 41.09,-9.98 59.34,-20.2 2.08,2.68 5.13,6.87 9.23,12.68 4.11,5.81 7.11,9.94 9.19,12.62 1.52,1.96 2.33,3.51 2.79,5.12l1.77 -0.74c0.73,-0.57 1.28,-1.62 2.26,-2.38l27.46 -21.27c2.94,-2.27 4.05,-3.85 1.59,-7.02 -2.45,-3.17 -5.29,-6.71 -10.03,-12.6 -4.75,-5.89 -8.21,-10.22 -10.48,-13.16 14.44,-16.65 22.69,-35.37 24.68,-56.25 2,-20.88 -3.6,-39.84 -16.84,-56.94 -3.4,-4.4 -7.03,-8.2 -10.91,-11.45 -3.88,-3.25 -7.42,-5.89 -10.57,-7.94z"/>
   <path id="path5491-6-42_0" class="fil2" d="M1339.38 4177.4c-152.63,0 -275.58,124.06 -275.58,276.23 0,152.23 122.95,276.31 275.58,276.31 152.6,0 277.02,-123.94 277.02,-276.31 0.02,-0.05 0.02,-0.07 0.02,-0.09 0,-2.45 -0.49,-4.88 -1.44,-7.14 0,0.01 -0.01,0.01 -0.03,0.01 -0.01,0 -0.02,0 -0.04,0 -4.13,-148.73 -125.51,-268.94 -275.53,-268.94l0 -0.07zm0 36.84c132.71,0 240.19,107.11 240.19,239.39 0,132.34 -107.48,239.46 -240.19,239.46 -132.73,0 -238.74,-106.98 -238.74,-239.46 0,-132.42 106.01,-239.39 238.74,-239.39z"/>
  </g>
  <g id="_2076045442176">
   <path class="fil1" d="M3280.91 4537.4c-16.96,-7.96 -43.59,-25.78 -54.13,-3.34 -9.42,20.07 16.29,28.66 28.95,34.61 -2.83,6.01 -4.81,8 -7.74,14.23 -2.92,6.24 -3.18,9.03 -6.01,15.04 -10.23,-4.8 -22.56,-12.09 -32.25,-10.08 -13.54,2.81 -22.21,21.85 -6.64,34.15 5.14,4.06 22.13,11.15 30.07,14.88 -2.72,12.76 0.03,35.64 2.65,48.39 2.49,12.16 5.06,16.69 9.11,26.75 20.95,52.05 81.03,80.17 135.24,66.52 12.55,-3.16 17.34,-3.69 22.95,-15.65 2.51,-5.34 0.04,-17.85 -8.63,-21.92 -13.87,-6.51 -15.05,0.05 -37.73,2.47 -31.45,3.35 -60.84,-15.66 -74.78,-42.65 -8.63,-16.73 -10.04,-27.92 -10.92,-46.12 9.96,4.67 86.02,41.31 92.68,42.72 17.84,3.79 29.02,-14.12 21.83,-26.86 -3.05,-5.42 -6.58,-8.29 -14.4,-11.97l-94.73 -44.46c2.89,-6.16 3.61,-9.92 6.01,-15.04 2.64,-5.63 4.79,-7.96 7.73,-14.24l98.18 46.08c5.77,2.71 11.07,3.13 15.68,1.85 15.12,-4.21 18.99,-24.02 6.4,-33.43 -8.32,-6.21 -79.78,-38.58 -92.49,-44.55 6.71,-8.51 31.36,-18.4 41.25,-20.43 24.54,-5.03 47.48,-1.22 68.9,16.41 22.05,18.15 20.81,38.17 32.12,43.47 6.11,2.87 8.93,3.73 16.27,1.51 3.26,-0.98 8.45,-4.94 10.35,-8.98 5.45,-11.61 -2.48,-24.93 -8.53,-35.54 -1.96,-3.44 -4.46,-6.8 -7.03,-10.33 -24.76,-34.1 -64.73,-51.33 -106.39,-46.25 -25.81,3.14 -48.26,13.04 -69,28.75 -2.85,2.15 -13.11,10.78 -14.97,14.01z"/>
   <path id="path5491-6-42_1" class="fil2" d="M3340.99 4361.6c-152.63,0 -275.58,124.06 -275.58,276.22 0,152.23 122.95,276.31 275.58,276.31 152.6,0 277.02,-123.94 277.02,-276.31 0.02,-0.04 0.02,-0.07 0.02,-0.08 0,-2.45 -0.49,-4.89 -1.44,-7.15 0,0.02 -0.01,0.02 -0.03,0.02 -0.01,0 -0.02,0 -0.04,0 -4.13,-148.74 -125.51,-268.94 -275.53,-268.94l0 -0.07zm0 36.84c132.71,0 240.19,107.1 240.19,239.38 0,132.35 -107.48,239.47 -240.19,239.47 -132.74,0 -238.74,-106.98 -238.74,-239.47 0,-132.42 106,-239.38 238.74,-239.38z"/>
  </g>
  <path class="fil1" d="M6726.74 6839.67l112.02 0 0 61.52 -112.02 0 0 -61.52zm-249.63 -314.04l134.7 0 0 -75.53c0,-35.4 28.94,-64.34 64.33,-64.34l213.23 0c35.39,0 64.33,28.94 64.33,64.34l0 75.53 134.69 0c51.29,0 93.24,41.95 93.24,93.24l0 168.36 -797.76 0 0 -168.36c0,-51.29 41.95,-93.24 93.24,-93.24zm704.52 308.23l0 235.71c0,51.29 -41.95,93.23 -93.24,93.23l-611.28 0c-51.29,0 -93.24,-41.94 -93.24,-93.23l0 -235.71 312.76 0 0 104.9 172.25 0 0 -104.9 312.75 0zm-505.72 -383.34l213.68 0 0 75.11 -213.68 0 0 -75.11z"/>
  <path class="fil0 str0" d="M9644.22 6867.12l-1034.75 0c0,0 -70.48,-384.86 -415.86,-148.02 0,0 -49.35,-217.1 -320.72,-172.69 0,0 -44.4,-557.55 -656.22,-493.41 0,0 -419.39,-646.35 -888.13,69.08 0,0 -518.08,-152.95 -557.55,468.73 0,0 -236.83,-88.8 -350.31,271.38l-888.13 0"/>
  <line class="fil0 str0" x1="11015.13" y1="6968.04" x2="11128.76" y2= "6968.04" />
  <line class="fil0 str0" x1="11439.45" y1="6987.78" x2="11950.28" y2= "6987.78" />
  <line class="fil0 str0" x1="11705.89" y1="7254.22" x2="11234.84" y2= "7254.22" />
  <line class="fil0 str0" x1="7535.33" y1="7289.77" x2="7648.96" y2= "7289.77" />
  <line class="fil0 str0" x1="7959.65" y1="7309.51" x2="8470.48" y2= "7309.51" />
  <line class="fil0 str0" x1="8226.09" y1="7575.95" x2="7755.04" y2= "7575.95" />
  <line class="fil0 str0" x1="9838.27" y1="956.7" x2="9951.9" y2= "956.7" />
  <line class="fil0 str0" x1="10262.59" y1="976.44" x2="10773.42" y2= "976.44" />
  <line class="fil0 str0" x1="10529.03" y1="1242.88" x2="10057.98" y2= "1242.88" />
  <line class="fil0 str0" x1="3693.19" y1="670.83" x2="4759.08" y2= "670.83" />
  <line class="fil0 str0" x1="3910.29" y1="932.33" x2="4053.52" y2= "932.33" />
  <line class="fil0 str0" x1="4384.11" y1="932.33" x2="4951.51" y2= "932.33" />
  <line class="fil0 str0" x1="4660.27" y1="1253.05" x2="4157.13" y2= "1253.05" />
  <line class="fil0 str0" x1="4048.79" y1="7156.29" x2="5114.68" y2= "7156.29" />
  <line class="fil0 str0" x1="4265.89" y1="7417.79" x2="4409.12" y2= "7417.79" />
  <line class="fil0 str0" x1="4739.71" y1="7417.79" x2="5307.11" y2= "7417.79" />
  <line class="fil0 str0" x1="5015.87" y1="7738.51" x2="4512.73" y2= "7738.51" />
  <line class="fil0 str0" x1="14157.99" y1="5767.76" x2="15223.88" y2= "5767.76" />
  <line class="fil0 str0" x1="14375.09" y1="6029.26" x2="14518.32" y2= "6029.26" />
  <line class="fil0 str0" x1="14848.91" y1="6029.26" x2="15416.31" y2= "6029.26" />
  <line class="fil0 str0" x1="15125.07" y1="6349.98" x2="14621.93" y2= "6349.98" />
  <rect class="fil0 str0" transform="matrix(0.546828 -0.201466 0.201466 0.546828 1342.8 6451.54)" width="2006.6" height="990.6"/>
  <rect class="fil0 str0" transform="matrix(0.546828 -0.201466 0.335774 0.911376 1458.54 6508.81)" width="1684.87" height="406.4" rx="118.16" ry="118.16"/>
  <circle class="fil0 str0" transform="matrix(0.546828 -0.201466 0.201466 0.546828 1990.36 6517.94)" r="162.48"/>
 </g>
</svg>
