<?xml version="1.0" encoding="UTF-8"?>
<!DOCTYPE svg PUBLIC "-//W3C//DTD SVG 1.1//EN" "http://www.w3.org/Graphics/SVG/1.1/DTD/svg11.dtd">
<!-- Creator: CorelDRAW 2019 (64-Bit Evaluation Version) -->
<svg xmlns="http://www.w3.org/2000/svg" xml:space="preserve" width="162.56mm" height="7.3289mm" version="1.1" style="shape-rendering:geometricPrecision; text-rendering:geometricPrecision; image-rendering:optimizeQuality; fill-rule:evenodd; clip-rule:evenodd"
viewBox="0 0 16247.18 732.49"
 xmlns:xlink="http://www.w3.org/1999/xlink"
 xmlns:xodm="http://www.corel.com/coreldraw/odm/2003">
 <defs>
  <style type="text/css">
   <![CDATA[
    .fil0 {fill:none}
    .fil2 {fill:#A5A5A5}
    .fil7 {fill:#C1C1C1}
    .fil3 {fill:#E4E4E4}
    .fil8 {fill:#FEFEFE;fill-rule:nonzero}
    .fil1 {fill:#A5A5A5;fill-rule:nonzero}
    .fil9 {fill:#C1C1C1;fill-rule:nonzero}
    .fil10 {fill:#E4E4E4;fill-rule:nonzero}
    .fil6 {fill:url(#id0)}
    .fil5 {fill:url(#id1)}
    .fil4 {fill:url(#id2);fill-rule:nonzero}
   ]]>
  </style>
  <linearGradient id="id0" gradientUnits="userSpaceOnUse" x1="7218" y1="152.27" x2="7218" y2="542.36">
   <stop offset="0" style="stop-opacity:1; stop-color:#D4D4D4"/>
   <stop offset="0.219608" style="stop-opacity:1; stop-color:#E8E8E8"/>
   <stop offset="0.54902" style="stop-opacity:1; stop-color:#CBCBCB"/>
   <stop offset="0.819608" style="stop-opacity:1; stop-color:#DDDDDD"/>
   <stop offset="1" style="stop-opacity:1; stop-color:#DFDFDF"/>
  </linearGradient>
  <linearGradient id="id1" gradientUnits="userSpaceOnUse" xlink:href="#id0" x1="7218.52" y1="141.87" x2="7218.52" y2="552.53">
  </linearGradient>
  <radialGradient id="id2" gradientUnits="userSpaceOnUse" gradientTransform="matrix(0.661856 -0 -0 0.999812 1930 0)" cx="5708.85" cy="366.24" r="999.38" fx="5708.85" fy="366.24">
   <stop offset="0" style="stop-opacity:1; stop-color:#D5D5D5"/>
   <stop offset="0.121569" style="stop-opacity:1; stop-color:#C6C6C6"/>
   <stop offset="0.721569" style="stop-opacity:1; stop-color:#B9B9B9"/>
   <stop offset="1" style="stop-opacity:1; stop-color:#949494"/>
  </radialGradient>
 </defs>
 <g id="Layer_x0020_1">
  <metadata id="CorelCorpID_0Corel-Layer"/>
  <rect class="fil0" x="-0" y="-0" width="16247.18" height="732.49"/>
  <g id="_2076944340512">
   <polygon class="fil1" points="201.35,361.21 201.35,377.15 226.16,377.15 226.16,437.55 244.59,437.55 244.59,377.09 270.04,377.09 270.04,361.21 "/>
   <path class="fil1" d="M312.37 346.86c0,5.41 -4.38,9.78 -9.78,9.78 -5.41,0 -9.79,-4.38 -9.79,-9.78 0,-5.41 4.39,-9.79 9.79,-9.79 5.41,0 9.78,4.39 9.78,9.79z"/>
   <path class="fil1" d="M339.44 346.86c0,5.41 -4.38,9.78 -9.78,9.78 -5.41,0 -9.78,-4.38 -9.78,-9.78 0,-5.41 4.38,-9.79 9.78,-9.79 5.41,0 9.78,4.39 9.78,9.79z"/>
   <polygon class="fil1" points="450.95,361.22 450.95,437.59 468.45,437.59 468.45,414.76 482.35,400.87 506.19,437.59 527.08,437.59 495.11,387.54 520.53,361.21 499.29,361.21 468.45,393.98 468.45,361.21 "/>
   <polygon class="fil1" points="536.58,361.44 554.54,361.44 554.54,437.55 536.58,437.55 "/>
   <path class="fil1" d="M555.42 347.03c0,5.41 -4.39,9.78 -9.79,9.78 -5.4,0 -9.78,-4.38 -9.78,-9.78 0,-5.41 4.39,-9.78 9.78,-9.78 5.41,0 9.79,4.38 9.79,9.78z"/>
   <path class="fil1" d="M775.86 281.3l0 4.29c0,0 11.44,0.52 11.44,10.8 0,10.27 0,71.29 0,71.29l29.27 16.53 0 -88.21c0,0 -0.52,-10.41 11.19,-10.41l0 -4.29 -51.91 0z"/>
   <path class="fil1" d="M819.98 306.73l0 6.9c0,0 26.57,10.97 28.26,42.48l4.51 0 0 -49.29 -4 0c0,0 -2.64,6.73 -9.7,6.73 -7.07,0 -19.07,-6.81 -19.07,-6.81z"/>
   <path class="fil1" d="M783.87 304.05l0 6.04c0,0 -26.51,4.07 -26.51,27.86 0,0 -2.09,18.86 29.96,35.13l39.7 21.83c0,0 28.59,12.94 37.35,35.99 8.76,23.06 3.08,53.88 -26.02,68.54 -11.83,6.05 -22.44,6.66 -26.26,7.16 0,0 9.61,4.81 9.61,16.52 0,11.7 -13.06,29.83 -18.74,29.95l-3.33 0c0,0 -0.49,-0.62 1.23,-2.59 1.73,-1.97 9.74,-11.59 7.78,-17.14 0,0 -4.68,2.08 -9.3,2.08 -4.63,0 -13.56,-3.99 -13.56,-14.52 0,-10.52 7.99,-14.83 10.85,-14.83 0,0 -4.47,-0.48 -18.67,-5.59 -14.2,-5.11 -25.21,-10.05 -32.39,2.23l-3.83 0 0 -52.33 4.63 0c0,0 10.53,49.78 62.07,49.78 35.74,-0.16 40.05,-29.67 40.05,-35.1 0,-5.43 0,-22.02 -26.65,-37.17 -26.65,-15.16 -52.17,-29.04 -52.17,-29.04 0,0 -29.83,-13.88 -29.83,-46.74 0,-32.87 30.14,-48.05 44.03,-48.05z"/>
   <path class="fil1" d="M787.2 413.15l29.22 16.52 0 33.78c0,0 -0.37,10.22 11.33,10.22l0 4.57 -52.02 0 0 -4.94c0,0 11.46,0.25 11.46,-10.47 0,-10.72 0,-49.68 0,-49.68z"/>
   <polygon class="fil1" points="561.55,361.25 582.47,361.25 603.78,393.35 625.73,361.38 646.02,361.38 612.29,407.17 612.29,437.61 594.91,437.61 594.91,407.17 "/>
   <polygon class="fil1" points="651.86,361.12 712.99,361.12 712.99,376.61 669.49,376.61 669.49,389.79 694.34,389.79 694.34,404.38 669.49,404.38 669.49,422.51 714.76,422.51 714.76,437.6 651.73,437.6 "/>
   <path class="fil1" d="M817.97 253.99c0,-8.95 -7.25,-16.19 -16.19,-16.19 -8.95,0 -16.19,7.25 -16.19,16.19 0,8.94 7.25,16.19 16.19,16.19 8.95,0 16.19,-7.26 16.19,-16.19z"/>
   <path class="fil1" d="M998.69 361.34l17.48 0 33.25 76.28 -19.63 0 -7.16 -16.91 -31.67 0 -7.04 16.68 -18.73 0 33.49 -76.05zm-2.05 44.61l20.66 0 -10.32 -25.99 -10.33 25.99z"/>
   <polygon class="fil1" points="1056.58,361.15 1056.58,437.8 1073.87,437.8 1073.87,388.62 1111.68,437.71 1127.58,437.71 1127.58,361.34 1109.74,361.34 1109.74,409.88 1072.89,361.17 "/>
   <path class="fil1" d="M1143.61 361.21l17.75 0 0 33.42 31.26 -33.33 21.6 0 -26.39 26.58 27.7 42.44 30.51 -69.1 17 0 33.24 76.34 -19.54 0 -6.76 -16.81 -32.02 0 -6.95 16.81 -32.02 0 -23.76 -36.44 -13.9 14.18 0 22.26 -17.74 0 0 -76.34 0 0zm100.28 45.35l20.66 0 -10.33 -25.99 -10.32 25.99z"/>
   <path class="fil1" d="M1348.92 383.23l12.9 -11.06c0,0 -12.44,-12.13 -31.33,-12.13 -18.89,0 -31.94,9.52 -31.94,22.89 0,13.36 10.44,18.89 27.79,22.27 17.35,3.38 20.83,6.75 19.35,12.59 -1.47,5.85 -13.57,6.44 -17.2,6.15 -3.62,-0.3 -11.82,-0.46 -20.12,-8.92l-12.9 10.44c0,0 12.23,13.51 33.64,13.51 21.41,0 34.4,-8.29 34.7,-24.11 0.31,-15.82 -12.43,-19.97 -26.26,-23.35l-14.13 -2.92c0,0 -6.3,-1.53 -6.3,-6.6 0,-5.08 5.07,-6.92 13.36,-6.92 8.3,0 18.28,6.15 18.43,8.15z"/>
   <polygon class="fil1" points="1377.15,361.35 1377.15,437.55 1394.66,437.55 1394.66,361.34 "/>
   <path class="fil1" d="M280.28 361.24l17.82 0 0 45.19c0,0 0.49,17.57 17.56,17.57 17.08,0 18.19,-17.63 18.19,-17.63l0 -45.07 17.63 0 0 43.16c0,0 1.35,34.17 -34.95,34.17 -36.31,0 -36.25,-30.23 -36.25,-34.11 0,-3.89 0,-43.28 0,-43.28z"/>
   <path class="fil2" d="M366.78 361.27l0 76.27 17.21 0 0 -27.3 17.84 0 15.84 27.32 20.07 0 -16.92 -29.4 -0.02 -0.1c9.42,-3.37 16.16,-12.25 16.16,-22.68 0,-13.32 -11,-24.12 -24.57,-24.12 -0.55,0 -1.08,0.02 -1.62,0.05l-44 -0.04zm42.98 14.78c5.39,0.19 9.69,4.62 9.69,10.05 0,5.53 -4.46,10 -9.96,10.05l0 0 -0.07 0 -0.02 0 -0.01 0 -25.37 0.07 0 -20.23 25.74 0 0 0.05z"/>
   <path class="fil2" d="M891.67 360.75l40.85 0c0,0 17.04,-0.73 24.43,10.09 0,0 8.93,15.79 -7.2,25.01 0,0 18.32,3.9 11.54,25.47 0,0 -4.17,14.47 -27.02,15.66l-42.61 0 0 -76.23zm17.23 41.96l0 19.73 25.85 0c0,0 9.97,-0.42 9.67,-9.67 0,0 1.01,-8.35 -10.05,-10.05l-25.47 0zm-0.1 -27.61l0 14.17 26.04 0c7.69,-0.62 7.13,-7.22 7.13,-7.22 0.07,-7.4 -7.13,-6.96 -7.13,-6.96l-26.04 0z"/>
  </g>
  <g id="_2076944350432">
   <path class="fil2" d="M1703.85 331.77c5.96,0 10.1,1.36 12.68,4.14 2.89,3.12 4.18,8.27 4.18,16.67l0 105.11c0,14.54 -2.82,21.03 -19.5,21.03l-2.28 0 0 6.46 74.94 0 0 -6.43 -2.27 -0.03c-16.51,-0.21 -19.3,-6.66 -19.3,-21.03l0 -105.11c0,-8.39 1.29,-13.5 4.17,-16.61 2.61,-2.83 6.84,-4.2 12.91,-4.2l4.49 0 0 -6.54 -74.94 0 0 6.54 4.92 0z"/>
   <path class="fil2" d="M1932.18 431.9c0,0 -1.24,-6.55 -1.42,-10.21l0 -47.9c-0.28,-27.94 3.1,-41.85 -18.55,-41.75l0 -6.28 49.8 0 0 6.28c-22.3,-0.1 -19.5,13.8 -19.62,41.75l0 111.87 -7.09 -0.08 -107.54 -126.99c0,0 1.21,6.54 1.39,10.2l0 78.46c-0.6,28.62 2.53,32.08 18.88,31.75l0 6.53 -51.92 0 0 -6.53c16.36,0.02 19.58,-2.44 19.56,-34.08l0 1.89 0 -77.32 -0.14 -12.27c0.62,-15.89 -4.58,-25.1 -20.45,-24.95l0 -6.29 47.79 0 89.3 105.92z"/>
   <path class="fil2" d="M2126.03 323.8l-5.76 0 -0.26 2.08c-0.39,3.11 -1.55,8.32 -4.9,8.32 -0.96,0 -3.34,-0.47 -6.02,-1.77 -11.65,-5.34 -26.75,-8.63 -39.45,-8.63 -24.73,0 -47.15,9.36 -63.18,26.39 -14.72,15.64 -22.77,36.91 -22.66,59.92 0.11,22.03 8.3,40.15 25.06,55.43 16.89,15.27 35.81,21.79 63.31,21.79 22.91,0 36.02,-3.48 56.14,-14.9l3.53 -2.02 0 -41.11c0,-17.51 2.03,-20.24 15.5,-20.82l2.2 -0.09 0 -6.11 -65.85 0 0 6.11 2.19 0.09c15.01,0.62 17.85,3.46 17.85,17.94l0 38.1c-11.14,7.77 -19.23,10.72 -29.44,10.72 -15.1,0 -28.54,-6.18 -38.87,-17.08 -12.09,-12.8 -17.99,-31.43 -17.99,-52.49 0,-22.69 5.72,-42.04 17.48,-54.47 9.36,-9.9 21.81,-15.4 36,-15.4 12.67,0 27.41,5.75 37.5,14.22 8.22,7.12 12.47,13.99 15.69,25.37l0.49 1.72 5.62 0 -4.18 -53.3z"/>
   <path class="fil3" d="M2530.98 462.29c-14.13,14.15 -28.28,15.81 -39.92,15.81 -3.34,0 -5.84,0 -7.5,0 -5,2.5 -8.33,4.16 -12.49,4.16l-40.76 0c0,-4.16 1.67,-4.99 1.67,-7.49 0,-2.5 3.32,-6.66 4.98,-6.66l3.34 7.49c2.5,-0.83 3.33,-2.5 3.33,-4.99 0,-3.33 -4.17,-7.5 -4.17,-7.5l3.34 -3.33c1.66,0.85 2.5,3.33 3.32,3.33 3.34,0 5,-1.66 5,-2.48 0,-0.85 -2.5,-2.5 -4.16,-4.17 -2.5,-2.5 -4.16,-3.33 -6.66,-3.33 -5,0 -11.64,11.64 -12.47,17.47l-1.67 11.64c-1.66,0 -4.16,0 -6.66,0 0.84,-5.82 -0.83,-9.98 0.84,-14.97 0.82,-0.84 2.49,0.83 4.16,1.66 0,-1.66 2.5,-3.33 1.66,-5.83 -0.83,-1.66 -4.16,-3.33 -4.16,-3.33 0.83,-1.65 2.5,-5.82 2.5,-5.82 0,0 6.66,2.5 5.82,1.67 0,-1.67 -1.66,-1.67 -0.83,-3.33 1.67,-0.83 4.16,1.66 5.82,0.83 0,-1.66 0,-1.66 0,-2.5 -1.66,-0.83 -4.99,-2.5 -9.15,-2.5 -5.82,0.84 -5,1.67 -5.82,3.34 -6.67,0.83 -10.83,2.49 -14.14,2.49l-7.5 9.15c0.84,4.17 0,9.16 1.65,12.48 0.85,2.5 1.69,4.17 3.35,6.66l-75.72 0c1.67,-2.49 2.5,-5.82 5,-7.49 0,0.83 0.83,0.83 1.66,1.67l5 0c2.5,0 4.16,0 5,-1.67 -2.5,-1.67 -6.66,-2.5 -9.16,-4.16 0,-2.5 0.83,-5 0.83,-7.5 0,-5.83 -4.99,-7.48 -8.33,-7.48 -2.5,0 -6.66,1.65 -7.5,4.15 -2.48,-1.65 -4.16,-3.32 -6.66,-4.15 0,-1.67 0,-1.67 0,-3.33 0,-1.67 0,-1.67 0,-3.33 5,-2.5 9.16,0 13.32,1.66 0.83,0 1.67,0 3.33,0 0,-0.83 -1.66,-0.83 -1.66,-1.66 -3.34,-5.83 -9.99,-6.66 -17.49,-5.83 -2.48,0.83 -2.48,6.66 -4.98,3.33 -3.33,0 -4.99,1.66 -7.49,1.66l-4.17 1.67c-1.67,0.83 -0.83,0.83 -1.67,2.5 -1.66,4.16 -4.16,7.48 -5.82,10.8 0,4.17 -1.66,9.16 0,12.48 1.66,2.5 2.5,4.17 4.16,6.66l-98.17 0c-3.33,-4.99 -4.16,-9.16 -4.16,-14.97 0,-4.17 2.5,-7.5 4.16,-9.15 0,-4.17 0,-6.66 5.82,-11.65 2.5,-2.5 7.49,-3.33 10.82,-1.67 3.32,-3.33 6.66,-4.99 10.81,-4.99 4.16,0 8.33,0 11.64,3.33 0,0 2.5,-9.99 4.16,-14.97 1.67,-6.66 5.84,-15.81 9.99,-24.14 -4.16,-13.3 -9.16,-25.79 -10.82,-38.26 0,-0.83 0.83,-2.5 0.83,-2.5 0,0 0,0 1.67,-1.67 1.67,-2.49 1.67,-5.82 3.33,-7.49 -1.66,0 -3.33,1.67 -4.16,1.67 -0.84,0 -2.5,2.5 -2.5,3.33 -0.84,-0.83 -0.84,-1.67 -0.84,-3.33 0,-2.5 -0.82,-5 -0.82,-6.67 0,-2.49 2.49,-4.98 4.16,-4.98 0,-2.51 0.83,-6.66 0.83,-9.16 -1.67,1.66 -5.83,5.83 -5.83,5.83l0 -10.82c0.84,-0.83 2.5,-1.66 3.33,-3.33 0,-13.3 0.83,-24.96 4.17,-35.78 0.83,-3.33 3.32,-4.98 4.99,-7.48 0,-3.33 0,-6.66 0,-9.16 2.5,-1.67 4.17,-4.16 6.67,-4.99 -0.84,-0.84 -2.5,-0.84 -4.17,-0.84 2.5,-5.83 5.83,-9.16 9.98,-12.47 1.67,-1.66 3.32,-3.33 4.99,-4.16 1.66,0 1.66,0.83 1.66,0.83 4.16,0 6.66,1.67 11.65,1.67 -1.66,-1.67 -4.16,-3.33 -6.66,-3.33l0.83 -0.84c3.33,-1.66 5.83,-3.33 9.16,-3.33 1.67,3.33 4.17,5 5,7.5l2.48 1.66c-0.82,-3.33 0.84,-7.49 -2.48,-10.81 2.48,0 8.32,3.33 13.3,5.83 2.5,0 4.99,-2.5 7.49,-2.5 -0.82,3.33 -2.5,7.49 -2.5,11.65 1.68,-1.68 2.5,-4.17 4.17,-5.83 0,-2.5 2.5,-4.17 3.33,-7.5 4.15,-0.83 7.5,-0.83 10.8,0 -3.31,1.67 -2.48,4.17 -2.48,5.83l0.82 0c1.66,0 5,-1.66 6.66,-2.5 3.34,0 5,0.84 7.5,2.5 -2.5,0.83 -5,1.67 -5.83,3.33 3.33,0 6.66,0 10.82,0l0.83 -1.66c8.33,5.83 11.63,14.97 14.97,24.13 -1.67,-0.84 -2.5,-1.67 -4.17,-1.67 0.83,1.67 0.83,4.99 2.5,4.99 3.33,0 4.17,2.49 5.83,4.17 3.33,3.32 9.16,6.65 10.81,12.47 5.82,11.65 5,14.98 7.49,22.46 -1.67,-1.66 -4.99,-0.83 -6.65,-3.33 0,2.5 1.66,5 4.16,7.5 1.65,0.83 3.33,1.66 4.99,1.66 2.5,3.33 3.32,8.33 4.16,12.48 -1.66,0 -2.5,-1.66 -5,-2.5l0 0.84c0,4.15 1.67,5.83 5.83,7.48 0,4.16 0,6.66 0,9.16 7.49,5 15.82,9.16 24.13,9.16 6.66,0 14.98,-2.5 20.81,-4.99 -0.83,-4.17 0.83,-9.17 4.15,-11.65 2.5,-2.49 6.66,-3.32 9.99,-3.32 8.32,0 16.64,5.81 23.29,12.47 8.33,9.98 14.98,23.29 17.48,27.45 8.32,20.8 8.32,39.11 8.32,45.77 0,11.64 -1.66,19.97 -3.32,27.46 3.32,2.5 8.31,2.5 10.8,2.5 9.98,0 19.14,-5.83 25.81,-12.48 10.8,-11.65 18.29,-29.12 18.29,-54.91 0,-19.97 -7.49,-42.44 -27.45,-64.07 -6.67,-6.66 -13.32,-12.48 -23.3,-16.63 -7.5,-1.66 -14.98,2.5 -24.14,0.83 -5,-1.66 -10.82,-5.83 -14.97,-9.98l0.83 -0.83c1.67,2.5 5,1.66 8.32,2.5 0.83,-0.84 -0.82,-2.5 -0.82,-3.34 2.48,-1.66 6.65,-1.66 9.97,-1.66 -2.5,-5 -7.5,-2.5 -9.97,-4.16 -1.67,-0.84 -2.5,-0.84 -4.18,0 0,0.83 1.68,2.49 1.68,4.16 -1.68,0 -3.33,-1.67 -5,-1.67 -2.49,0 -3.33,0 -4.16,0 -3.33,-3.33 -4.99,-10.8 -10.82,-13.3l0 -1.67c9.99,-1.66 19.15,-6.66 29.95,-4.99 1.66,0 3.33,0 4.16,0.83l-2.5 2.5c2.5,1.66 5,4.15 9.16,4.15l0.84 0c-0.84,-2.49 -2.5,-4.15 -2.5,-5.81 3.34,1.66 5.83,3.32 9.16,7.49 5,9.15 13.3,17.47 22.46,24.13 5,3.33 9.99,7.48 13.32,10.8 24.13,23.31 32.43,51.59 32.43,77.37 0,11.65 -0.83,41.61 -24.96,64.07zm-232.11 19.97l0 0c-1.67,-5.82 -6.66,-9.16 -5,-15.81 1.66,-0.83 5.83,-0.83 5.83,-4.99 0,-0.82 -0.83,-1.67 -2.5,-1.67l-2.5 0.85c0,-0.85 0.83,-2.5 2.5,-4.17l6.67 -2.5c-1.68,3.32 -1.68,7.49 -1.68,11.64 0,1.67 0.84,9.98 4.17,16.64l-7.49 0zm114.81 -15.81l0 0c0,5.83 1.67,9.99 2.5,15.81l-6.67 0c-1.66,-4.16 -4.16,-8.32 -4.16,-14.14 0,-1.67 0.85,-5 1.67,-5 1.68,2.5 1.68,4.17 3.33,5 1.66,-0.83 1.66,-2.5 1.66,-5 0,-0.83 0,-3.33 -1.66,-4.98l5.83 -0.85c0,2.5 -2.5,5.83 -2.5,9.16zm-97.35 15.81l0 0 -5 0c-1.65,-5.82 -3.31,-11.64 -3.31,-17.47 0.83,-1.67 1.66,-4.15 3.31,-5l5 5 0.85 0c0,5.83 -0.85,10.81 -0.85,17.47zm9.16 0l0 0 -5 0c0,0 2.5,-14.14 2.5,-16.64 0,-1.67 2.5,-4.16 4.17,-4.16 2.5,0 4.17,1.66 4.17,4.16 0,2.5 -3.34,9.98 -5.84,16.64zm135.63 -200.5l0 0c-3.35,1.67 -5,4.17 -9.16,4.17 2.49,0.83 3.32,1.65 4.99,1.65 0.82,-0.82 2.5,-1.65 4.17,-0.82 2.48,0.82 4.15,0 6.65,0 -1.67,-1.66 -4.17,-2.51 -6.65,-5zm-210.5 4.17l0 0c-1.66,1.65 -2.5,3.32 -4.16,5.82l0 3.33 4.16 -1.67 0 -7.48zm235.45 10.8l0 0c-0.84,-1.66 -2.5,-4.16 -4.16,-7.49 -3.34,0 -5.84,1.66 -7.5,2.5 2.5,0 5,2.5 6.66,4.99 2.5,0 4.16,1.67 6.66,4.17l-1.66 -4.17zm-137.29 39.94l0 0c-9.15,-4.99 -16.64,-6.66 -25.8,-6.66l0 -1.66c4.17,-0.84 7.5,-5.83 8.34,-9.16 2.49,-2.49 4.99,-5.82 4.16,-9.15 0,0 0,-0.83 0.83,-1.67 0,-0.83 0.83,-2.5 0,-2.5 -0.83,1.67 -2.5,1.67 -3.33,2.5 1.66,-4.99 2.5,-11.65 0.83,-15.81 1.67,0 2.5,-0.83 4.17,-0.83l3.32 -4.17c3.34,-1.65 1.67,-7.48 3.34,-10.8 -1.67,-4.17 -2.5,-7.49 -5,-9.16 -1.66,-4.16 -6.66,-2.5 -9.16,-5 -5,-0.83 -7.5,2.5 -10.81,4.17 -0.84,0 -0.84,1.66 -1.66,0.83 -0.83,2.5 -1.68,4.99 -2.5,7.49 -5.83,-0.83 -11.64,0 -15.81,2.5 -2.5,-1.66 -5,-1.66 -8.33,-2.5 -1.66,0 -4.16,0 -5.82,-0.83 -1.66,-3.33 -1.66,-6.66 -4.99,-7.49 -2.5,-1.67 -2.5,-1.67 -2.5,-3.33 -1.66,-0.84 -4.16,-1.67 -6.66,-1.67 -3.34,-1.65 -5.83,0.83 -9.16,1.67 -0.84,1.66 -2.5,1.66 -3.32,1.66 -2.5,4.17 -4.17,5.83 -5,9.98 0,3.34 1.67,5 2.5,8.33 1.67,2.5 4.98,5.82 9.15,7.48 -1.67,4.17 -1.67,13.32 0,17.48l-1.67 0.84c0,4.16 3.34,9.15 6.66,13.3 1.67,0 1.67,2.5 2.5,3.33 0,0.83 0,1.66 0,2.5 -9.16,-0.84 -16.63,1.66 -24.12,5.83 -1.67,0.83 0,2.49 0,4.99 4.16,-3.33 9.98,-5.83 14.96,-7.49 3.34,0 5.83,0 8.33,0l0 4.99c-6.66,4.17 -13.3,5.82 -19.13,11.64 0,1.67 -0.84,3.33 0,4.16 0,0 3.33,-2.49 5,-3.33 5.81,-4.16 9.96,-7.49 15.8,-9.97 1.66,2.49 2.5,4.17 4.16,5.82 4.16,-1.65 7.49,-3.33 11.64,-5.82 2.5,-0.83 4.99,0 7.49,-1.66l0 -5.83c-2.5,-0.84 -4.99,-3.33 -4.17,-6.66 -0.82,0 -1.66,0.83 -3.32,0.83 0,0 -2.5,-0.83 -2.5,-1.67 0,-1.66 0,-3.33 0.83,-3.33 3.33,-2.49 6.66,-1.66 10.82,-1.66 3.32,0 11.65,0 11.65,3.33 0,2.5 0,3.33 -1.67,4.16 -0.83,0 -2.5,0 -2.5,-0.83 -0.83,3.33 -3.33,5.83 -6.66,5.83l0.83 3.33c0,1.66 0.84,4.16 2.5,4.16 5.83,1.67 10.8,4.17 14.98,7.49 0.82,-2.49 2.48,-4.17 3.32,-5 9.16,1.68 16.65,8.33 22.47,14.15l0 -5c-5.82,-5.83 -13.31,-9.16 -20.81,-13.3 0,-0.84 0,-2.5 0,-4.17 9.99,0.84 18.31,3.33 25.8,8.32l0 -4.99zm-102.32 -32.44l0 0c-1.67,3.33 -1.67,5.83 -2.5,9.16l2.5 9.15c0,-5 3.33,-9.15 2.5,-16.64l2.5 -3.33 -5 1.67zm100.68 1.66l0 0 -3.34 14.14 4.99 -1.66 0.83 -4.99c0,-2.5 -1.66,-5 -2.48,-7.5zm14.13 31.62l0 0c0,-0.84 0,-3.33 -2.5,-2.5 -1.67,-0.83 -1.67,-3.33 -2.49,-5 -0.84,3.33 0,5.83 0,7.5 1.66,4.15 3.32,5.83 7.49,5.83 0,-1.68 -1.67,-4.17 -2.5,-5.83zm-49.93 9.15l0 0c-7.47,-3.32 -19.96,-5 -30.76,0 0,4.16 0.83,9.16 3.33,11.65l3.32 -4.17c0,0 0,0 0,1.67l0 5.82c2.5,1.67 4.16,1.67 5.82,1.67 0,-1.67 1.67,-3.33 2.5,-4.16 0,-0.83 0,-3.33 1.67,-3.33 0,2.5 0,4.16 1.67,5.82l0 1.67c2.5,1.67 5,0 6.66,0 0,-3.33 0.83,-4.99 0.83,-7.49l0 -1.67c1.67,1.67 3.33,4.17 3.33,5.83 4.15,-1.66 5,-8.33 5.83,-11.65 -1.68,-1.66 -2.49,-1.66 -4.18,-1.66zm52.43 6.66l0 0c-2.5,-0.84 -4.17,0 -6.67,0.83 0,1.67 0.84,1.67 1.67,4.17 0.83,0 3.33,0 5,0 1.67,0 3.33,1.66 4.99,0 -2.5,0 -3.32,-2.5 -4.99,-5zm85.69 2.5l0 0c-1.67,-1.67 -6.66,0 -6.66,-3.34 -0.84,-0.83 -2.5,-1.66 -5,0 -2.5,0.84 -5.82,6.67 -4.16,8.33 0.84,-0.83 6.66,-2.49 8.32,-2.49 3.34,0 6.66,1.66 10.82,2.49 -0.83,-1.66 -1.67,-3.33 -3.33,-4.99zm-98.18 5.82l0 0c-1.67,1.67 -3.33,3.34 -4.15,4.17 1.65,3.32 5.81,1.67 9.96,1.67l-5.82 -5.84zm-13.3 7.49l0 0c0,-5.82 -5,-5.82 -7.5,-8.32 0.84,2.5 0.84,6.67 2.5,9.97 2.5,1.68 5,5 9.16,4.17 -2.5,-2.49 -4.16,-4.17 -4.16,-5.83zm-65.73 -5.82l0 0c0.83,5 2.5,9.16 4.99,12.47l0.84 -8.31 -5.83 -4.17zm-8.33 2.5l0 0 0 -0.83c-1.66,-1.67 -3.33,-3.34 -5.81,-4.17 0,2.5 0.83,5.83 1.65,8.32 1.66,3.34 5.83,7.49 10.81,8.32 -0.83,-4.98 -4.99,-8.32 -6.66,-11.63zm179.71 -0.83l0 0c-3.33,0 -5.83,2.5 -8.33,4.15 0,1.66 -0.82,3.34 0,5.83 2.5,-2.49 6.66,-4.99 9.16,-4.99 3.33,0 4.16,0.82 7.5,0.82 0,-2.48 -4.17,-5.81 -8.33,-5.81zm-67.39 4.15l0 0 -4.99 3.34c4.15,2.49 9.15,1.66 11.64,0 -2.5,0 -5,-1.68 -6.66,-3.34zm-48.25 8.32l0 0c0,-3.32 -0.83,-7.48 -2.5,-10.8 -1.66,4.15 -4.16,9.97 0,15.8 1.67,2.5 5.84,1.66 8.33,0.83 -0.83,-1.66 -4.99,-3.33 -5.83,-5.83zm-78.2 -3.32l0 0c-0.83,0.83 -3.33,2.49 -3.33,4.16 0,1.66 0.83,4.16 0.83,5.82 1.67,-4.16 4.99,-5.82 7.49,-8.32 -1.66,-0.83 -3.32,-0.83 -4.99,-1.66zm114.81 1.66l0 0c0,0 -3.33,2.5 -5.83,2.5 2.5,3.33 6.67,4.99 13.32,4.99l3.31 -0.83c-3.31,-0.83 -7.48,-4.16 -10.8,-6.66zm-49.08 -1.66l0 0c-1.68,1.66 -3.33,2.49 -4.99,5.82 -0.84,3.33 4.99,4.16 8.31,5.83 -2.5,-3.33 -2.5,-7.49 -3.32,-11.64zm144.76 2.49l0 0c-1.66,0 -2.51,0.83 -4.16,0.83 -2.5,0 -1.67,-3.32 -4.16,-3.32 -0.84,0 -2.5,1.66 -4.17,1.66 -1.67,0 -4.16,0.83 -5.83,0.83 -2.5,0 -2.5,3.33 -6.66,3.33l0.85 6.66c3.31,-3.33 10.8,-6.66 13.3,-6.66 4.16,0 12.48,2.5 17.46,5 -0.83,-3.33 -3.33,-8.33 -6.65,-8.33zm-170.56 0l0 0c-2.5,-1.66 -4.16,-1.66 -5.82,-1.66 0,3.33 3.32,7.49 6.65,10.81 0.83,-3.33 -0.83,-5.83 -0.83,-9.16zm7.49 5l0 0 2.5 5.83c4.17,-1.67 4.17,-7.5 4.17,-11.65 -1.68,2.5 -4.17,4.16 -6.67,5.83zm121.47 4.16l0 0c-0.83,-1.67 -2.5,-2.5 -3.33,-3.33 -3.34,-0.83 -5.84,-5.83 -10.81,-5.83 4.98,5.83 9.15,10.82 14.14,14.98 0,-2.5 0,-4.16 0,-5.83zm-32.45 -2.5l0 0c-0.83,1.67 -0.83,3.33 -0.83,5.83 0,1.67 2.5,5 2.5,5 1.66,-1.67 2.5,-2.5 2.5,-4.17 0,-2.49 -2.5,-4.99 -4.17,-6.66zm-35.78 0l0 0c-1.66,0.83 -4.98,0.83 -7.48,2.5 1.67,1.67 3.32,3.33 6.65,5.83 2.5,1.67 7.49,1.67 9.98,1.67 -4.16,-2.5 -7.49,-7.5 -9.16,-9.99zm-92.33 2.5l0 0c0,3.33 -1.67,6.66 -1.67,10.82 0,0 1.67,-1.67 2.5,-2.5 2.48,-2.5 4.98,-6.66 4.98,-9.16 -2.5,-0.84 -4.16,0 -5.81,0.83zm208.81 6.66l0 0c-2.5,-0.83 -3.33,-3.33 -6.65,-3.33 -3.33,0 -0.83,1.67 -4.16,1.67 -2.5,0 -4.16,-1.67 -6.66,-1.67 -4.16,0 -3.34,2.5 -11.65,2.5 0,2.5 0,5 0,6.65 1.66,0.84 2.5,0.84 4.16,0.84 2.5,0 5.83,-1.66 5.83,-4.99 0,-1.67 3.33,0.83 5,0 0,0 1.66,-1.67 3.33,-1.67 2.5,0 1.65,2.5 3.33,4.17 0,1.65 4.98,3.33 9.15,3.33 0,-3.33 -1.67,-5.83 -1.67,-7.5zm-124.78 4.17l0 0 -2.5 -4.17 -1.66 0c-2.5,0.84 -5.84,0.84 -9.99,1.67 5.83,4.15 11.65,8.33 19.15,6.65l1.65 0c-1.65,-1.66 -4.99,-4.15 -6.65,-4.15zm-73.22 -3.33l0 0c-1.66,3.33 -5,9.16 -10.8,10.8 3.31,0 7.48,1.67 10.8,-1.65l3.33 -9.16c-1.67,0 -1.67,-0.84 -3.33,0zm128.13 5.82l0 0c0,-2.49 0,-4.16 0,-4.99 -1.67,0 -2.5,-0.83 -2.5,-0.83 0,0 -1.66,4.16 -1.66,7.48 0.82,2.5 4.16,5 4.16,5 0,0 1.66,0 2.5,-1.67 0.81,-1.65 -0.84,-3.33 -2.5,-4.99zm-76.56 0l0 0c-0.82,0 -1.66,-0.84 -1.66,-2.49l-9.97 -2.5c0,0.83 0,2.5 0.83,2.5 4.15,2.49 4.15,7.48 9.15,9.15 1.66,0 5.83,0 7.5,-1.67 -1.67,-1.65 -3.34,-3.33 -5.84,-4.99zm-35.76 -4.16l0 0 -5.83 5.82c-2.49,0.83 -4.16,1.68 -5.83,3.33 3.34,1.67 6.66,0 9.16,0 3.33,-1.65 4.99,-4.99 7.49,-9.15l-4.99 0zm127.28 10.81l0 0c0,0 0,-2.5 1.67,-2.5 0,-1.67 1.67,-1.67 1.67,-1.67 -3.34,-3.33 -3.34,-9.15 -7.5,-9.15 -1.65,-1.66 -2.5,-2.5 -2.5,-4.16 -2.5,-1.67 -5.81,-2.5 -8.31,-2.5 2.5,1.67 5,3.33 5.81,5.83 2.5,5.83 5.85,9.97 7.5,15.8 1.66,3.33 1.66,7.49 3.33,10.82 0,2.5 0,4.16 1.67,4.16 0,-4.16 0.83,-9.16 0.83,-13.31 -0.83,-1.67 -2.5,-2.5 -4.17,-3.33zm-118.14 -4.17l0 0c-0.84,2.5 -2.5,5.83 -4.16,7.5 -1.67,1.66 -3.34,2.5 -4.16,4.16 4.16,-1.66 7.48,-2.5 9.97,-3.33 3.34,-4.16 5,-5.83 5.84,-9.16 -2.5,0 -4.17,0 -7.5,0.83zm165.57 2.5l0 0c0,-2.5 -5,-2.5 -9.98,-2.5 -1.67,0 -6.66,2.5 -8.33,2.5 0.83,2.5 2.5,5 2.5,5 4.16,-0.84 5.83,-1.67 8.33,-1.67 3.32,0 4.99,0.83 4.99,3.33 0,1.67 4.17,2.5 5.82,2.5 0,-5.83 -3.32,-7.49 -3.32,-9.16zm-36.61 0l0 0c0,-1.65 -1.67,-1.65 -3.33,-1.65l-1.66 1.65 0.83 0c2.49,4.16 4.16,7.5 5.83,11.65 -0.84,-2.5 0.83,-5 0.83,-7.5 0,-1.66 -1.67,-3.33 -2.5,-4.16zm-31.62 13.31l0 0c0.84,-1.66 0.84,-3.33 0.84,-4.16 0,-4.16 -2.5,-5.83 -2.5,-5 -1.66,1.67 -4.16,3.34 -4.16,6.66 0,2.5 4.16,4.17 4.16,4.17 0.84,1.67 -0.83,1.67 -0.83,3.33 2.49,2.5 4.17,5 4.17,9.97 0,-4.15 1.66,-7.48 1.66,-11.63 0,-1.67 -4.16,-1.67 -3.34,-3.34zm68.23 0.84l0 0c-2.5,0 -3.33,-1.67 -5.83,-2.5 -4.16,-0.84 -2.5,-2.5 -7.5,-2.5 -2.49,1.66 -3.32,3.33 -3.32,5 0,0 0,4.16 0,4.99 2.5,-0.83 3.32,-4.16 5.82,-4.16 9.15,0 6.66,8.33 10.82,8.33l0 -9.16zm-143.11 -1.67l0 0c-1.65,0 -2.5,0.83 -5,0.83 0,0 0,1.67 0.85,3.34 1.65,1.66 5.83,3.32 6.65,3.32l0.84 0 -3.34 -7.49zm39.95 2.5l0 0c-1.67,0 -4.17,0 -5,-0.83 -4.15,-5 -7.49,4.16 -11.64,2.5 -1.66,1.66 -4.16,3.32 -4.16,4.99l0.83 0.83c2.5,-0.83 4.99,-1.66 6.66,-3.33 4.17,-0.83 7.48,3.33 9.97,0.83 1.67,-0.83 2.5,0.84 3.34,0.84 1.66,2.5 4.16,2.5 7.49,2.5 -2.5,-2.5 -3.33,-6.66 -7.49,-8.33zm50.74 5.83l0 0c0.83,-2.5 0,-6.66 -0.82,-8.33 0,-2.5 0.82,-5.83 -0.85,-8.33 -0.82,2.5 -5.81,3.34 -5.81,7.5 0,1.66 2.5,2.5 2.5,5 0,1.66 -0.84,4.16 -0.84,5.82 0,1.67 2.5,0.84 3.33,0.84 2.49,0 1.67,6.65 0,9.97 1.67,-2.5 5.82,-6.65 5.82,-9.97 0,-1.67 -3.33,0 -3.33,-2.5zm-106.49 -4.16l0 0c-3.33,0 -6.66,0 -9.16,0l3.33 4.99c2.5,0.83 5,0.83 7.49,-0.83l-1.66 -4.16zm-29.95 3.32l0 0c0,-0.83 0,-0.83 0,-1.66 -1.66,-1.66 -4.99,-3.33 -6.66,-5 -2.5,-4.16 -7.48,-2.5 -12.46,-4.16l-5 5.83 0 1.67c3.33,-1.67 6.66,-1.67 9.16,-1.67 2.5,1.67 4.15,0 5.81,1.67 0.84,2.49 2.5,4.16 5,5.82 4.16,0 6.66,4.17 8.33,9.15 0,0 0.83,-8.31 0.83,-9.97 -1.66,-0.83 -4.16,-0.83 -5,-1.67zm183.87 5.82l0 0c-2.49,0 -4.99,-3.32 -7.49,-2.48 -1.66,-0.84 -4.16,0.83 -5.83,0.83 0,1.65 -1.67,1.65 -0.83,5.82 3.33,0 8.32,-2.49 10.81,0.83 0.84,0.83 0.84,5.83 5.83,6.66 0,-3.33 0.82,-4.16 0.82,-6.66 -0.82,-0.83 -1.65,-3.32 -3.32,-5zm-89.85 5.83l0 0c-5.83,-5.83 -13.31,-5.83 -20.8,-5.83 -1.66,0 -4.16,0 -5.82,0 -2.5,0 -4.17,2.5 -6.66,2.5l-3.34 7.5c4.16,-4.17 8.33,-4.17 11.65,-5.83 1.66,0.83 0.83,1.66 1.66,1.66 2.5,0 5.84,0 8.32,-0.83 2.5,0 5,0 7.49,0.83 1.67,3.33 5,3.33 8.34,5l-0.84 -5zm108.15 -4.15l0 0c-1.67,2.49 -1.67,5.82 -4.16,7.48l4.99 5c1.67,-2.5 1.67,-4.16 1.67,-7.49 0,-0.84 -1.67,-4.99 -2.5,-4.99zm-204.67 8.32l0 0c-0.82,-0.84 -2.49,-2.5 -1.66,-4.17 -2.5,-1.66 -5,-2.5 -7.48,-5.83 -2.5,-0.82 -3.33,-3.32 -5.83,-3.32 -1.66,-1.66 -4.16,-1.66 -6.66,-1.66 -3.34,0 -3.34,3.33 -5,4.98 0,0 0,1.68 0.84,2.5 2.49,-0.82 4.16,-2.5 7.49,-2.5 2.49,3.33 4.99,5 8.33,7.5 0,0 7.48,2.5 8.31,3.33 0.84,0.83 -0.83,1.67 -0.83,2.5 2.49,1.66 0.83,5.83 2.49,7.49l4.17 -4.16c-1.67,-3.33 0,-6.66 -4.17,-6.66zm109.82 -2.5l0 0c0,-3.33 -4.15,-6.65 -6.65,-9.97l0 2.48c1.67,5.83 4.99,11.65 3.32,19.15 0.83,0 1.67,1.66 3.33,3.33 0.84,-4.17 0,-9.16 0,-14.98zm69.89 6.66l0 0c-1.67,-0.83 -3.33,0 -4.99,-0.83 0.83,-1.67 0.83,-2.5 0.83,-3.33 -1.67,0 -2.5,-0.84 -4.17,-2.5 -1.66,0 -1.66,0 -2.5,1.66l-5.81 5c3.33,0 2.49,-1.66 6.65,-1.66 1.66,0 2.5,3.33 2.5,4.99 4.16,0 6.66,1.67 9.16,3.33l1.66 -1.66c0,-2.5 -1.66,-4.17 -3.33,-5zm-186.37 6.66l0 0 -6.65 -2.5c-0.83,-1.66 -0.83,-2.49 -0.83,-4.16 0,-3.33 -4.16,-3.33 -6.66,-5l-3.33 -1.66 -4.16 0c-1.67,1.66 -2.5,3.33 -2.5,5 2.5,0.83 2.5,-0.84 4.16,0 3.33,1.66 9.16,2.49 14.98,8.32l4.15 10.81 1.67 -5.82 -0.84 -5zm207.17 0.84l0 0c0,-0.84 0,-2.5 0,-3.34 0,-3.33 -1.67,-4.99 -4.17,-5.82l-2.48 4.16c2.48,5.83 6.65,7.49 6.65,10.8 0,-0.82 0.83,-1.65 2.49,-3.32 0,-1.66 -2.49,-1.66 -2.49,-2.49zm-101.49 0l0 0c0,-2.5 -0.84,-5 -3.33,-6.67 -5,-1.66 -9.16,-4.16 -14.98,-4.16l-4.99 0.83c-2.5,0.84 -5.82,0 -8.32,1.67l-2.5 5.83c2.5,-2.5 6.66,0 9.98,-2.5 1.67,-1.67 1.67,1.66 3.32,2.5 2.5,1.66 3.33,6.66 6.66,4.99 5,2.5 4.16,7.49 4.16,11.64l4.17 -2.5c-0.83,-1.66 0,-4.15 -0.83,-5.83 -1.67,-3.32 -3.34,-3.32 -5.83,-4.98 2.49,-3.33 -1.67,-4.17 -2.5,-5.83l5.83 0c2.5,1.66 3.33,3.33 3.33,5.83 4.99,0 5.83,5.83 7.49,9.15 0.84,-2.49 1.67,-4.99 2.5,-7.49 0,-1.66 -2.5,-1.66 -4.16,-2.49zm-19.14 5.81l0 0c-0.82,-0.82 -3.32,0 -4.16,-0.82 0,-2.5 -1.66,-2.5 -2.5,-4.16 -1.66,-0.83 -3.32,0 -3.32,0l-1.67 1.66c1.67,0 3.33,3.32 6.66,3.32 3.32,0.85 1.67,5.83 4.17,8.33l1.65 -2.5c0.83,-1.66 0,-4.15 -0.83,-5.83zm-109.82 -3.32l0 0 2.5 -3.33 -3.33 -0.83c-4.16,0.83 -5.84,0.83 -9.15,4.16 -5,5 -5,16.64 -5,21.63l0 0.84c1.66,-3.34 5,-7.5 6.65,-10.82 0.85,-2.5 0.85,-4.16 2.5,-4.98 3.33,0 5.83,2.48 5.83,2.48 -0.83,4.17 -1.67,7.5 -1.67,11.65 0,0 8.33,-7.49 8.33,-13.31 0,-3.32 -4.16,-5.82 -6.66,-7.49zm-19.97 0l0 0c0,-2.49 0,-4.99 2.5,-5.83l-7.5 0.84c-1.66,1.66 -3.32,4.99 -4.16,7.49 -1.66,3.32 -2.5,7.48 -2.5,11.64 0,2.5 0,7.49 1.67,9.98 1.67,-1.66 3.33,-2.5 4.99,-3.33 -2.49,-8.33 -1.66,-9.98 0.84,-14.98 3.33,0 5,3.33 5.83,5.83 1.67,-2.5 2.49,-4.98 2.49,-7.48 0,-3.33 -3.32,-4.17 -4.16,-4.17zm-16.64 1.67l0 0 -6.65 7.48 0 9.98c1.67,2.5 4.15,5 4.98,5 0,0 0.85,-2.5 0.85,-3.33 0,-4.16 -1.68,-7.49 0,-11.65 1.65,0 3.32,2.5 4.15,2.5 1.66,-4.16 0,-7.48 -3.33,-9.97zm66.55 -171.4l0 0c-2.49,-4.15 -6.66,0 -8.32,-5.81 0.83,-4.17 1.66,-9.99 7.5,-10.82l1.66 0c4.16,1.67 11.65,2.5 11.65,9.16 -2.5,0.83 -9.99,4.99 -12.49,7.48zm65.73 3.33l0 0 -1.67 0c-1.66,-4.15 -6.66,-9.14 -11.65,-10.8 0,-4.17 1.68,-5.83 4.17,-7.49l5 -1.67c3.33,1.67 5.83,3.33 8.33,4.99 1.66,4.17 1.66,9.16 0,13.32 0,1.65 -2.5,0 -4.17,1.65zm-23.29 1.67l0 0c-2.5,0 -0.84,-5 -4.17,-5 -0.83,0 -1.67,0 -0.83,-0.82 0.83,-1.67 2.5,0 4.16,0 2.5,-1.67 2.5,3.33 5.83,3.33 0.82,0.82 0.82,0.82 0.82,2.49 -1.65,0 -4.15,0 -5.81,0zm-20.81 0l0 0 -6.65 0c0,-1.67 1.66,-3.32 4.15,-4.15 2.5,-0.85 5.82,-3.34 7.49,-1.67 -1.67,1.67 -3.33,4.15 -4.99,5.82zm-2.5 25.79l0 0c-2.49,2.5 -4.15,4.17 -4.15,5.83 -2.5,1.67 -5,1.67 -6.66,3.33 -1.67,-1.66 0,-5.82 0.82,-6.66 2.5,-2.5 6.67,-2.5 7.5,-6.65 0,-2.5 0,-5 0,-8.33 0,-1.66 -0.83,0.84 -2.5,0 -1.66,0.84 -3.33,0.84 -4.16,0 -1.66,-0.83 -3.33,-1.66 -3.33,-4.16 -1.67,0 -4.17,-1.67 -4.17,-3.33l1.67 0c4.99,0 9.16,0 14.13,0 1.67,0.83 3.34,1.66 3.34,3.33 0,5.83 -2.5,11.65 -2.5,16.63zm36.61 -16.63l0 0c-1.66,0 -1.66,3.33 -3.34,4.16 -1.66,1.67 -4.16,0.84 -6.66,0.84 -1.65,-0.84 -2.5,-1.67 -2.5,-2.5l-0.81 0.83c0.81,2.5 0.81,6.66 0.81,9.98l4.18 1.67c0,5.82 4.98,4.15 8.32,6.65 -0.84,2.5 -1.66,4.16 -3.34,5 -1.66,-2.5 -4.16,-2.5 -6.66,-4.17 0,-3.33 -3.31,-5.83 -5.81,-5.83 0,-5.81 0,-11.63 -1.67,-16.63l1.67 0c0.83,-2.5 3.31,-2.5 5,-3.33l14.13 0.83c0.83,0.83 0,0.83 0,0.83 -0.83,1.67 -2.5,1.67 -3.33,1.67zm-45.76 36.61l0 0c-1.66,-0.83 -0.84,-3.33 -0.84,-3.33 3.34,0 5.84,-1.67 7.5,0 -0.83,0 -4.16,1.66 -6.66,3.33zm33.26 -1.67l0 0 0.85 -1.66 6.65 0 0 4.16 -7.5 -2.5z"/>
  </g>
  <path class="fil2" d="M3878.52 351.25l0 130.14 46.25 0 0 -46.56 15.47 0 56.43 46.56 66.58 0 -79.18 -64.32 74.17 -66.27 -65.37 0 -52.18 46.1 -17.59 0 0 -45.35 -44.59 -0.31zm-900.83 0.31l32.31 0 70.07 130.13 -49.14 0 -12.13 -21.99 -81.45 0 -12.13 21.54 -51.27 0 71.74 -129.68 32 0zm0 74.92l21.85 0 -21.85 -38.22 -0.15 -0.3 -21.69 38.52 21.84 0zm109.21 -75.23l0 130.14 46.41 0 0 -46.56 15.47 0 56.43 46.56 66.58 0 -79.33 -64.32 74.32 -66.27 -65.37 0 -52.17 46.1 -17.75 0 0 -45.35 -44.6 -0.31zm274.24 0c17.59,0 35.19,0 52.78,0 7.89,0 22.75,7.13 27.75,22.45 4.1,12.89 1.22,34.13 -9.85,41.87 8.04,3.33 13.49,15.92 14.25,28.96l0 5.16c-0.15,2.28 -0.45,4.55 -0.91,6.68 -2.88,14.41 -14.25,25.33 -23.36,25.33 -20.33,0 -40.5,0 -60.67,0 -26.7,0 -53.39,0 -79.94,0 -0.15,-43.38 -0.15,-86.9 -0.31,-130.44 26.71,0 53.55,0 80.25,0zm0 94.19l32.91 0c3.94,0 7.28,-3.19 7.28,-6.98 0,-3.79 -3.34,-6.83 -7.28,-6.83l-32.91 0 -38.23 0.16 0 13.64 38.23 0zm0 -46.86l31.09 0c3.94,0 7.13,-3.19 7.13,-6.98 0,-3.8 -3.19,-6.98 -7.13,-6.98l-31.09 0.15 -38.23 0.15 0 13.65 38.23 0zm304.56 -47.01l0 129.68 46.87 0 0 -87.37 66.28 87.52 72.65 0 0 -129.83 -46.25 0 0 90.85 -67.65 -91.16 -71.9 0.31zm-110.12 0l32.31 0 70.07 130.13 -48.99 0 -12.28 -21.99 -81.46 0 -12.13 21.54 -51.26 0 71.74 -129.68 32 0zm0 74.92l22 0 -22 -38.22 -0.15 -0.3 -21.69 38.52 21.84 0z"/>
  <g id="_2076944351776">
   <path class="fil1" d="M4254.9 432.02c2.75,-1.24 5.02,-2.94 6.84,-5.1 4.18,-4.95 6.28,-12.76 6.28,-23.37 0,-10.37 -2.02,-18.11 -6.02,-23.21 -1.89,-2.4 -4.26,-4.23 -7.1,-5.49l0 -49.81c2.14,0.31 4.16,0.68 6.09,1.11 7.32,1.63 13.29,4.16 17.87,7.59 9.71,7.26 17.14,16.88 22.34,28.86 5.18,11.97 7.77,25.63 7.77,40.95 0,15.29 -2.59,28.87 -7.74,40.77 -5.15,11.9 -12.59,21.54 -22.37,28.86 -4.73,3.5 -10.76,6.07 -18.06,7.67 -1.81,0.4 -3.77,0.75 -5.9,1.05l0 -49.88zm-13.1 2.49l0 0c5.16,-0.04 9.52,-0.87 13.1,-2.49l0 49.88c-6.41,0.9 -14.23,1.33 -23.42,1.33l-29.63 0 0 -159.53 32.61 0c7.64,0 14.45,0.46 20.44,1.35l0 49.81c-3.18,-1.42 -6.97,-2.14 -11.34,-2.14l-1.76 0 0 61.79z"/>
   <path class="fil1" d="M4412.78 435.84l-45.59 0.09 0 -24.55 8.69 0.06c-0.16,-4.43 -0.94,-7.71 -2.33,-9.82 -1.41,-2.12 -3.5,-3.16 -6.25,-3.16l-0.11 0 0 -31.5c8.15,0.15 15.48,2.56 22.01,7.25 6.75,4.84 12.33,11.86 16.83,21.09 2.3,4.73 4.02,9.93 5.18,15.63 1.15,5.72 1.72,11.93 1.72,18.7 0,1.75 0,3.06 -0.02,3.91 -0.03,0.9 -0.09,1.64 -0.13,2.31zm-45.59 18.82l0 0c1.7,-0.05 3.19,-0.8 4.48,-2.23 1.33,-1.49 2.38,-3.65 3.14,-6.48l35.58 3.39c-3.11,12.2 -8.46,21.61 -16.06,28.19 -7.42,6.46 -16.46,9.76 -27.14,9.92l0 -32.8zm0 -18.73l0 0 -9.01 0.02 0 1.75c0,5.73 0.74,9.96 2.19,12.76 1.45,2.79 3.66,4.2 6.62,4.2l0.2 0 0 32.8 -0.82 0c-6.12,0 -11.84,-1.33 -17.17,-3.98 -5.34,-2.64 -10.11,-6.51 -14.37,-11.6 -4.73,-5.88 -8.4,-12.68 -10.95,-20.38 -2.53,-7.71 -3.81,-15.81 -3.81,-24.29 0,-8.56 1.28,-16.74 3.87,-24.48 2.58,-7.75 6.22,-14.47 10.89,-20.2 4.26,-5.17 9.02,-9.05 14.31,-11.68 5.34,-2.6 11.05,-3.91 17.25,-3.91l0.8 0.01 0 31.5c-2.41,0.04 -4.36,1.15 -5.82,3.31 -1.52,2.23 -2.49,5.43 -2.87,9.55l8.69 0.06 0 24.55z"/>
   <path class="fil1" d="M4424.84 483.23l0 -112.67 37.29 0 0 15.59c3.32,-6.48 7,-11.31 11.02,-14.47 4.03,-3.16 8.58,-4.73 13.61,-4.73 8.44,0 15.1,3.65 20.02,10.9 4.94,7.26 7.4,17.18 7.4,29.75l0 75.62 -38.44 0 0 -56.87c0,-5.62 -0.42,-9.44 -1.23,-11.57 -0.81,-2.12 -2.25,-3.16 -4.29,-3.16 -2.22,0 -3.95,1.23 -5.12,3.72 -1.18,2.46 -1.75,6.14 -1.75,11.01l0 56.87 -38.52 0z"/>
   <polygon class="fil1" points="4530.95,483.23 4530.95,370.56 4569.38,370.56 4569.38,483.23 "/>
   <polygon class="fil1" points="4578.25,483.23 4609.78,412.75 4583.44,412.75 4583.44,370.56 4666.07,370.56 4634.69,440.42 4662.02,440.42 4662.02,483.23 "/>
   <path class="fil1" d="M4722.06 443.55c2.65,-0.42 4.79,-1.46 6.41,-3.1 2.17,-2.23 3.24,-5.36 3.24,-9.44 0,-4.13 -1.07,-7.29 -3.24,-9.44 -1.62,-1.64 -3.76,-2.65 -6.41,-3.06l0 -35.29c1.23,-0.49 2.27,-1.21 3.12,-2.16 1.7,-1.9 2.56,-4.69 2.56,-8.3 0,-3.65 -0.86,-6.4 -2.56,-8.3 -0.85,-0.94 -1.89,-1.64 -3.12,-2.11l0 -38.66 6.2 0c11.49,0 20.46,3.83 26.9,11.49 6.42,7.67 9.63,18.34 9.63,31.99 0,8.7 -1.52,15.95 -4.55,21.72 -3.06,5.81 -7.35,9.56 -12.91,11.31 7.62,2.23 13.28,6.47 16.99,12.71 3.74,6.26 5.6,14.66 5.6,25.19 0,14.91 -3.54,26.15 -10.61,33.73 -7.06,7.6 -17.45,11.38 -31.17,11.38l-6.07 0 0 -39.68zm-9.63 -25.27l0 0 0 25.49 6.74 0c1.03,0 1.99,-0.07 2.9,-0.22l0 39.68 -47.44 0 0 -159.53 47.44 0 0 38.66c-1.25,-0.48 -2.7,-0.72 -4.36,-0.72l-5.28 0 0 22.32 5.28 0c1.66,0 3.11,-0.25 4.36,-0.74l0 35.29c-0.91,-0.14 -1.87,-0.22 -2.9,-0.22l-6.74 0z"/>
   <path class="fil1" d="M4825.8 442.57c3,0 5.41,-1.45 7.19,-4.35 1.8,-2.9 2.69,-6.81 2.69,-11.67 0,-4.92 -0.92,-8.9 -2.72,-11.87 -1.81,-2.97 -4.21,-4.46 -7.16,-4.46l0 -37.57c3.46,3 6.71,7.26 9.71,12.83l0 -14.92 36.82 0 0 112.67 -35.44 0 0 -16.99c-3.55,6.72 -7.26,11.81 -11.09,15.27l0 -38.94zm-9.88 -16.02l0 0c0,4.8 0.92,8.67 2.73,11.6 1.8,2.94 4.2,4.42 7.16,4.42l0 38.94 -0.92 0.79c-4.18,3.46 -8.81,5.17 -13.84,5.17 -9.21,0 -16.81,-5.54 -22.87,-16.66 -6.04,-11.11 -9.07,-25.44 -9.07,-42.93 0,-18.33 2.95,-33.06 8.83,-44.19 5.91,-11.15 13.59,-16.74 23.11,-16.74 4.88,0 9.32,1.53 13.34,4.54 0.48,0.36 0.95,0.75 1.42,1.16l0 37.57c-2.96,0 -5.36,1.52 -7.16,4.54 -1.81,3.01 -2.73,6.96 -2.73,11.79z"/>
   <path class="fil1" d="M4888.56 483.23l0 -112.67 37.29 0 0 15.59c3.32,-6.48 7.01,-11.31 11.02,-14.47 4.03,-3.16 8.58,-4.73 13.61,-4.73 8.45,0 15.1,3.65 20.02,10.9 4.94,7.26 7.4,17.18 7.4,29.75l0 75.62 -38.43 0 0 -56.87c0,-5.62 -0.42,-9.44 -1.24,-11.57 -0.8,-2.12 -2.24,-3.16 -4.28,-3.16 -2.22,0 -3.95,1.23 -5.12,3.72 -1.19,2.46 -1.76,6.14 -1.76,11.01l0 56.87 -38.52 0z"/>
   <polygon class="fil1" points="4993.89,483.23 4993.89,314.32 5031.94,314.32 5031.94,413.6 5048.08,370.56 5093.08,370.56 5064.98,424.72 5094.62,483.23 5049.15,483.23 5031.94,441.05 5031.94,483.23 "/>
   <polygon class="fil2" points="4531.53,360.63 4569.42,360.63 4569.42,335.16 4531.53,335.16 "/>
   <path class="fil2" d="M5269.54 299.21c14.86,4.03 28.21,11.98 38.98,22.75l8.38 -8.38c0.12,-3.76 2.47,-8.56 6.59,-12.64 6.15,-6.17 13.9,-8.41 17.31,-5.01 3.41,3.4 1.18,11.18 -4.97,17.33 -4.32,4.31 -9.4,6.7 -13.23,6.58l-8.37 8.38c12.71,15.3 20.73,35.02 21.7,56.66l14.16 0c2.74,-2.58 7.8,-4.32 13.6,-4.3 8.71,-0.01 15.76,3.9 15.78,8.71 0,4.82 -7.08,8.75 -15.77,8.74 -6.1,0 -11.38,-1.91 -14.01,-4.7l-13.75 0c-0.88,21.65 -8.82,41.38 -21.46,56.74l8.69 8.69c3.76,0.12 8.57,2.46 12.64,6.59 6.17,6.15 8.41,13.9 5.01,17.31 -3.41,3.41 -11.18,1.18 -17.33,-4.97 -4.31,-4.32 -6.7,-9.4 -6.59,-13.23l-8.1 -8.11c-10.81,10.91 -24.28,18.99 -39.26,23.06l0 -31.78c6.83,-2.87 13.04,-7.03 18.36,-12.17l-18.36 -18.36 0 -11.95 24.03 24.03c7.75,-9.87 12.67,-22.27 13.48,-35.84l-37.51 0 0 -8.45 37.49 0c-0.9,-13.55 -5.9,-25.92 -13.71,-35.75l-23.78 23.77 0 -11.94 18.08 -18.08c-5.26,-5.02 -11.36,-9.06 -18.08,-11.87l0 -31.77zm-18.06 -2.87l0 0c6.21,0.31 12.24,1.29 18.06,2.87l0 31.77c-5.66,-2.38 -11.72,-3.89 -18.07,-4.36l-0.01 43.95c2.17,0.47 4.2,1.3 6.02,2.43l12.06 -12.06 0 11.94 -6.03 6.04c1.16,1.8 2.03,3.8 2.53,5.95l3.5 0 0 8.45 -3.4 0c-0.46,2.16 -1.29,4.18 -2.41,6.01l5.81 5.81 0 11.95 -11.7 -11.71c-1.92,1.24 -4.07,2.16 -6.38,2.65l0 43.94c6.36,-0.46 12.42,-1.95 18.08,-4.34l0 31.78c-5.82,1.58 -11.86,2.54 -18.08,2.85l0 9.27c2.8,2.63 4.71,7.93 4.7,14.01 0.01,8.72 -3.89,15.77 -8.71,15.78 -4.82,0.01 -8.74,-7.08 -8.73,-15.79 0,-5.78 1.73,-10.85 4.29,-13.61l0 -9.66c-6.23,-0.31 -12.29,-1.29 -18.11,-2.87l0 -31.77c5.66,2.39 11.75,3.89 18.11,4.35l0 -44.03c-2.15,-0.52 -4.16,-1.39 -5.96,-2.56l-12.15 12.15 0 -11.94 6.26 -6.26c-1.13,-1.83 -1.95,-3.85 -2.41,-6.01l-3.85 0 0 -8.45 3.94 0c0.51,-2.15 1.38,-4.16 2.55,-5.96l-6.49 -6.48 0 -11.95 12.51 12.51c1.71,-1.05 3.6,-1.85 5.6,-2.33l0 -44.04c-6.36,0.47 -12.45,1.98 -18.11,4.37l0 -31.77c5.83,-1.58 11.89,-2.57 18.12,-2.88l0 -9.69c-2.58,-2.74 -4.32,-7.8 -4.29,-13.59 -0.01,-8.72 3.89,-15.77 8.7,-15.78 4.83,-0.01 8.75,7.08 8.75,15.76 0,6.1 -1.92,11.38 -4.7,14.01l0 9.29zm-26.58 183.03l0 0c-14.89,-4.05 -28.24,-12.04 -39.02,-22.85l-7.89 7.89c0.12,3.85 -2.28,8.94 -6.59,13.23 -6.16,6.17 -13.9,8.41 -17.31,5.01 -3.41,-3.4 -1.18,-11.18 5,-17.34 4.09,-4.09 8.9,-6.46 12.65,-6.6l8.45 -8.45c-12.75,-15.39 -20.77,-35.22 -21.65,-56.97l-13.33 0c-2.63,2.81 -7.92,4.71 -14.01,4.71 -8.71,0.01 -15.77,-3.89 -15.78,-8.71 0,-4.82 7.08,-8.74 15.8,-8.73 5.78,0 10.84,1.72 13.6,4.28l13.74 0c0.97,-21.74 9.08,-41.53 21.9,-56.87l-8.14 -8.15c-3.84,0.13 -8.94,-2.27 -13.23,-6.58 -6.17,-6.16 -8.41,-13.9 -5.01,-17.31 3.4,-3.42 11.18,-1.18 17.34,5 4.08,4.09 6.46,8.9 6.59,12.64l8.17 8.17c10.72,-10.65 23.97,-18.53 38.72,-22.54l0 31.77c-6.61,2.79 -12.62,6.76 -17.81,11.67l17.81 17.81 0 11.95 -23.54 -23.55c-7.92,9.86 -12.99,22.32 -13.9,35.98l37.44 0 0 8.45 -37.46 0c0.82,13.66 5.81,26.15 13.65,36.06l23.81 -23.8 0 11.94 -18.12 18.11c5.27,5.05 11.38,9.14 18.12,11.97l0 31.77z"/>
  </g>
  <path class="fil4" d="M5805.21 389.11c10.56,10.66 15.88,22.2 15.88,34.45 0,4.08 -0.59,8.23 -1.76,12.43 -3.08,11.11 -9.49,19.71 -12.9,23.7 -14.8,-57.94 -43.21,-84.96 -52.98,-92.83 8.02,-1.06 28.81,-0.9 51.76,22.25zm-41.44 92.32l0 0c-15.66,-15.62 -16.69,-55.9 -16.69,-75.68 0,-1.69 0.01,-3.22 0.01,-4.59l0.01 -4.51c-0.01,-0.43 -0.01,-0.87 -0.01,-1.24 0,-12.09 1.42,-21.32 2.13,-25.12 34.35,25.42 51.37,89.62 52.58,94.3 -4.21,25.72 -21.37,23.46 -22.1,23.34l-0.11 -0.02 -0.1 0c-6.07,0.05 -11.34,-2.13 -15.72,-6.49zm-164.64 -33.73l0 0c-0.05,-0.82 -0.07,-1.64 -0.07,-2.46 0,-18.12 12.59,-35.88 36.61,-51.53 30.49,-19.88 54.37,-24.74 69.06,-25.31 12.85,-0.51 21.05,2.11 23.74,3.14 -18.9,45.35 -43.39,75.74 -60.69,93.28 -16.94,17.22 -30.42,25.74 -33.08,27.34 -21.19,-10.45 -34.47,-27.07 -35.57,-44.46zm76.56 21.18l0 0c17.04,-18.68 40.48,-49.75 56.53,-92.46 3.59,12.06 5,24.59 5,36.66 0,16.73 -2.63,32.59 -5.6,45.16 -5.72,24.36 -13.89,41.92 -13.98,42.1 -0.17,0.38 -15.52,35.53 -41.25,35.53 -23.58,0 -33.06,-31.06 -34.47,-36.19 3.1,-2.2 17.02,-12.44 33.77,-30.79zm120.67 -175.35l0 0c7.04,-14.54 10.31,-25.99 11.43,-30.47 3.06,2.46 9.68,8.88 12,19.42 0.57,2.56 0.84,5.22 0.84,7.92 0,10.11 -3.91,21.26 -11.68,33.21 -11.39,17.54 -25.7,28.07 -41.34,30.47 -8.22,1.25 -14.86,-0.05 -18.19,-0.94 24.27,-19.52 38.9,-43.08 46.93,-59.61zm-51.64 29.94l0 0c0,-2.66 0.06,-5.3 0.2,-7.83l0.18 -3.15c0.88,-17.49 3.25,-63.93 21.69,-80.24 4.63,-4.11 10.05,-5.97 16.14,-5.53 0.71,0.08 18.69,2.5 21,31.61 -0.44,1.83 -4.01,15.47 -12.49,32.67 -8.15,16.51 -22.56,39.69 -45.36,57.66 -0.45,-4.61 -1.36,-15 -1.36,-25.21zm-86.22 -123.04l0 0c5.98,-3.73 12.81,-4.71 20.3,-2.92 15.61,3.73 29.04,16.09 38.85,35.75 10.4,20.87 16.21,49.23 16.81,82.04 0,0.01 0.01,0.43 0.01,1.16 0,3.52 -0.32,14.46 -3.73,25.38 -2.2,-6.23 -7.9,-20.76 -18.53,-38.17 -12.96,-21.18 -36.08,-51.04 -72.73,-73.45 0.99,-3.83 6.31,-21.87 19.02,-29.78zm-12.8 143.54l0 0c-29.44,-12.54 -49.09,-37.2 -49.09,-61.46 0,-0.21 0,-0.44 0,-0.65 0.29,-19.8 13.2,-35.77 36.37,-45.02 2.72,1.38 18.74,9.98 38.46,28.52 24.51,23.04 43.19,50.43 55.55,81.46 -1.99,1.37 -8.46,5.3 -19.47,7.21 -12.36,2.18 -33.13,2.21 -61.82,-10.06z"/>
  <path class="fil1" d="M6646.88 289.91c0,-5.23 -1.73,-9.46 -5.24,-12.72 -3.49,-3.73 -7.76,-5.21 -12.72,-5.21 -5.24,0 -9.48,1.74 -12.71,5.21 -2.32,2.18 -3.88,4.77 -4.66,7.82 -0.39,1.53 -0.6,3.17 -0.6,4.91 0,5 1.77,9.23 5.26,12.71 3.23,3.5 7.48,5.24 12.71,5.24 4.97,0 9.23,-1.49 12.72,-5.24 3.51,-3.48 5.24,-7.72 5.24,-12.71zm1.42 169.18l0 0c-2.23,-4.25 -2.55,-17.79 -2.55,-34.85l0 -74.27c0,-15.53 1.49,-29.51 -13.25,-29.51 -4.76,0 -14,3.4 -24.92,9.16 5.7,3.8 7.87,11.34 7.87,27.71l0 67.18c0,19.36 -0.07,30.05 -2.53,34.58l35.38 0zm-83.25 2.81l0 0c-13.98,0 -23.92,-4.33 -30.27,-12.72 -4.33,-5.84 -6.63,-16.52 -6.63,-31.8l0 -75.55 -21.1 0 0 -16.54 21.1 -2.55 2.3 -32.82 27.99 -2.04 0 35.11 34.6 0 0 18.84 -34.6 0 0 33.14 0 9.61 0 4.17 0 29.65c0,14.49 6.11,21.62 17.81,21.62 7.38,0 14.74,-1.79 22.64,-5.86l2.54 17.82c-12.69,6.63 -24.94,9.91 -36.38,9.91zm-441.17 -31.28l0 0c-7.64,6.1 -16.77,10.15 -26.69,10.15 -13.76,0 -22.4,-5.84 -22.4,-20.33 0,-21.36 20.1,-35.62 49.08,-27.99l0 38.17zm33.08 28.47l0 0c-2.04,-7.62 -2.54,-20.6 -2.54,-31.27l0 -58.26c0,-37.91 -17.06,-50.13 -53.69,-50.13 -14.49,0 -26.2,3.06 -39.42,8.92l-3.56 19.08c12.46,-6.62 27.22,-9.43 41.47,-9.43 25.95,0 24.66,20.36 24.66,39.95 -35.61,-10.92 -80.91,2.82 -79.88,46.3 0.52,24.69 18.57,37.66 41.22,38.17 15.51,0.24 28.49,-5.87 39.17,-16.79l2.31 13.47 30.26 0zm304.23 0l0 0c1.1,-2.73 1.14,-9.17 1.24,-16.49 0.07,-5.66 0.07,-12.42 0.07,-20.38l0 -53.44c0,-18.31 -5.59,-26.7 -19.06,-26.7 -10.42,0 -22.65,7.37 -32.3,16.01l0 67.15c0,7.71 0.12,14.81 0.41,20.69 0.28,5.79 0.73,10.38 1.37,13.15l-33.34 0c1.27,-5.59 1.54,-16.77 1.54,-32.8l0 -69.46c0,-17.04 -2.75,-23.91 -7.9,-27.22 11.86,-5.95 19.12,-8.91 24.55,-8.91 9.84,0 12.09,8.67 12.33,19.59 11.72,-11.95 28.24,-21.12 43.78,-21.12 15.25,0 26.45,5.35 33.32,16.28 1.52,2.54 2.74,5.82 3.62,9.79 1.35,5.93 1.99,13.48 1.99,22.78l0 56.73c0,22.45 0.96,31.84 2.02,34.33l-33.63 0zm-213.6 -115.75l0 0c-2.27,-0.25 -4.57,-0.25 -7.61,-0.25 -9.68,0 -19.34,5.09 -28.76,15.77l0 68.44c0,20.09 0.8,29.49 1.78,31.78l-33.32 0c0.47,-2.08 0.81,-4.67 1.04,-7.68 0.47,-6.49 0.47,-14.82 0.47,-23.86l0 -70.73c0,-15.52 -2.53,-24.08 -7.91,-27.22 9.54,-5.01 18.63,-8.91 24.5,-8.91 10.16,0 12.16,9.41 12.16,19.85 9.41,-14.25 21.14,-21.38 34.61,-21.38 2.55,0 5.09,0.25 7.39,0.77l-4.35 23.4zm109.73 115.75l0 0c-2.27,-4.95 -2.56,-20.6 -2.56,-31.27l0 -58.26c0,-37.91 -16.9,-50.13 -53.54,-50.13 -14.49,0 -26.34,2.9 -39.57,8.77l-3.58 19.23c4.72,-2.5 9.73,-4.44 14.93,-5.92 8.6,-2.42 17.66,-3.52 26.56,-3.52 25.95,0 24.67,20.36 24.67,39.95 -35.63,-10.92 -80.89,2.82 -79.88,46.3 0.51,24.69 18.57,37.66 41.2,38.17 15.53,0.24 28.64,-5.87 39.35,-16.79 0,0 0.66,8.64 2.14,13.47 6.79,0 30.28,0 30.28,0zm-33.09 -28.47l0 0c-7.63,6.1 -16.78,10.15 -26.71,10.15 -13.75,0 -22.4,-5.84 -22.4,-20.33 0,-21.36 20.11,-35.62 49.1,-27.99l0 38.17zm-307.37 -137.64l0 0c-15.26,-6.11 -31.29,-9.18 -47.58,-9.18 -20.86,0 -37.2,7.4 -50.94,21.64 -13.73,14.5 -20.6,33.06 -20.6,55.47 0,24.41 6.11,44 18.58,58.24 12.2,14.25 28.28,21.62 50.16,21.62 11.43,0 20.87,-1.51 28.75,-4.57l0 -48.08c0,-3.29 -0.06,-6.34 -0.16,-9.16l-15.94 0 -9.75 0c-0.34,-8.52 -1.46,-17.44 -2.79,-22.66l62.49 2.15c-2.29,7.4 -2.55,16.44 -2.55,31.96l0 24.68c0,17.29 1.02,29 2.55,34.85 -21.64,8.91 -43.26,13.48 -65.13,13.48 -32.3,0 -57.25,-8.91 -75.31,-26.72 -17.8,-17.81 -28.16,-41.67 -28.16,-72.19 0,-30.8 11.12,-56.03 30.97,-75.62 19.57,-19.33 45.54,-29 77.84,-29 27.7,0 37.68,3.52 52.44,8.63l-4.86 24.46z"/>
  <g id="_2076944357376">
   <polygon class="fil5" points="7054.16,562.81 7383.03,562.81 7383.03,233.95 7054.16,233.95 "/>
   <path class="fil6" d="M7372.87 400.29c0,68.63 3.17,138.92 3.17,138.92 -0.12,7.88 -5.17,12.92 -11.53,12.92l-284.66 0c-6.37,0 -10.77,-5.68 -11.52,-12.92 0,0 -8.22,-60.01 -8.22,-151.72 0,-91.67 8.22,-134.84 8.22,-134.84 0.99,-7.54 5.16,-12.93 11.52,-12.93l284.66 0c6.37,0 11.68,5.91 11.53,12.93 0,0 -3.17,78.99 -3.17,147.63z"/>
   <path class="fil7" d="M7309.54 322.76c-20.34,11.9 -26.55,12.86 -48.61,26.12l1.08 -2.46c11.57,-12.63 16.62,-17.95 24.23,-29.11 -20.39,1.11 -49.94,3.54 -71.1,8.2l1.12 -2.26c19.18,-9.33 54.79,-18.61 72.95,-21.01 -4.43,-6.23 -40.51,-25.75 -49.49,-29.51l1.05 -2.28c27.36,3.09 63.58,15.88 79.38,25.57 6.67,-2.1 13.49,-2.31 25.87,-3.39 0,0 -1.84,7.47 -15.32,16.72 3.34,8.96 -4.7,58.56 -11.3,71.71 -0.3,-20.75 -2.15,-46.92 -9.83,-58.29zm-94.41 2.74l0 0zm24.58 -52.78l0 0zm90.97 36.62l0 0zm-11.3 71.71l0 0z"/>
   <path class="fil7" d="M7160.94 500.55l1.04 -2.3c-10.8,-4.19 -21.6,-7.5 -30.34,-15.73 2.75,-7.65 5.9,-13.64 11.03,-21.22l1.08 -2.32c-9.27,1.39 -17.69,4.79 -25.72,6.36 -6.34,-11.12 -8.79,-26.35 -11.97,-40.83l-1.06 2.31c-1.79,16.52 -2.51,28.34 -0.15,41.55 -6.69,1.86 -12.54,2.12 -17.93,4.41l-1.03 2.27c8.58,5.3 15.55,9.34 25.26,13.87 5.19,11.14 10.55,18.66 19.24,27.25l1.06 -2.3c-1.56,-6.34 -3.59,-11.57 -2.82,-18.49 10.77,3.14 20.03,4.8 32.31,5.18zm-29.3 -18.03l0 0zm11.03 -21.22l0 0zm-24.64 4.04l0 0zm-13.03 -38.52l0 0zm-0.15 41.55l0 0zm-18.96 6.68l0 0zm25.26 13.87l0 0zm19.24 27.25l0 0zm-1.76 -20.79l0 0z"/>
   <path class="fil7" d="M7190.93 335.38c0,0 -4.34,7.71 -7.81,17.93l-0.84 0c25.33,3.42 49.25,13.67 55.25,17.21l-1.07 2.27c-26.29,-4.62 -40.13,-4.11 -49.92,-3.23 -9.76,0.94 -11.75,2.16 -11.75,2.16 -5.64,12.32 -8.95,32.46 -10.28,39.88l-1.06 2.31c-4.82,-11.55 -11.73,-34.63 -11.73,-34.63 -13.24,7.11 -43.79,35.76 -43.79,35.76 16.84,-33.55 33.85,-48.89 33.85,-48.89 -5.89,-5.9 -21.22,-8.9 -32.42,-9.37l1.03 -2.27c7.05,-2.07 21.53,-2.93 31.24,-3.38 11.49,-0.34 18.44,0.31 18.44,0.31 10.22,-8.15 25.51,-15.29 30.86,-16.05zm-8.65 17.93l0 0zm54.18 19.48l0 0zm-49.92 -3.23l0 0zm-11.75 2.16l0 0zm-11.34 42.19l0 0zm-11.73 -34.63l0 0zm-43.79 35.76l0 0zm33.85 -48.89l0 0zm-32.42 -9.37l0 0zm32.27 -5.65l0 0zm18.44 0.31l0 0z"/>
   <path class="fil7" d="M7223.16 479.69c-5.31,7.21 -9.85,12.87 -15.71,19.46 -8.65,2.4 -19.03,1.31 -27.03,1.6l-1.05 2.3c6.02,3.09 11.91,4.99 18.22,6.29 -5.11,4.65 -11.93,8.19 -16.72,11.42l-1.06 2.26c10.27,-2.44 23.8,-6.8 33.87,-12.74 5.24,0.23 10.14,-0.11 13.73,-0.83 0,0 1.08,-2.34 1.08,-2.29 -0.66,-2.32 -2.72,-3.74 -3.33,-6.99 9.44,-7.33 16.29,-14.01 24.19,-21.95l1.1 -2.31c-7.81,5.39 -17.27,12.78 -26.41,17.11 -0.37,-4.48 -0.66,-8.3 -0.89,-13.33zm-15.71 19.46l0 0zm-28.07 3.9l0 0zm18.22 6.29l0 0zm-17.78 13.68l0 0zm33.87 -12.74l0 0zm13.73 -0.83l0 0zm-2.25 -9.27l0 0zm24.19 -21.95l0 0zm-25.31 14.8l0 0z"/>
   <path class="fil8" d="M7310.59 320.45c-20.3,11.93 -26.52,12.94 -48.58,26.15 12.85,-13.94 17.32,-19.88 25.27,-31.55 -20.34,1.08 -49.91,3.53 -71.02,8.21l0 0c18.38,-9.81 54.81,-20.73 74.04,-23.33 -4.46,-6.16 -40.55,-25.71 -49.53,-29.47l0 0c28.57,2.23 63.51,12.9 80.44,23.26 6.67,-2.08 13.59,-2.18 25.99,-3.29l0 0c-3.15,5.43 -3.29,8.57 -15.45,16.63l0 0c3.37,9.02 -4.69,58.58 -11.33,71.7l0 0c-0.24,-20.73 -2.05,-46.92 -9.8,-58.3z"/>
   <path class="fil8" d="M7161.98 498.25c-11.66,-4.33 -20.07,-9.36 -29.31,-18.01l0 0c2.77,-7.64 5.93,-13.6 11.08,-21.26l0 0c-9.48,1.41 -16.47,2.48 -24.65,4.03l0 0c-6.65,-11.63 -9.66,-22.87 -13.04,-38.5l0 0c-1.82,16.57 -2.51,28.4 -0.17,41.59l0 0c-7.5,2.08 -12.81,3.9 -18.97,6.68l0 0c8.64,5.3 15.62,9.36 25.28,13.87l0 0c5.19,11.12 10.54,18.64 19.25,27.22l0 0c-2.04,-7.31 -2.58,-13.11 -1.74,-20.78l0 0c10.78,3.14 20.02,4.8 32.27,5.17z"/>
   <path class="fil8" d="M7192.35 333.41l0 0c-3.64,4.72 -7.85,13.51 -8.99,17.6l0 0c30.05,4.07 54.17,19.51 54.17,19.51l0 0c-26.29,-4.66 -40.14,-4.08 -49.94,-3.2l0 0c-9.74,0.92 -11.74,2.06 -11.74,2.06l0 0c-7.1,15.54 -11.34,42.22 -11.34,42.22l0 0c-4.79,-11.53 -11.69,-34.62 -11.69,-34.62l0 0c-13.26,7.1 -43.77,35.78 -43.77,35.78l0 0c16.76,-33.59 33.79,-48.86 33.79,-48.86l0 0c-5.86,-5.94 -21.22,-8.9 -32.45,-9.39l0 0c5.84,-2.38 20.8,-5.16 32.29,-5.69l0 0c11.5,-0.33 18.46,0.32 18.46,0.32l0 0c10.26,-8.1 25.85,-14.92 31.21,-15.72z"/>
   <path class="fil8" d="M7224.23 477.42c-5.31,7.21 -9.87,12.85 -15.75,19.43l0 0c-10.11,2.84 -18.19,3.9 -28.05,3.9l0 0c6.06,3.13 11.92,5 18.23,6.32l0 0c-6.31,5.72 -11.65,9.78 -17.78,13.69l0 0c10.28,-2.44 23.79,-6.81 33.85,-12.75l0 0c5.26,0.21 10.17,-0.13 13.77,-0.85l0 0c-0.94,-3.04 -1.51,-5.32 -2.28,-9.27l0 0c9.47,-7.35 16.35,-13.98 24.24,-21.97l0 0c-8.4,5.86 -15.63,10.23 -25.34,14.82l0 0c-0.42,-4.48 -0.66,-8.27 -0.89,-13.31z"/>
   <path class="fil1" d="M7582.42 338.93l0 18.71c-17.05,-1.83 -22.38,-2.2 -42,-2.57 -0.54,15.58 -0.73,35.94 -0.73,44.94 0,11.17 0,49.5 2.01,67.28l-35.93 0c1.83,-17.78 2.2,-56.11 2.2,-67.28 0,-9 -0.55,-29.35 -0.93,-44.94 -19.43,0.37 -24.75,0.74 -41.8,2.57l0 -18.71 117.18 0z"/>
   <path class="fil1" d="M7705.85 338.93l0 18.71c-17.79,-2.02 -35.58,-1.65 -53.54,-1.65 -4.78,0 -8.63,0.18 -15.41,0.37 -0.36,12.09 -0.55,26.59 -0.55,36.67l46.94 -1.1 0 19.44 -47.12 -1.1c0.18,11.18 0.37,27.33 0.92,40.52 24.2,-0.36 48.22,-0.55 72.25,-2.02l0 18.52 -106.74 0c1.66,-17.78 1.85,-55.92 1.85,-67.1 0,-12.47 -0.74,-46.39 -1.65,-61.26l103.05 0z"/>
   <path class="fil1" d="M7779.58 353.24c-4.22,0 -8.98,0.37 -11.36,0.73 -0.74,17.05 -1.1,26.23 -1.1,46.04 0,23.28 0,33 0.91,51.89 4.23,0.18 11,0.18 14.86,0.18 24.76,0 37.04,-7.16 37.04,-21.47 0,-16.86 -20.36,-22.91 -35.76,-22.91l-7.15 0 7.15 -18.16 4.4 0c10.45,0 25.32,-4.76 25.32,-17.6 0,-13.57 -9.18,-18.7 -34.3,-18.7zm19.81 -14.31c22.93,0 47.12,8.44 47.12,29.71 0,12.83 -10.81,24.21 -27.14,28.41 22.19,6.79 33.74,18.71 33.74,35.03 0,26.05 -30.8,35.2 -60.15,35.2l-59.61 0c1.65,-16.86 2.03,-41.07 2.03,-67.28 0,-17.61 -0.18,-44.2 -1.83,-61.08l65.82 0z"/>
  </g>
  <g id="_2076944363424">
   <path class="fil2" d="M8317.05 343.87l-49.25 -49.25 1.92 -3.95c5.14,-10.58 12.11,-20.43 19.58,-29.48l4.32 -5.24 90.88 90.88c5.03,5.04 7.82,11.83 7.82,18.95 0,7.12 -2.79,13.91 -7.82,18.95l-90.88 90.88 -4.32 -5.24c-7.47,-9.07 -14.44,-18.9 -19.58,-29.48l-1.92 -3.95 49.25 -49.25 -64.08 0 -0.87 -5.13c-0.95,-5.55 -1.41,-11.15 -1.41,-16.78 0,-5.63 0.46,-11.23 1.41,-16.78l0.87 -5.13 64.08 0zm117.05 -73.23l49.25 -49.25 3.95 1.92c10.58,5.14 20.42,12.11 29.48,19.58l5.24 4.32 -90.88 90.88c-5.04,5.03 -11.83,7.82 -18.95,7.82 -7.12,0 -13.91,-2.79 -18.95,-7.82l-90.88 -90.88 5.24 -4.32c9.06,-7.47 18.9,-14.44 29.48,-19.58l3.94 -1.92 49.26 49.25 0 -64.08 5.13 -0.87c5.55,-0.95 11.15,-1.41 16.78,-1.41 5.63,0 11.23,0.46 16.78,1.41l5.13 0.87 0 64.08zm73.22 117.05l49.26 49.25 -1.92 3.95c-5.14,10.58 -12.11,20.42 -19.58,29.48l-4.32 5.24 -90.88 -90.88c-5.04,-5.04 -7.83,-11.83 -7.83,-18.95 0,-7.12 2.79,-13.91 7.83,-18.95l90.88 -90.88 4.32 5.24c7.47,9.06 14.44,18.9 19.58,29.48l1.92 3.95 -49.26 49.25 64.09 0 0.87 5.13c0.94,5.55 1.41,11.15 1.41,16.78 0,5.63 -0.47,11.23 -1.41,16.78l-0.87 5.13 -64.09 0zm-117.04 73.22l-49.26 49.26 -3.94 -1.92c-10.58,-5.14 -20.43,-12.11 -29.48,-19.58l-5.24 -4.32 90.88 -90.88c5.04,-5.04 11.83,-7.83 18.95,-7.83 7.12,0 13.91,2.79 18.95,7.83l90.88 90.88 -5.24 4.32c-9.07,7.47 -18.9,14.44 -29.48,19.58l-3.95 1.92 -49.25 -49.26 0 64.09 -5.13 0.87c-5.55,0.94 -11.15,1.41 -16.78,1.41 -5.63,0 -11.23,-0.47 -16.78,-1.41l-5.13 -0.87 0 -64.09z"/>
   <path class="fil2" d="M8256.86 365.78c-0.01,-5.12 0.4,-10.35 1.32,-15.74l73.75 0 -56.67 -56.68c4.57,-9.41 11.02,-18.83 18.79,-28.25l86.08 86.08c4.01,4.02 6.02,9.3 6.02,14.59 0,5.29 -2.01,10.57 -6.02,14.59l-86.08 86.07c-7.77,-9.41 -14.22,-18.83 -18.79,-28.24l56.67 -56.68 -73.75 0c-0.92,-5.39 -1.33,-10.62 -1.32,-15.74l0 0z"/>
   <path class="fil2" d="M8412.19 210.46c5.12,-0.01 10.35,0.4 15.74,1.32l0 73.75 56.68 -56.67c9.41,4.57 18.83,11.02 28.24,18.79l-86.07 86.08c-4.02,4.01 -9.3,6.02 -14.59,6.02 -5.29,0 -10.57,-2.01 -14.59,-6.02l-86.08 -86.08c9.42,-7.77 18.84,-14.22 28.25,-18.79l56.68 56.67 0 -73.75c5.39,-0.92 10.62,-1.33 15.74,-1.32l0 0z"/>
   <path class="fil2" d="M8567.51 365.78c0.01,5.12 -0.4,10.35 -1.32,15.74l-73.76 0 56.68 56.68c-4.57,9.41 -11.02,18.83 -18.79,28.24l-86.08 -86.07c-4.01,-4.02 -6.02,-9.3 -6.02,-14.59 0,-5.29 2.01,-10.57 6.02,-14.59l86.08 -86.08c7.77,9.42 14.22,18.84 18.79,28.25l-56.68 56.68 73.76 0c0.92,5.39 1.33,10.62 1.32,15.74l0 0z"/>
   <path class="fil2" d="M8412.19 521.11c-5.12,0.01 -10.35,-0.4 -15.74,-1.32l0 -73.76 -56.68 56.68c-9.41,-4.57 -18.83,-11.02 -28.25,-18.79l86.08 -86.08c4.02,-4.01 9.3,-6.02 14.59,-6.02 5.29,0 10.57,2.01 14.59,6.02l86.07 86.08c-9.41,7.77 -18.83,14.22 -28.24,18.79l-56.68 -56.68 0 73.76c-5.39,0.92 -10.62,1.33 -15.74,1.32l0 0z"/>
   <path class="fil2" d="M9090.73 218.13l-91.55 0 0 81.16 0 85.18 96.79 0c56.05,0 71.68,-68.62 26.66,-83.33 -3.63,-1.18 -8.08,-1.26 -2.36,-3.61 4.43,-1.82 7.73,-4.99 11.22,-9.13 24.29,-28.78 -0.76,-70.27 -40.76,-70.27zm-47.57 239.13l27.23 0c5.56,0 10.11,4.59 10.11,10.19l0 0.94c0,6.13 -4.98,11.13 -11.04,11.13l-21.63 0c0,7.14 3.44,11.85 8.88,11.85l13.86 0c5.93,0 13.72,4.28 13.72,10.19l0 0.94c0,6.12 -4.97,11.13 -11.04,11.13l-30.08 0 0 -17.71 0 -4.56 0 -11.85 0 -22.27zm215.17 -11.35l15 0 0 36.57 33.48 -36.57 18.48 0 -27.17 29.67 30.37 49.9c-5.14,3.33 -16.48,1.34 -18.04,-1.25l-22.76 -37.28 -14.37 15.7 0 22.83 -15 0 0 -79.58zm-288.15 60.11l-8.86 10.49c0,0 10.21,11.68 30.44,11.68 20.22,0 31.78,-11.85 31.74,-24.79 -0.1,-29.88 -43.04,-19.51 -42.84,-37.08 0.12,-10.86 14.51,-10.1 14.51,-10.1 0,0 10.71,-1.53 22.18,8.7 11.84,-16.93 -15.55,-21.64 -22.88,-21.2 -20.23,0 -29.9,9.67 -29.9,22.61 0,12.94 7.13,19.83 25.66,24.8 0,0 17.4,2.82 17.4,13.69 0,10.87 -15.98,10.33 -15.98,10.33 0,0 -10,1.08 -21.48,-9.14zm165.66 -41.69l-10.48 27.12 20.56 0 -10.07 -27.12zm8.24 -18.42l11.52 29.09 19.25 50.77 -10.15 0c-3.65,0 -6.88,-3.07 -7.46,-4.77l-6.44 -16.97 -14.46 0 -15.76 0 -8.25 21.74 -14.5 0 19.26 -50.77 11.52 -29.09 15.46 0zm-300.25 18.42l-10.49 27.12 20.57 0 -10.07 -27.12zm8.23 -18.42l11.52 29.09 19.26 50.77 -10.16 0c-3.65,0 -6.87,-3.07 -7.46,-4.77l-6.44 -16.97 -14.45 0 -15.76 0 -8.25 21.74 -14.5 0 19.25 -50.77 11.52 -29.09 15.46 0zm-131.08 -0.01l0 79.59 -2.26 0c-6.76,0 -12.08,-5.86 -12.08,-9.73l0 -59.64 0 -10.21 14.34 0zm-87.41 -24.12l87.41 0 0 4.14c0,6.27 -3.95,11.3 -11.95,11.3l-57.41 0 0 28.69 43 0 0 15.43 -43 0 0 44.14 -18.05 0 0 -103.7zm546.48 24.13l7.83 0c3.87,0 10.62,0.95 13.48,4.93l32.84 50.78 0 -55.71 13.58 0 0 79.58 -8.49 0c-3.87,0 -5.65,-2.09 -7.31,-3.84l-37.28 -55.35 0 59.19 -14.66 0 0 -79.58zm-292.68 0l7.83 0c3.87,0 10.62,0.95 13.48,4.93l32.83 50.78 0 -55.71 13.58 0 0 79.58 -8.48 0c-3.87,0 -5.66,-2.09 -7.32,-3.84l-37.27 -55.35 0 59.19 -14.66 0 0 -79.58zm-155.26 0l7.82 0c3.88,0 10.63,0.95 13.48,4.93l32.84 50.78 0 -55.71 13.58 0 0 79.58 -8.48 0c-3.87,0 -5.66,-2.09 -7.32,-3.84l-37.28 -55.35 0 59.19 -14.65 0 0 -79.58zm338.48 0l-40.85 0 0 38.82 0 40.76 43.34 0c26.61,0 34.03,-32.83 12.65,-39.87 -1.72,-0.57 -3.83,-0.6 -1.12,-1.73 2.11,-0.87 3.67,-2.39 5.33,-4.37 11.53,-13.76 -0.35,-33.61 -19.35,-33.61zm-357.51 -231.8c52.12,0 86.11,39.19 86.11,87.52 0,23.63 -8.29,45.07 -22.76,60.82l21.88 22.14c0,0 -8.05,7.39 -18.48,7.39 -10.43,0 -17.29,-7.07 -17.29,-7.07l-6.37 -6.49c-12.32,6.85 -26.88,10.73 -43.1,10.73 -51.47,0 -86.11,-39.18 -86.11,-87.52 0,-48.33 33.99,-87.52 86.11,-87.52zm-6.1 114.16l31.03 31.63c-7.35,3.76 -15.74,5.84 -24.94,5.84 -33.46,0 -56.32,-27.38 -56.32,-64.11 0,-37.05 22.55,-64.1 56.32,-64.1 33.77,0 56.32,27.05 56.32,64.1 0,16.11 -4.4,30.41 -12.14,41.4l-13.52 -13.67c0,0 -15.65,-17.07 -36.75,-1.09zm115.37 -110.13l17.17 0c8.51,0 16.04,5.18 19.69,8.83l85.03 110.88 0 -119.71 26.84 0 0 166.34 -16.83 0c-8.51,0 -11.09,-4.36 -14.74,-8.01l-89.98 -115.72 0 123.72 -27.18 0 0 -166.34zm205.1 23.75l62.85 0c11.72,0 21.31,9.58 21.31,21.31l0 1.96c0,12.79 -10.46,23.27 -23.27,23.27l-51.04 0c0,14.93 7.24,24.79 18.7,24.79l34.68 0c12.48,0 28.92,8.94 28.92,21.31l0 1.96c0,12.79 -10.47,23.27 -23.27,23.27l-68.88 0 0 -37.02 0 -9.51 0 -24.79 0 -46.53z"/>
  </g>
  <g id="_2076944365440">
   <path class="fil9" d="M9558.83 366.2c8.51,-47.22 34.37,-88.37 70.78,-116.62 28.2,-36.44 69.33,-62.36 116.49,-70.87 -8.89,-1.59 -18,-2.62 -27.3,-2.96l-13.47 0c-41.27,1.45 -79.17,16.09 -109.73,39.8 -24.97,32.24 -39.88,72.66 -39.87,116.62 0,11.6 1.12,22.98 3.1,34.03z"/>
   <path class="fil1" d="M9746.13 553.63c-47.15,-8.52 -88.29,-34.41 -116.5,-70.82 -36.42,-28.23 -62.28,-69.39 -70.8,-116.61 -1.99,11.03 -3.1,22.41 -3.1,34.01 0.01,43.96 14.92,84.39 39.9,116.61 32.22,25 72.61,39.91 116.51,39.91 11.61,0 22.98,-1.1 33.99,-3.1z"/>
   <path class="fil10" d="M9629.62 249.58c-36.41,28.22 -62.27,69.39 -70.78,116.62 8.53,47.2 34.38,88.36 70.8,116.61 -24.98,-32.22 -39.89,-72.66 -39.89,-116.62 0,-43.94 14.89,-84.4 39.87,-116.61z"/>
   <path class="fil1" d="M9746.1 178.71c47.21,8.51 88.3,34.39 116.54,70.85 36.4,28.23 62.26,69.4 70.79,116.61 1.99,-11.05 3.07,-22.43 3.07,-34.03 -0.01,-43.94 -14.9,-84.37 -39.88,-116.62 -30.49,-23.66 -68.33,-38.28 -109.54,-39.77l-13.81 0c-9.23,0.34 -18.29,1.37 -27.17,2.96z"/>
   <path class="fil10" d="M9629.62 249.58c32.2,-25.01 72.61,-39.92 116.49,-39.92 43.93,-0.01 84.3,14.89 116.54,39.9 -28.23,-36.44 -69.32,-62.34 -116.54,-70.85 -47.15,8.52 -88.28,34.43 -116.49,70.87z"/>
   <path class="fil9" d="M9933.4 366.17c-8.5,47.21 -34.35,88.36 -70.74,116.62 -28.23,36.42 -69.34,62.32 -116.53,70.84 11.05,2 22.39,3.1 34,3.09 43.89,0 84.31,-14.92 116.52,-39.92 24.97,-32.22 39.85,-72.66 39.85,-116.62 0,-11.59 -1.07,-22.97 -3.1,-34.01z"/>
   <path class="fil10" d="M9629.63 482.81c28.21,36.41 69.35,62.31 116.51,70.82 47.21,-8.53 88.3,-34.42 116.53,-70.84 -32.22,24.98 -72.61,39.89 -116.53,39.89 -43.88,0 -84.29,-14.9 -116.51,-39.87z"/>
   <path class="fil10" d="M9862.66 482.79c36.39,-28.23 62.25,-69.4 70.74,-116.62 -8.51,-47.22 -34.36,-88.37 -70.76,-116.61 24.95,32.2 39.87,72.67 39.87,116.61 0.01,43.93 -14.9,84.39 -39.85,116.62z"/>
   <path class="fil1" d="M9658.21 340.66l0 11.14 39.64 0 -0.01 -11.15c0,-8.9 -5.58,-13.99 -19.81,-13.99 -14.5,0 -19.82,5.1 -19.82,14zm70.61 -1.79l0.01 29.45c0,4.06 -1.53,5.86 -5.58,5.86l-65.04 0.01 0 18.79c0,8.89 4.84,13.96 19.83,13.96 14.98,0 19.81,-5.09 19.81,-13.96l0 -1.27c0,-4.34 1.77,-6.37 6.35,-6.37l17.79 0c4.33,0 6.36,2.03 6.36,6.36l0 2.8c0,22.86 -13.19,37.61 -50.56,37.61 -37.32,0 -52.07,-14.74 -52.07,-37.6l-0.01 -55.63c0,-22.63 14.99,-37.35 52.33,-37.35 37.11,0 50.79,14.7 50.79,37.34zm29.38 -35.34l19.57 0c4.57,0 5.84,1.78 6.07,6.11l0.52 6.1c7.14,-5.86 20.08,-14.21 40.66,-14.21 23.38,0 36.84,14.2 36.84,34.03l0.01 87.91c0,4.56 -1.78,6.57 -6.37,6.57l-20.57 0.01c-4.58,0 -6.61,-2.01 -6.61,-6.58l-0.01 -79.53c0,-9.16 -2.79,-13.48 -13.7,-13.48 -12.69,0 -24.15,7.38 -29.47,11.45l0.01 81.56c0,4.57 -1.53,6.58 -5.85,6.58l-21.09 0c-4.59,0 -6.34,-2.01 -6.34,-6.57l-0.01 -113.84c0,-4.32 1.74,-6.11 6.34,-6.11z"/>
   <path class="fil1" d="M10033.29 327.92c0,-7.85 -3.8,-14.59 -16.57,-14.59 -14.55,0.01 -25.54,7.87 -30.45,11.67l0 53.09c4.92,3.58 15.9,11.42 30.46,11.42 12.76,0 16.57,-6.72 16.57,-14.56l-0.01 -47.03zm-52.18 -32.03c3.13,0 4.02,1.34 4.26,4.48l0.42 6.94c6.3,-4.94 18.4,-13.22 37.21,-13.22 21.74,0 31.58,12.09 31.58,30.46l0.01 53.78c0,18.36 -9.84,30.46 -31.58,30.46 -18.16,0 -30.25,-7.62 -36.74,-12.54l0.01 52.21c0,2.92 -1.14,4.25 -4.04,4.26l-12.99 0c-3.14,0 -4.26,-1.34 -4.26,-4.26l-0.01 -148.08c-0.01,-3.15 1.12,-4.49 4.25,-4.49l11.88 0z"/>
   <path class="fil1" d="M10133.43 379.66l0 -19.3 -30.9 0.01c-11.21,0 -14.8,4.95 -14.8,13.68l0 4.49c0,8.73 4.94,12.54 16.16,12.54 13.65,0 24.39,-7.41 29.54,-11.42zm-63.86 -55.36c0,-17.9 11.66,-30.22 42.35,-30.23 31.59,0 42.37,12.32 42.37,30.23l0 78.2c0,3.14 -1.14,4.49 -4.05,4.49l-11.64 0c-3.13,0 -4.04,-1.35 -4.26,-4.49l-0.45 -6.5c-6.52,5.16 -18.38,12.77 -35.4,12.77 -20.83,0 -31.59,-12.53 -31.6,-27.12l0 -10.73c0,-14.56 10.32,-27.13 31.15,-27.13l35.39 0 0 -17.26c0,-9.18 -4.71,-15.21 -21.73,-15.21 -17.03,0 -22.18,5.38 -22.18,14.55l0 1.81c0,3.11 -1.12,4.48 -4.26,4.48l-11.66 0c-2.91,0 -4.03,-1.37 -4.03,-4.48l0 -3.39z"/>
   <path class="fil1" d="M10231.77 298.33l0 10.29c0,3.15 -1.57,4.26 -4.48,4.49 -16.81,1.14 -29.56,9.85 -34.71,14.34l0 75.04c0,3.15 -1.13,4.5 -4.04,4.5l-12.99 0c-3.13,0 -4.26,-1.35 -4.26,-4.49l-0.01 -102.38c0,-2.9 1.13,-4.25 4.27,-4.25l11.86 0c3.13,0 4.03,1.34 4.26,4.25l0.68 9.64c6.04,-6.06 18.58,-15.7 34.94,-15.7 2.91,0 4.48,1.36 4.48,4.27z"/>
   <path class="fil1" d="M10300.55 379.64l-0.01 -19.29 -30.9 0c-11.19,0 -14.79,4.95 -14.79,13.69l0 4.49c0,8.72 4.94,12.53 16.13,12.53 13.67,0 24.42,-7.4 29.57,-11.42zm-63.85 -55.35c0,-17.9 11.63,-30.23 42.34,-30.23 31.58,0 42.34,12.32 42.34,30.22l0 78.2c0.01,3.14 -1.11,4.5 -4.03,4.5l-11.66 0c-3.12,0 -4.01,-1.36 -4.25,-4.49l-0.44 -6.51c-6.5,5.17 -18.38,12.78 -35.39,12.78 -20.85,0 -31.59,-12.54 -31.59,-27.12l0 -10.74c0,-14.55 10.31,-27.12 31.12,-27.12l35.4 0 0 -17.26c0,-9.19 -4.71,-15.22 -21.72,-15.21 -17.03,0 -22.19,5.37 -22.2,14.54l0 1.82c0,3.11 -1.11,4.47 -4.26,4.47l-11.65 0c-2.9,0 -4.01,-1.36 -4.01,-4.47l0 -3.39z"/>
   <path class="fil10" d="M10352.29 404.27c0,2.02 -0.9,2.7 -2.69,2.7l-6.49 0c-2.01,0.01 -2.69,-0.68 -2.69,-2.7l0 -17.23c0,-1.82 0.68,-2.7 2.68,-2.7l6.5 0c1.79,0 2.69,0.88 2.69,2.7l0 17.23z"/>
   <path class="fil10" d="M10446.17 322.5l0 4.27c0,2.02 -0.71,2.69 -2.71,2.69l-5.83 0c-2.01,0 -2.69,-0.67 -2.69,-2.69l0 -3.6c0,-10.97 -5.83,-18.59 -28,-18.59 -21.96,0 -27.79,7.62 -27.78,18.59l0 57.16c0,11.2 5.83,18.58 27.79,18.58 22.18,0 28,-7.38 28,-18.59l0 -5.39c0,-2.03 0.67,-2.69 2.69,-2.69l5.82 0c2.01,0 2.72,0.66 2.72,2.69l0 6.28c0,16.12 -9.21,27.56 -39.45,27.56 -30.02,0 -39.21,-11.43 -39.21,-27.56l-0.01 -58.7c0,-16.35 9.19,-27.76 39.43,-27.76 30.02,0 39.23,11.4 39.23,27.75z"/>
   <path class="fil10" d="M10524.32 323.15c0,-10.97 -6.94,-18.59 -28.88,-18.59 -21.96,0 -28.9,7.62 -28.9,18.6l0.01 57.15c0,11.21 6.95,18.59 28.9,18.58 21.95,0 28.88,-7.38 28.88,-18.59l-0.01 -57.15zm-69.45 -0.66c-0.01,-16.35 10.55,-27.76 40.57,-27.76 30.01,0 40.54,11.4 40.55,27.76l0 58.7c0,16.12 -10.52,27.56 -40.54,27.56 -30.01,0 -40.58,-11.43 -40.58,-27.55l0 -58.71z"/>
   <path class="fil10" d="M10560.61 296.5c1.79,0 2.7,0.92 2.7,2.7l0.21 9.19c6.07,-5.15 18.59,-13.66 37.64,-13.66 15.46,0 24.66,6.04 28.67,15.44 5.39,-4.93 18.14,-15.44 39.43,-15.44 21.07,-0.01 30.91,11.19 30.92,26.87l0.01 47.23 0 35.63c-0.07,1.67 -0.96,2.49 -2.7,2.49l-6.29 0c-1.99,0 -2.9,-0.89 -2.9,-2.7l0 -80.42c0,-10.98 -6.27,-18.59 -21.96,-18.59 -18.81,0 -30.47,9.85 -34.96,13.67 0.47,1.56 0.47,3.36 0.47,4.93l0.01 80.42c0,1.8 -0.67,2.7 -2.48,2.7l-6.5 0c-1.79,0 -2.44,-0.9 -2.44,-2.7l0 -80.42c-0.01,-10.98 -6.52,-18.6 -22,-18.6 -18.13,0.01 -29.78,9.19 -34.48,13.45l0 85.56c0,1.81 -0.89,2.71 -2.68,2.71l-6.27 0c-2.04,0 -2.71,-0.9 -2.7,-2.71l-0.01 -105.05c0,-1.78 0.66,-2.7 2.71,-2.7l5.58 0z"/>
  </g>
  <g id="_2076944375456">
   <g>
    <path class="fil10" d="M13035.23 261.51c0,-37.73 30.58,-68.3 68.3,-68.3 37.72,0 68.3,30.57 68.3,68.3 0,11.73 -2.96,22.79 -8.18,32.43 -0.97,1.8 -60.13,100.21 -60.13,100.21l-14.84 -24.69 37.14 -98.38c1.26,-2.94 1.97,-6.18 1.97,-9.57 0,-13.4 -10.86,-24.27 -24.27,-24.27 -13.39,0 -24.26,10.86 -24.26,24.27l0 92.26c-16.46,-27.39 -35.32,-58.82 -35.87,-59.83 -5.22,-9.64 -8.18,-20.7 -8.18,-32.43z"/>
    <path class="fil1" d="M13260.97 411.03c0,37.72 -30.58,68.3 -68.3,68.3 -37.72,0 -68.29,-30.58 -68.29,-68.3 0,-11.74 2.96,-22.79 8.17,-32.43 0.98,-1.8 60.13,-100.22 60.13,-100.22l14.84 24.7 -37.14 98.38c-1.26,2.93 -1.96,6.18 -1.96,9.57 0,13.39 10.86,24.26 24.26,24.26 13.4,0 24.27,-10.86 24.27,-24.26l0 -92.27c16.45,27.4 35.31,58.83 35.86,59.84 5.22,9.64 8.18,20.69 8.18,32.43z"/>
    <path class="fil2" d="M12924.74 369.36l31.64 0 -37.81 40.07 41.51 68.31 -30.06 0 -29.25 -49.44 -17.16 18.19 0 31.25 -25.06 0 0 -147.67 25.06 0 0 83.86 41.14 -44.58zm97.44 82.75l0 0c-12.93,12.61 -35.45,7.23 -36.39,-5.61 -0.92,-12.66 9.23,-16.88 19.39,-16.88l17 0 0 22.49zm-42.06 -80.51l0 0c0,0 18.28,-3.19 35.2,-1.45 17.94,1.85 34.15,9.49 34.15,41.41l0 55.24c0,5.94 2.11,10.94 2.11,10.94l-22.81 0 -4.29 -8.7c-23.56,21.25 -65.72,12.69 -65.72,-22.03 0,-35.2 40.21,-35.99 51.81,-35.99l11.6 0 0 -3.43c0,-10.41 -7.12,-17.27 -22.41,-17.54 -11.61,-0.2 -19.65,2.38 -19.65,2.38l0 -20.84zm-489.04 -40.61l0 0 0 147.68 49.18 0c57.09,0 67.37,-67.77 22.15,-80.17 0,0 18.2,-6.73 18.2,-31.51 0,-24.8 -21.89,-36 -42.86,-36l-46.67 0zm27.3 22.81l0 0 16.22 0c10.7,0 19.38,7.92 19.38,19.39 0,10.7 -8.68,19.38 -19.38,19.38l-16.22 0 0 -38.77zm0 61.19l0 0 22 0c13.53,0 22.81,9.33 22.81,20.61 0,11.28 -10.77,20.23 -24.31,20.23l-20.5 0 0 -40.84zm296.8 37.12l0 0c-12.93,12.61 -35.45,7.23 -36.39,-5.61 -0.92,-12.66 9.23,-16.88 19.38,-16.88l17.01 0 0 22.49zm-42.06 -80.51l0 0c0,0 18.28,-3.19 35.2,-1.45 17.93,1.85 34.15,9.49 34.15,41.41l0 55.24c0,5.94 2.11,10.94 2.11,10.94l-22.81 0 -4.29 -8.7c-23.56,21.25 -65.72,12.69 -65.72,-22.03 0,-35.2 40.21,-35.99 51.81,-35.99l11.6 0 0 -3.43c0,-10.41 -7.12,-17.27 -22.42,-17.54 -11.6,-0.2 -19.64,2.38 -19.64,2.38l0 -20.84zm-70.01 106.14l0 0 0 -71.98c0,-24.39 19.12,-41.41 55.37,-34.02l0 20.7c-20.04,-6.6 -28.08,3.97 -28.08,16.36l0 68.94 -27.29 0zm-41.41 -25.64l0 0c-12.93,12.61 -35.45,7.23 -36.39,-5.61 -0.92,-12.66 9.23,-16.88 19.38,-16.88l17.01 0 0 22.49zm-42.06 -80.51l0 0c0,0 18.28,-3.19 35.2,-1.45 17.93,1.85 34.15,9.49 34.15,41.41l0 55.24c0,5.94 2.11,10.94 2.11,10.94l-22.81 0 -4.29 -8.7c-23.56,21.25 -65.72,12.69 -65.72,-22.03 0,-35.2 40.21,-35.99 51.81,-35.99l11.6 0 0 -3.43c0,-10.41 -7.12,-17.27 -22.42,-17.54 -11.6,-0.2 -19.64,2.38 -19.64,2.38l0 -20.84zm-200.55 -40.87l0 0 0 111.15c0,24.4 16.74,38.11 47.46,36.39l0 -20.31c-13.18,0 -20.17,-6.72 -20.17,-19.11l0 -108.12 -27.3 0zm-40.08 121.37l0 0c-12.94,12.61 -35.46,7.23 -36.4,-5.61 -0.92,-12.66 9.23,-16.88 19.39,-16.88l17.01 0 0 22.49zm-42.07 -80.51l0 0c0,0 18.29,-3.19 35.21,-1.45 17.93,1.85 34.14,9.49 34.14,41.41l0 55.24c0,5.94 2.11,10.94 2.11,10.94l-22.81 0 -4.29 -8.7c-23.55,21.25 -65.72,12.69 -65.72,-22.03 0,-35.2 40.22,-35.99 51.82,-35.99l11.6 0 0 -3.43c0,-10.41 -7.13,-17.27 -22.42,-17.54 -11.61,-0.2 -19.65,2.38 -19.65,2.38l0 -20.84z"/>
   </g>
  </g>
  <g id="_2076944376256">
   <g>
    <polygon class="fil1" points="14683,332.36 14716.75,332.36 14716.75,305.06 14683,305.06 "/>
    <path class="fil1" d="M14091.6 476.01l-1.47 -6.48c-5.88,6.48 -12.31,9.68 -25.54,9.68 -14.08,0.28 -24.05,-12.61 -23.78,-28.13l0.31 -22.08c0.59,-35.77 49.31,-24.94 49.31,-51.63 0,-5.58 -0.31,-10.26 -6.79,-10.26 -6.15,0 -7.91,4.69 -7.91,10.26l0 10.86 -34.62 0 0 -10.86c0,-23.18 19.94,-34.04 42.53,-34.04 28.79,0 41.99,16.13 41.99,33.74l0 98.94 -34.04 0zm-1.76 -65.15l0 0c-8.24,5.25 -14.09,7.94 -14.09,18.74l0 15.89c0,7.65 2.07,10.55 7.06,10.55 5,0 7.04,-2.91 7.04,-10.55l0 -34.63z"/>
    <path class="fil1" d="M14227.06 441.15c0,20.55 -3.5,37.78 -26.38,37.78 -12.9,0 -19.66,-4.09 -24.95,-11.73l0 39.92 -33.73 0 0 -160.83 33.73 0 -0.28 13.18c6.75,-12.02 13.77,-15.84 26.98,-15.84 18.49,0 24.66,17.6 24.66,34.34l0 62.79 -0.03 0.4zm-36.06 -60.56l0 0c0,-5.88 -3.22,-9.09 -7.64,-9.09 -4.7,0 -7.91,3.52 -7.91,9.67l0 61.37c0,5.86 3.21,9.07 7.62,9.07 4.71,0 7.93,-3.21 7.93,-9.39l0 -61.63z"/>
    <polygon class="fil1" points="14243.26,476.01 14276.99,476.01 14276.99,346.57 14243.26,346.57 "/>
    <polygon class="fil1" points="14359.74,475.8 14337.68,415.93 14332.45,425.32 14332.45,475.8 14294.31,475.8 14294.31,304.97 14332.45,304.97 14332.45,358.07 14356.78,304.97 14394.65,304.97 14359.74,376.86 14397.6,475.8 "/>
    <path class="fil1" d="M14471.72 381.76c-8.46,-3.22 -31.07,-3.51 -31.07,17.32l0 76.93 -33.74 0 0 -129.44 31.41 0 -0.32 13.78c11.74,-16.73 24.36,-17.03 33.46,-17.03l0 38.44 0.26 0z"/>
    <path class="fil1" d="M14566.66 443.39c0,25.8 -17.86,35.82 -42.22,35.82 -22.3,0 -42.27,-10.86 -42.27,-36.36l0 -60.49c0,-24.66 14.99,-38.44 42.27,-38.44 22.3,0 42.25,9.1 42.25,38.76l0 34.07 -49.57 0 0 31.05c0,5.31 2.33,8.25 7.33,8.25 4.99,0 7.34,-2.94 7.34,-8.25l0 -19.04 34.91 0 0 14.91 -0.03 -0.29zm-35.47 -68.08l0 0c0,-5.28 -2.34,-8.21 -7.04,-8.21 -4.99,0 -7.36,2.93 -7.36,8.21l0 17.6 14.67 0 -0.28 -17.6z"/>
    <path class="fil1" d="M14633.14 476.01l0 -13.25c-3.19,11.44 -13.75,15.87 -26.39,15.87 -20.84,0 -24.95,-17.62 -24.95,-34.02l0 -62.85c0,-20.54 5,-38.43 25.82,-38.43 12.04,0 21.44,5.29 25.52,11.72l0 -49.86 33.77 0 0 170.82 -33.77 0zm0 -96.29l0 0c0,-5.88 -3.19,-9.13 -7.9,-8.81 -4.68,0 -7.93,3.22 -7.93,9.09l0.29 61.69c0,5.83 3.25,9.04 7.64,9.04 4.71,0 7.9,-3.49 7.9,-9.38l0 -61.62z"/>
    <polygon class="fil1" points="14683,476.19 14716.75,476.19 14716.75,346.73 14683,346.73 "/>
    <polygon class="fil1" points="14016.64,402.01 14016.64,476.01 13978.48,476.01 13978.48,402.01 13945.01,305.19 13985.52,305.19 13997.55,352.72 14009.87,305.19 14050.37,305.19 "/>
    <path class="fil10" d="M13887.92 441.73c-13.26,11.69 -30.95,15.09 -45.33,8.67 -8.62,-4.14 -14.91,-11.69 -16.82,-19.48 12.05,12.02 33.84,18.1 53.79,-2.92 0,0 18.7,-17.32 8.11,-49.94 -5.28,-16.13 -25.08,-29.56 -41.51,-31.22 -24.51,-3.95 -47.67,4.41 -63.67,26.85 -18.89,29.16 -21.28,61.68 -34.96,94.11 -2.31,5.35 -7.14,7.68 -12.04,7.44l-0.02 0 -0.01 0c-4.88,0.24 -9.72,-2.09 -12.03,-7.44 -13.69,-32.43 -16.05,-64.94 -34.94,-94.11 -16.01,-22.44 -39.17,-30.79 -63.7,-26.85 -16.41,1.66 -36.21,15.09 -41.48,31.22 -10.61,32.62 8.11,49.94 8.11,49.94 19.95,21.02 41.73,14.94 53.8,2.92 -1.92,7.79 -8.23,15.34 -16.85,19.48 -14.38,6.43 -32.05,3.03 -45.34,-8.67 -19.58,-19.43 -22.51,-44.39 -14.76,-67.35 9.39,-27.92 37.64,-41.93 60.1,-43.69 26.58,-2.34 63.28,13.96 77.92,41.77 3.41,6.43 10.56,23.02 10.56,23.02l18.62 -0.01 18.64 0.01c0,0 7.15,-16.59 10.58,-23.02 14.64,-27.8 51.32,-44.11 77.9,-41.77 22.46,1.76 50.7,15.76 60.12,43.69 7.76,22.97 4.8,47.92 -14.79,67.35zm44.1 -74.89l0 0c-21.81,-62.79 -84.35,-66.27 -90.79,-66.41 -27.95,-0.53 -58.88,9.16 -82.42,32.18 -9.43,8.48 -16.21,18.32 -23.32,28.98l-0.02 0.03 -0.01 -0.03c-7.1,-10.66 -13.86,-20.51 -23.31,-28.98 -23.53,-23.03 -54.48,-32.71 -82.41,-32.18 -6.44,0.14 -68.96,3.63 -90.79,66.41 -7.8,22.44 -6.03,51.62 5.62,72.98 11.5,24.7 39.02,44.8 68.05,42.7 21.08,-0.53 44.09,-13.97 52.56,-35.44 7.13,-19.32 4.93,-39.97 -11.48,-56.56 0.42,4.25 0.61,10.06 -3.57,15.52 -6.63,9.16 -17.09,11.39 -27.92,7.51 -9.56,-4.34 -13.16,-11.26 -12.19,-20.42 0.69,-7.81 6.93,-13.77 13.41,-16.71 12.71,-5.5 24.43,-2.72 35.87,8.23 18.77,20.95 20.97,52.75 29.85,76.84 6.31,19.83 16.29,37.07 38.2,42.04 2.65,0.58 5.37,0.87 8.11,0.87l0.01 0 0.02 0c2.76,0 5.47,-0.29 8.12,-0.87 21.91,-4.97 31.9,-22.21 38.2,-42.04 8.9,-24.09 11.1,-55.89 29.85,-76.84 11.45,-10.94 23.16,-13.72 35.85,-8.23 6.51,2.94 12.75,8.91 13.43,16.71 0.96,9.16 -2.63,16.08 -12.18,20.42 -10.82,3.89 -21.3,1.65 -27.91,-7.51 -4.17,-5.46 -3.98,-11.27 -3.59,-15.52 -16.43,16.59 -18.61,37.24 -11.48,56.56 8.49,21.47 31.48,34.91 52.57,35.44 29.02,2.1 56.57,-18 68.05,-42.7 11.65,-21.36 13.41,-50.54 5.62,-72.98zm-196.45 -66.41l0 0 0 0.05 0.02 0.02c0,0 -0.01,-0.02 -0.02,-0.07z"/>
   </g>
  </g>
  <g id="_2076944383520">
   <path class="fil10" d="M15067.78 379.03c2.73,-15.56 -11.59,-37.25 -50.59,-37.25l-96.91 0c-26.56,0 -43.21,18.24 -46.16,36.61l-19.66 103.32c17.26,-0.04 131,0 130.76,0l7.39 0c40.73,-0.22 64.19,-9.37 68.46,-38.93 2.84,-19.9 -14.63,-32.73 -28.9,-35.47 14.43,-2.63 31.98,-7.54 35.62,-28.28z"/>
   <path class="fil8" d="M14976.78 385.09c-9.88,12.51 -45.81,55.95 -53.06,64.2 -16.22,18.46 -49.67,15.7 -49.9,15.24 0,-0.02 12.06,-57.05 15.98,-73.13 10.71,-43.73 47.68,-33.38 47.68,-33.38 0,0 -9.85,1.43 -16.81,10.29 -7.05,9 -15.05,52.82 -19.56,73.3 21.18,-24.76 50.21,-56.71 55.17,-62.69 21.11,-25.56 54.17,-22.03 54.17,-22.03 0,0 -12.87,1.8 -33.67,28.19z"/>
   <path class="fil1" d="M15972 426.71l-0.49 -0.13 15.94 -84.81 -26.71 0 -26.34 139.75 26.85 0 9.58 -51.11 0.42 0 31.64 51.28 31.38 0 -37.41 -54.44 51.29 -46.1 -28.4 0 -47.76 45.57zm-43.94 -16.58c3.07,-16.26 -6.35,-30.83 -43.28,-30.83 -20.83,0 -36.19,3.34 -48.74,7.8l-17.88 94.62 27.08 0 15.8 -84.44c5.49,-2.01 10.77,-3.55 19.96,-3.55 17.63,0 22.01,8.32 20.51,16.53l-13.4 71.46 26.29 0 13.67 -71.58zm-116.66 3.86c4.89,-25.94 -15.17,-35.74 -39.55,-35.74 -15.9,0 -24.96,1.99 -34.42,5.86l-7.77 15.54c11.63,-4.82 24.11,-6.34 34.54,-6.34 14.45,0 24.19,4.12 21.72,17.18l-1.02 5.39c-39.41,2.18 -71.25,11.19 -75.39,36.28 -2.93,18.07 16.08,30.94 47.66,30.94 16.42,0 30.64,-0.75 41.54,-1.58l12.68 -67.53zm-28.6 12.74l-8.18 44.03c-4.95,0.4 -7.91,0.36 -16.78,0.19 -13.01,-0.29 -24.34,-5.65 -22.27,-18.78 2.77,-18.17 20.38,-23.41 47.22,-25.44zm-74.52 -49.49c2.84,-16.02 -12.61,-38.35 -52.83,-38.35 -20.08,0 -47.27,4.6 -50.15,19.79l-22.88 122.82c13.79,1.58 27.35,1.58 48.38,1.42 41.99,-0.22 66.15,-9.66 70.57,-40.05 2.94,-20.49 -15.08,-33.69 -29.77,-36.51 14.83,-2.72 32.93,-7.77 36.68,-29.12zm-84.7 36.12l8.17 -0.27c33.19,-1.13 42.99,12.29 39.22,30.02 -3.62,16.96 -18.28,24.1 -38.13,24.1 -8.26,0 -12.57,-0.03 -19.73,-0.36l10.47 -53.49zm56.15 -34.76c-2.73,14.42 -13.94,22.97 -43.48,22.15 -8.51,-0.2 -10.59,-0.68 -10.59,-0.68l8.32 -43.91c5.46,-2.08 10.67,-3.24 18.41,-3.24 20.04,0 30.54,8.58 27.35,25.68zm-81.38 -32.73c3.18,-3.14 8.66,-4.74 8.66,-4.74 -31.28,-7.14 -65.28,2.78 -70.66,27.76l-2.24 12.12 -17.38 0 -2.73 14.55 17.38 0 -16.17 86.01 26.65 0 16.17 -86.01 20.17 0 2.83 -14.55 -20.29 0 1.46 -7.61c2.45,-12.88 6.92,-24.98 32.29,-20.86 0,-0.01 0.84,-3.84 3.87,-6.69zm-115.94 135.7l18.92 -100.56 -25.33 0 -18.89 100.56 25.3 0zm-73.27 -54.46l51.3 -46.09 -28.41 0 -48.32 46 16.05 -85.22 -26.68 0 -26.36 139.94 26.82 0 9.68 -51.91 32 51.75 31.38 0 -37.47 -54.46zm-71.16 -13.11c4.85,-25.94 -15.21,-35.74 -39.58,-35.74 -15.9,0 -24.81,2.02 -34.24,5.89l-7.92 15.46c11.61,-4.87 24.08,-6.32 34.53,-6.32 14.47,0 24.15,4.12 21.72,17.19l-1.03 5.39c-39.45,2.18 -71.27,11.19 -75.4,36.28 -2.98,18.07 16.06,30.94 47.67,30.94 16.42,0 30.63,-0.75 41.55,-1.58l12.69 -67.51zm-28.67 12.74l-8.13 44.03c-5,0.4 -7.96,0.36 -16.78,0.19 -13.01,-0.29 -24.37,-5.65 -22.32,-18.78 2.82,-18.17 20.38,-23.41 47.22,-25.44zm-118.49 54.99l76.61 -139.94 -26.75 0 -56.21 109.76 -14.53 -109.76 -30.24 0 25.94 139.94 25.19 0z"/>
  </g>
  <g id="_2076944385728">
   <path class="fil2" d="M11556.31 361.03c0,-9.3 0,-18.61 0,-27.92 0,-11.41 1.82,-14.29 -14.49,-13.14 -3.13,0.21 -9.37,0.83 -10.99,2.76 -1.06,1.25 -0.56,10.69 -0.56,13.16l0 97.08c0,4.11 -0.64,9.19 1.63,12.09 7.46,9.53 55.44,14.88 68.97,7.19 12.6,-7.18 10.22,-28.34 10.22,-45.18 0,-8.89 0.4,-18.74 -0.22,-27.44 -0.64,-8.75 -3.12,-15.62 -8.4,-19.33 -5.77,-4.07 -14.89,-5.1 -23.33,-4.35 -8.76,0.78 -14.97,3.04 -22.84,5.08zm0 22.28l0 47.71c6.8,1.1 19.83,3.73 25.26,-0.24 4.76,-3.48 3.42,-19.24 3.42,-26.18 0,-4.94 0.02,-9.86 0,-14.79 -0.03,-4.79 0.03,-9.3 -4.06,-10.74 -6.98,-2.46 -18.86,2.33 -24.62,4.24z"/>
   <path class="fil2" d="M11364.74 361.02c-0.34,-4.28 -0.09,-27.69 -0.06,-34.39 0.03,-2.92 0.07,-3.99 -1.76,-5.4 -2.91,-2.2 -8.43,-1.56 -12.43,-1.3 -14.79,0.96 -11.76,2.85 -11.76,15.95l0 97.08c0,4.11 -0.71,9.4 1.72,12.15 3.86,4.36 12.35,6.71 19.65,8.1 12.16,2.33 39.42,5.16 49.29,-1.05 5.9,-3.72 8.64,-9.01 9.66,-18.03 0.8,-6.95 0.82,-47.49 0.22,-54.91 -0.75,-9.37 -3.08,-15.17 -8.66,-19.09 -8.99,-6.33 -24.27,-4.69 -35.26,-2.1 -3.65,0.86 -7.33,2.27 -10.61,2.99zm-0.03 22.42c-0.16,5.25 -0.45,45.63 0.15,47.42 3.38,1.58 19.86,3.5 25.07,-0.01 4.78,-3.23 3.43,-19.19 3.43,-26.25 0,-4.94 0,-9.86 0,-14.79 0,-4.9 0.12,-9.47 -4.08,-10.78 -5.76,-1.78 -20.2,1.88 -24.57,4.41z"/>
   <path class="fil2" d="M11845.8 406.19c1.29,1.28 3.54,5.26 4.77,7.14 7.81,11.99 16.1,25.42 23.94,37.07 4.91,7.3 25.44,6.34 28.85,3.23 2.84,-2.58 -0.8,-6.68 -1.96,-8.55 -3.09,-4.98 -6.51,-9.75 -9.66,-14.67 -1.21,-1.9 -18.81,-28.35 -19.16,-29.49 4.33,-7.59 11.13,-17.76 15.86,-25.7 8.3,-13.93 16.57,-20.22 -2.35,-20.53 -17.38,-0.28 -16.09,3.97 -24.42,17.19l-11.82 19.3c-0.89,1.52 -3.09,5.35 -4.06,6.35l-0.01 -69.04c0,-3.68 0.39,-5.97 -2.36,-7.58 -3.36,-1.98 -13.74,-0.95 -17.85,-0.2 -2.81,0.51 -5.7,0.9 -5.77,4.06 -0.08,3.24 0.02,6.63 0.02,9.88 0,15.75 -0.43,116.77 0.35,118.01 1.88,3.04 20.39,5.01 24.25,1.53 1.96,-1.77 1.36,-5.37 1.36,-8.59 0,-13.05 -0.26,-26.39 0.02,-39.41z"/>
   <path class="fil2" d="M11227.08 396.59l0.01 -0.38c9.57,0 19.15,0 28.73,0 2.42,0 12.28,0.52 13.47,-0.62 1.92,-1.84 2.47,-8.59 2.65,-11.87 0.8,-14.78 -2.72,-12.24 -15.82,-12.24 -9.67,0 -19.36,0 -29.04,0l0.01 -27.51c16.1,0 32.12,-0.03 48.14,0 5.26,0.01 5.57,-0.27 6.56,-5.52 0.61,-3.24 1.57,-13.16 0.12,-16.32 -0.62,-1.35 -1.73,-2.57 -3.34,-2.82l-72.38 -0.07c-3.76,0.15 -6.66,1.55 -6.78,5.22 -0.26,7.93 0.01,16.37 0.01,24.37 0,32.15 0,64.31 0,96.47 0,6.12 -2.09,8.51 14.13,9.95 3.68,0.33 7.64,1 10.66,-0.86 3.26,-2 2.86,-4.59 2.86,-9.4 0,-16.13 0,-32.26 0,-48.39z"/>
   <path class="fil2" d="M11486.35 396.2c-15.75,-2.32 -36.5,-5.96 -46.07,5.18 -7.56,8.8 -7.83,35.5 -0.95,45.34 3.67,5.25 9.91,8.36 18.7,9.01 10.42,0.76 52.91,-0.15 54.3,-15.33 0.38,-4.21 0.06,-36.07 0.06,-41.94 0,-9.52 -0.11,-16.48 -3.77,-24.42 -5.91,-12.77 -18.98,-18.93 -37.68,-18.21 -4.56,0.19 -21.08,1.89 -23.95,3.89 -4.55,3.16 2.31,19.39 3.87,20.91 2.24,2.18 16.31,-2.71 24.56,-1.72 8.13,0.98 10.44,8.78 10.92,17.3zm-0.1 37.27l0.11 -16.25c-5.91,-1.22 -9.67,-2.35 -16.34,-2.36 -7.51,-0.01 -8.99,2.11 -9.31,9.47 -0.36,7.74 0.52,10.43 8.09,10.87 5.71,0.33 12.12,-0.53 17.46,-1.74z"/>
   <path class="fil2" d="M11675.25 396.2c-8.09,-1.42 -16.61,-2.76 -25.24,-2.5 -21.27,0.63 -25.9,10.85 -26.48,29.41 -0.55,17.45 3.45,30.9 23.08,32.56 10.25,0.86 53.58,-0.12 54.69,-15.29 0.31,-4.29 0.02,-9.77 0.02,-14.19 0,-9.24 0,-18.49 0,-27.74 0,-9.71 -0.05,-16.41 -3.72,-24.5 -5.77,-12.74 -19.42,-18.84 -37.74,-18.11 -4.34,0.17 -21.45,1.92 -23.92,3.9 -4.4,3.54 2.26,19.12 3.92,20.81 2.3,2.34 16.44,-2.77 24.81,-1.61 4.21,0.58 6.47,2.82 8.03,5.76 1.43,2.68 2.79,7.99 2.55,11.5zm0.11 36.77l0 -15.77c-5.95,-1.15 -9.69,-2.34 -16.4,-2.34 -7.75,0 -8.99,2.32 -9.28,9.79 -0.33,7.95 0.87,10.23 8.66,10.59 4.01,0.17 9.24,-0.34 13.24,-1.01 2.03,-0.34 3.16,-0.27 3.79,-1.27z"/>
   <path class="fil2" d="M11959.67 396.15c-8.89,-1.03 -16.29,-2.78 -25.81,-2.44 -9.81,0.36 -15.6,2.49 -20.36,7.82 -7.57,8.5 -7.66,35.83 -0.69,45.4 3.85,5.28 9.71,8.22 18.89,8.82 10.46,0.68 53.27,-0.27 53.93,-15.66 0.19,-4.56 0,-9.58 0,-14.19 0,-9.25 0,-18.49 0,-27.74 0,-9.35 -0.09,-16.48 -3.77,-24.29 -6,-12.73 -19.28,-18.74 -37.84,-18.01 -4.56,0.18 -21.19,1.94 -23.88,3.93 -2.82,2.09 -1.07,7.37 -0.19,10.65 3.72,13.76 4.51,11.16 15.93,9.43 3.67,-0.56 9,-1.36 12.66,-0.97 8.31,0.87 10.5,8.67 11.11,17.26zm-0.16 37.19l0.17 -16.03c-4.64,-1.61 -11.05,-2.45 -16.27,-2.45 -7.6,-0.01 -9.07,2.02 -9.4,9.48 -0.35,7.73 0.45,10.43 8.18,10.86 4,0.23 14.31,-0.36 17.33,-1.87z"/>
   <path class="fil2" d="M11744.55 384.27c0.46,-0.86 0.12,-0.61 2.61,-1.47 1,-0.34 2.06,-0.69 3.04,-0.99 5.02,-1.53 16.09,-4.68 20,-1.54 3.43,2.75 3.02,7.74 3.02,12.93l-0.01 56.1c-0.02,3.35 0.4,3.98 3.22,4.87 3.79,1.19 17.4,2.88 20.95,0.09 2.02,-1.59 1.81,-3.01 1.81,-6.2l0 -48.08c0,-21.93 1.41,-40.15 -21.2,-43.17 -15.92,-2.12 -48.03,3.22 -58.01,13.59 -1.9,1.98 -1.55,3.39 -1.54,6.47l0 72.12c-0.02,3.3 -0.01,4.11 2.89,5.11 3.56,1.21 17.09,2.91 21.08,0.37 2.11,-1.35 1.97,-2.89 1.99,-6.1 0.11,-21.43 0.17,-42.69 0.16,-64.11z"/>
   <path class="fil2" d="M11307.03 355.8c-3.55,0.22 -11.24,0.78 -13.17,2.72 -1.25,1.25 -0.67,12.45 -0.66,15.27l-0.08 72.12c0,2.31 -0.57,5.93 0.93,7.09 2.46,1.9 9.79,2.41 13.26,2.58 15.85,0.76 13.39,-1.34 13.47,-17.98l0.07 -64.11c0,-15.3 3.13,-18.74 -13.82,-17.69z"/>
   <path class="fil2" d="M11293.74 343.7c3.4,2.36 5.16,2.56 10.14,2.98 16.57,1.4 15.73,-1.04 15.73,-10.18 0,-2.3 0.26,-11.89 -0.21,-13.37 -1.73,-5.4 -16.23,-3.59 -21.6,-2.27 -5.29,1.3 -4.16,2.45 -4.16,9.18 0,4.23 -0.29,9.57 0.09,13.67z"/>
   <polygon class="fil3" points="11013.98,285.68 10996.52,408.33 11118.47,390.05 "/>
   <polygon class="fil7" points="11013.98,285.68 10909.77,389.89 10996.52,408.33 "/>
   <polygon class="fil3" points="11118.47,390.05 11014.01,494.52 10996.52,408.33 "/>
   <polygon class="fil7" points="10909.77,389.89 11014.01,494.52 10996.52,408.33 "/>
  </g>
 </g>
</svg>
