<?xml version="1.0" encoding="UTF-8"?>
<!DOCTYPE svg PUBLIC "-//W3C//DTD SVG 1.1//EN" "http://www.w3.org/Graphics/SVG/1.1/DTD/svg11.dtd">
<!-- Creator: CorelDRAW 2019 (64-Bit Evaluation Version) -->
<svg xmlns="http://www.w3.org/2000/svg" xml:space="preserve" width="172.26mm" height="141.208mm" version="1.1" style="shape-rendering:geometricPrecision; text-rendering:geometricPrecision; image-rendering:optimizeQuality; fill-rule:evenodd; clip-rule:evenodd"
viewBox="0 0 3825.7 3136.08"
 xmlns:xlink="http://www.w3.org/1999/xlink"
 xmlns:xodm="http://www.corel.com/coreldraw/odm/2003">
 <defs>
  <style type="text/css">
   <![CDATA[
    .fil0 {fill:white;fill-rule:nonzero}
   ]]>
  </style>
 </defs>
 <g id="Layer_x0020_1">
  <metadata id="CorelCorpID_0Corel-Layer"/>
  <g id="pointer-screen-pointer-screen">
   <g id="pointer-screen-screen">
    <g>
     <path class="fil0" d="M3632.32 2615.61l-3438.95 0c-106.64,0 -193.37,-86.71 -193.37,-193.37l0 -381.98c0,-36.46 29.53,-65.96 65.96,-65.96 36.42,0 65.96,29.5 65.96,65.96l0 381.98c0,33.88 27.57,61.45 61.45,61.45l3438.95 0c33.89,0 61.46,-27.57 61.46,-61.45l0 -381.98c0,-36.46 29.53,-65.96 65.96,-65.96 36.43,0 65.96,29.5 65.96,65.96l-0 381.98c0,106.67 -86.73,193.37 -193.37,193.37l0 0z"/>
    </g>
    <g>
     <path class="fil0" d="M3759.73 2106.22c-36.43,0 -65.96,-29.5 -65.96,-65.96l0 -1846.89c0,-33.88 -27.57,-61.45 -61.46,-61.45l-3438.95 -0c-33.88,0 -61.45,27.57 -61.45,61.45l0 1846.89c0,36.46 -29.53,65.96 -65.96,65.96 -36.43,0 -65.96,-29.5 -65.96,-65.96l0 -1846.89c0,-106.67 86.73,-193.37 193.37,-193.37l3438.95 0c106.64,0 193.37,86.7 193.37,193.37l0 1846.89c0,36.46 -29.53,65.96 -65.96,65.96l0 0z"/>
    </g>
    <g>
     <path class="fil0" d="M2358.72 3125.13l-891.62 0c-36.42,0 -65.96,-29.5 -65.96,-65.96l0 -509.52c0,-36.46 29.53,-65.96 65.96,-65.96l891.62 0c36.43,0 65.96,29.5 65.96,65.96l0 509.52c0,36.46 -29.53,65.96 -65.96,65.96l0 0zm-825.66 -131.92l759.7 0 0 -377.59 -759.7 -0 0 377.59 0 0z"/>
    </g>
    <g>
     <path class="fil0" d="M3759.73 2106.22l-3693.77 0c-36.43,0 -65.96,-29.5 -65.96,-65.96 0,-36.46 29.53,-65.96 65.96,-65.96l3693.77 0c36.43,0 65.96,29.5 65.96,65.96 0,36.46 -29.53,65.96 -65.96,65.96l0 0z"/>
    </g>
    <g>
     <path class="fil0" d="M2613.55 3136.08l-1401.27 0c-36.43,0 -65.96,-29.5 -65.96,-65.96 0,-36.46 29.53,-65.96 65.96,-65.96l1401.27 0c36.43,0 65.96,29.5 65.96,65.96 0,36.46 -29.53,65.96 -65.96,65.96l0 0z"/>
    </g>
    <g>
     <path class="fil0" d="M1976.62 2278.98c0,35.17 -28.6,63.77 -63.77,63.77 -35.17,0 -63.64,-28.6 -63.64,-63.77 0,-35.17 28.47,-63.64 63.64,-63.64 35.17,0 63.77,28.47 63.77,63.64z"/>
    </g>
   </g>
   <g id="pointer-screen-pointer">
    <g>
     <g>
      <g>
       <polygon class="fil0" points="1589.23,947.54 1299.88,658.19 1393.15,564.92 1682.51,854.26 "/>
      </g>
      <g>
       <polygon class="fil0" points="1952.91,756.23 1821,756.23 1821,338.3 1952.91,338.3 "/>
      </g>
      <g>
       <polygon class="fil0" points="1510.26,1217.95 1076.36,1217.95 1076.36,1086.02 1510.26,1086.02 "/>
      </g>
      <g>
       <polygon class="fil0" points="2184.68,947.54 2091.4,854.26 2380.75,564.92 2474.03,658.19 "/>
      </g>
      <g>
       <polygon class="fil0" points="1393.15,1739.06 1299.88,1645.79 1589.23,1356.44 1682.51,1449.71 "/>
      </g>
     </g>
    </g>
    <g>
     <g>
      <g>
       <g>
        <path class="fil0" d="M2293.12 2311.26l-598.35 -1351.61 1351.38 598.41 -535.16 217.98 -217.88 535.22 0 0zm-339.46 -1092.67l334.38 755.26 121.71 -299.07 299.14 -121.87 -755.23 -334.31 0 0z"/>
       </g>
      </g>
     </g>
    </g>
   </g>
  </g>
 </g>
</svg>
