<?xml version="1.0" encoding="UTF-8"?>
<!DOCTYPE svg PUBLIC "-//W3C//DTD SVG 1.1//EN" "http://www.w3.org/Graphics/SVG/1.1/DTD/svg11.dtd">
<!-- Creator: CorelDRAW 2019 (64-Bit Evaluation Version) -->
<svg xmlns="http://www.w3.org/2000/svg" xml:space="preserve" width="26mm" height="21.4044mm" version="1.1" style="shape-rendering:geometricPrecision; text-rendering:geometricPrecision; image-rendering:optimizeQuality; fill-rule:evenodd; clip-rule:evenodd"
viewBox="0 0 95.2 78.37"
 xmlns:xlink="http://www.w3.org/1999/xlink"
 xmlns:xodm="http://www.corel.com/coreldraw/odm/2003">
 <defs>
  <style type="text/css">
   <![CDATA[
    .fil0 {fill:black;fill-rule:nonzero}
   ]]>
  </style>
 </defs>
 <g id="Layer_x0020_1">
  <metadata id="CorelCorpID_0Corel-Layer"/>
  <g id="_1626939526768">
   <path class="fil0" d="M95.19 21.81c0.01,-0.06 0.01,-0.12 0.01,-0.19 0,-0.06 -0,-0.13 -0.01,-0.19 -0.01,-0.06 0,-0.09 0,-0.13 -0.07,-0.15 -0.16,-0.29 -0.27,-0.42l0 0 -20.67 -20.52 0 0c-0.11,-0.12 -0.25,-0.22 -0.4,-0.29l-0.13 0c-0.12,-0.04 -0.25,-0.07 -0.37,-0.07l-0.1 0 -35.96 0c-2.39,0 -4.33,1.94 -4.33,4.33l0 28.4c-1.66,0.92 -3.46,1.57 -5.32,1.9 -5.77,1.02 -9.48,5.57 -10.75,7.31l-1.02 -0 0 -0.07c0,-1.59 -1.29,-2.88 -2.88,-2.88l-10.1 -0c-1.59,0 -2.88,1.29 -2.88,2.88l0 20.6c0,1.59 1.29,2.88 2.88,2.88l10.1 0c1.59,0 2.88,-1.29 2.88,-2.88l0 0 2.11 0c3.47,2.24 7.51,3.49 11.64,3.61 1.15,-0 2.3,-0.12 3.42,-0.36l0 8.34c0,2.39 1.94,4.33 4.33,4.33l53.51 0c2.39,0 4.33,-1.94 4.33,-4.33l0 -52.15c0,0 0,-0.09 0,-0.09zm-20.52 -16.95l15.6 15.59 -14.16 0c-0.8,0 -1.44,-0.65 -1.44,-1.44l0 -14.15zm-61.69 57.6l-10.1 0 0 -20.6 10.1 0 0 20.6zm6.27 -2.7c-0.24,-0.17 -0.53,-0.26 -0.83,-0.26 -0.01,0 -0.02,0 -0.03,0l-2.54 0 0 -14.62 1.86 0c0,0 0,0 0,0 0.5,0 0.96,-0.26 1.22,-0.68 0.26,-0.42 3.55,-5.65 9.27,-6.69 3.25,-0.56 6.31,-1.93 8.88,-3.98l6.85 -5.57c1.01,0.82 1.64,2.03 1.72,3.33 0,2.15 -2.19,4.54 -6.23,6.92 -0.42,0.25 -0.69,0.69 -0.71,1.18 -0.5,5.13 -3.79,9.56 -8.55,11.54 -0.38,0.27 -0.61,0.71 -0.61,1.18 0,0.8 0.65,1.44 1.44,1.44 0.09,0 0.18,-0.01 0.26,-0.02 0.59,-0.27 1.14,-0.56 1.67,-0.85l0 10.02c-7,1.76 -13.72,-2.88 -13.77,-2.94l0.07 0zm71.61 15.65l-53.58 0c-0.8,0 -1.44,-0.65 -1.44,-1.44l-0 -23.32c3.05,-2.67 5.05,-6.34 5.62,-10.36 4.63,-2.88 6.99,-5.88 7.02,-9 0,-3.97 -3.71,-6.33 -3.87,-6.43 -0.22,-0.14 -0.48,-0.21 -0.75,-0.21 -0.33,0 -0.65,0.11 -0.91,0.32l-7.12 5.77 -0 -26.49c0,-0.8 0.65,-1.44 1.44,-1.44l34.5 0 0 16.2c0,2.39 1.94,4.33 4.33,4.33l16.2 0 0 50.64c0,0.8 -0.65,1.44 -1.44,1.44l0 0z"/>
   <path class="fil0" d="M65.52 9.87c0,-0.8 -0.65,-1.44 -1.44,-1.44l-21.16 0c-0.8,0 -1.44,0.65 -1.44,1.44 0,0.8 0.65,1.44 1.44,1.44l21.16 0c0.8,0 1.44,-0.65 1.44,-1.44z"/>
   <path class="fil0" d="M67.14 19.1c0,-0.8 -0.65,-1.44 -1.44,-1.44l-21.16 0c-0.8,0 -1.44,0.65 -1.44,1.44 0,0.8 0.65,1.44 1.44,1.44l21.16 0c0.8,0 1.44,-0.65 1.44,-1.44z"/>
   <path class="fil0" d="M81.85 38.96l-21.14 0c-0.8,0 -1.44,0.65 -1.44,1.44 0,0.8 0.65,1.44 1.44,1.44l21.14 0c0.8,0 1.44,-0.65 1.44,-1.44 0,-0.8 -0.65,-1.44 -1.44,-1.44l0 0z"/>
   <path class="fil0" d="M81.85 51.2l-35.57 0c-0.8,0 -1.44,0.65 -1.44,1.44 0,0.8 0.65,1.44 1.44,1.44l35.57 0c0.8,-0 1.44,-0.65 1.44,-1.44 0,-0.8 -0.65,-1.44 -1.44,-1.44l0 0z"/>
   <path class="fil0" d="M81.85 63.43l-35.57 0c-0.8,0 -1.44,0.65 -1.44,1.44 0,0.8 0.65,1.44 1.44,1.44l35.57 0c0.8,0 1.44,-0.65 1.44,-1.44 0,-0.8 -0.65,-1.44 -1.44,-1.44l0 0z"/>
  </g>
 </g>
</svg>
