<?xml version="1.0" encoding="UTF-8"?>
<!DOCTYPE svg PUBLIC "-//W3C//DTD SVG 1.1//EN" "http://www.w3.org/Graphics/SVG/1.1/DTD/svg11.dtd">
<!-- Creator: CorelDRAW 2019 (64-Bit Evaluation Version) -->
<svg xmlns="http://www.w3.org/2000/svg" xml:space="preserve" width="18.4664mm" height="25.6972mm" version="1.1" style="shape-rendering:geometricPrecision; text-rendering:geometricPrecision; image-rendering:optimizeQuality; fill-rule:evenodd; clip-rule:evenodd"
viewBox="0 0 47.39 65.95"
 xmlns:xlink="http://www.w3.org/1999/xlink"
 xmlns:xodm="http://www.corel.com/coreldraw/odm/2003">
 <defs>
  <style type="text/css">
   <![CDATA[
    .fil1 {fill:black}
    .fil0 {fill:black;fill-rule:nonzero}
   ]]>
  </style>
 </defs>
 <g id="Layer_x0020_1">
  <metadata id="CorelCorpID_0Corel-Layer"/>
  <g id="_1626879978800">
   <path class="fil0" d="M2.21 31.95l0.06 -0.25 0.13 -13.16c0.04,-1.36 1.16,-2.45 2.52,-2.45 0.01,0 0.03,0 0.04,0l0.02 0c0,0 0,0 0.01,0 0.65,0 1.28,0.26 1.74,0.73 0.33,0.34 0.56,0.77 0.65,1.24 0,0.03 0.05,0.37 0.05,0.51l-0.12 14.61c0.66,-0.53 1.35,-1.02 2.07,-1.46l0.12 -22.4c0.04,-1.36 1.16,-2.45 2.52,-2.45 0.01,0 0.03,0 0.04,0l0.02 0c0.47,0 2.83,0.13 2.83,2.47l-0.2 20.12c0.68,-0.17 1.37,-0.31 2.06,-0.41l0.24 -24.54c0.04,-1.36 1.16,-2.45 2.52,-2.45 0.01,0 0.03,0 0.04,0l0.02 0c0,0 0,0 0,0 0.69,0 1.34,0.28 1.82,0.76 0.45,0.45 0.7,1.05 0.7,1.68 0,0.01 0,0.02 0,0.02l-0.24 24.46c0.69,0.08 1.38,0.2 2.06,0.36l0.17 -17.46c0.01,-1.26 1.44,-2.44 2.93,-2.44l0.02 0c0,0 0,0 0,0 0.68,0 1.34,0.27 1.82,0.76 0.45,0.45 0.7,1.05 0.7,1.68 0,0.01 0,0.02 0,0.02l-0.19 19.58c0.71,0.41 1.4,0.87 2.05,1.37l0.2 -20.93c-0,-0.02 0,-0.03 0,-0.05 0,-1.17 -0.46,-2.29 -1.29,-3.12 -0.86,-0.88 -2.05,-1.38 -3.28,-1.38 -1.04,0 -2.06,0.32 -2.93,0.91l0.04 -3.74c0,-0.02 0,-0.03 0,-0.05 0,-1.17 -0.46,-2.29 -1.29,-3.12 -0.87,-0.88 -2.05,-1.38 -3.28,-1.38l-0.03 -0c-0.01,0 -0.02,0 -0.04,0 -2.49,0 -4.53,1.99 -4.59,4.49l-0.01 1.1c-0.84,-0.51 -1.81,-0.78 -2.79,-0.78 -0.02,0 -0.04,0 -0.07,0l-0.03 -0c-0.01,-0 -0.02,-0 -0.04,-0 -2.49,0 -4.53,1.99 -4.59,4.49l-0.05 5.43c-0.72,-0.45 -1.55,-0.7 -2.4,-0.7l-0.03 0c-0.01,-0 -0.02,-0 -0.04,-0 -2.49,0 -4.53,1.99 -4.59,4.49l-0.13 12.94 -0.04 0.21c-0.03,0.23 -0.61,5.6 0.53,10.11l0.24 0.64c0.36,-1.11 0.82,-2.19 1.37,-3.22 -0.16,-1.35 -0.25,-2.73 -0.25,-4.09 0,-1.05 0.05,-2.12 0.15,-3.16l0 0z"/>
   <path class="fil0" d="M46.14 23.26c-0.83,-0.75 -1.91,-1.17 -3.03,-1.17 -0.13,0 -0.26,0.01 -0.38,0.02 -1.9,0.13 -3.83,1.26 -5.45,3.24l-5.68 7.64c0.54,0.42 1.07,0.88 1.56,1.36l5.75 -7.73c1.21,-1.47 2.66,-2.37 3.97,-2.46 0.08,-0.01 0.17,-0.01 0.25,-0.01 0.6,0 1.18,0.22 1.62,0.62 1.36,1.27 0.26,4.47 -2.96,8.57 -1.92,2.39 -3.25,5.19 -3.9,8.18 0.53,1.42 0.9,2.89 1.09,4.39 0.23,-0.72 0.42,-1.46 0.56,-2.21 0.64,-3.45 1.48,-6.04 3.87,-9.09 4.12,-5.26 5.07,-9.19 2.74,-11.35z"/>
   <path class="fil1" d="M7.19 60.81c6.84,6.84 17.94,6.84 24.79,0 6.84,-6.84 6.84,-17.94 0,-24.79 -6.84,-6.84 -17.94,-6.84 -24.79,0 -6.84,6.84 -6.84,17.94 0,24.79zm2.12 -23.88l21.76 21.76c5.42,-6.05 5.23,-15.36 -0.59,-21.17 -5.82,-5.82 -15.12,-6.01 -21.17,-0.59zm20.55 22.97l-21.76 -21.76c-5.42,6.05 -5.23,15.36 0.59,21.17 5.82,5.82 15.12,6.01 21.17,0.59z"/>
  </g>
 </g>
</svg>
