<?xml version="1.0" encoding="UTF-8"?>
<!DOCTYPE svg PUBLIC "-//W3C//DTD SVG 1.1//EN" "http://www.w3.org/Graphics/SVG/1.1/DTD/svg11.dtd">
<!-- Creator: CorelDRAW 2019 (64-Bit Evaluation Version) -->
<svg xmlns="http://www.w3.org/2000/svg" xml:space="preserve" width="26mm" height="26mm" version="1.1" style="shape-rendering:geometricPrecision; text-rendering:geometricPrecision; image-rendering:optimizeQuality; fill-rule:evenodd; clip-rule:evenodd"
viewBox="0 0 95.2 95.2"
 xmlns:xlink="http://www.w3.org/1999/xlink"
 xmlns:xodm="http://www.corel.com/coreldraw/odm/2003">
 <defs>
  <style type="text/css">
   <![CDATA[
    .str0 {stroke:black;stroke-width:0.73;stroke-miterlimit:22.9256}
    .fil2 {fill:black}
    .fil1 {fill:white}
    .fil0 {fill:black;fill-rule:nonzero}
   ]]>
  </style>
 </defs>
 <g id="Layer_x0020_1">
  <metadata id="CorelCorpID_0Corel-Layer"/>
  <g id="_1627186611424">
   <g>
    <ellipse class="fil0" transform="matrix(0.0198546 -0.0852574 0.0852574 0.0198546 35.4763 21.4215)" rx="80.51" ry="80.5"/>
    <path class="fil0" d="M31.77 32.86l3.46 9.2c0,0 0.15,0.41 0.24,0.81 0.09,-0.4 0.24,-0.81 0.24,-0.81l3.46 -9.2 0.13 -2.37c-1.08,-0.14 -2.33,-0.22 -3.81,-0.22 -0,0 -0.01,-0 -0.01,-0 -0.01,0 -0.01,0 -0.02,0 -0.01,0 -0.01,0 -0.02,0 -0,0 -0.01,0 -0.01,0 -1.48,0 -2.74,0.08 -3.81,0.22l0.13 2.37z"/>
    <path class="fil0" d="M34.81 45.77c-0.39,-0.45 -0.95,-0.74 -1.6,-0.75 -3.57,-0.03 -5.88,-0.56 -7.13,-1.17 -0,-0 -0,-0 -0,-0 -0.61,-0.3 -0.97,-0.59 -1.19,-0.85 -0.05,-0.06 -0.1,-0.12 -0.14,-0.18 -0.19,-0.3 -0.27,-0.57 -0.28,-0.99 -0.01,-0.53 0.2,-1.3 0.61,-2.11 0.27,-0.55 0.64,-1.11 1.04,-1.64l1 5.49c1.07,0.37 2.95,0.77 6.09,0.8 0.94,0.01 1.76,0.48 2.26,1.2 0.5,-0.71 1.32,-1.19 2.26,-1.2 3.13,-0.03 5.01,-0.43 6.09,-0.8l1 -5.49c0.19,0.25 0.36,0.5 0.53,0.75 0.73,1.12 1.14,2.28 1.13,3 -0.01,0.42 -0.09,0.69 -0.28,0.99 -0.04,0.06 -0.08,0.11 -0.13,0.18 -0.22,0.26 -0.57,0.55 -1.18,0.85 -0,0 -0,0 -0.01,0 -1.25,0.62 -3.56,1.14 -7.13,1.17 -0.64,0.01 -1.21,0.3 -1.59,0.75l13.15 0c0.16,-0.19 0.31,-0.38 0.45,-0.59 0.7,-1.04 1,-2.24 0.99,-3.35 -0.01,-1.47 -0.46,-2.82 -1.07,-4.04 -0.93,-1.83 -2.25,-3.41 -3.54,-4.62 -0.65,-0.6 -1.29,-1.11 -1.92,-1.51 -0.32,-0.2 -0.63,-0.37 -0.98,-0.52 -0.19,-0.07 -0.39,-0.15 -0.62,-0.2l0.47 1.99 -2.12 0.34 1.35 1.77c0,0 -4.81,6.67 -6.16,8.11 -0.37,0.4 -0.57,0.49 -0.67,0.42 -0.09,0.07 -0.29,-0.02 -0.67,-0.42 -1.35,-1.43 -6.16,-8.11 -6.16,-8.11l1.35 -1.77 -2.12 -0.34 0.47 -1.99c-0.38,0.08 -0.67,0.22 -0.96,0.35 -0.76,0.38 -1.47,0.91 -2.23,1.58 -1.13,1 -2.29,2.3 -3.24,3.8 -0.93,1.5 -1.68,3.21 -1.7,5.14 -0.01,1.12 0.3,2.32 0.99,3.35 0.14,0.2 0.29,0.4 0.45,0.59l13.15 0 0 0z"/>
    <path class="fil0" d="M83.16 54.73l0 -8.96 0 -40.31 -70.69 0 0 40.31 0 8.96 70.69 0 0 -0zm-12.57 -2.79l-3.25 0 0 -1.41 3.25 0 0 1.41zm4.66 0l-3.25 0 0 -1.41 3.25 0 0 1.41zm4.66 0l-3.25 0 0 -1.41 3.25 0 0 1.41zm0 -43.23l0 37.06 0 1.95 -64.19 0 0 -1.95 0 -37.06 64.19 0z"/>
    <rect class="fil0" x="50.69" y="27.8" width="19.92" height="1.27"/>
    <rect class="fil0" x="50.69" y="24.98" width="19.92" height="1.27"/>
    <rect class="fil0" x="50.69" y="30.52" width="8.93" height="1.27"/>
    <path class="fil0" d="M32.02 67.58c0,-4.37 -3.54,-7.91 -7.91,-7.91 -4.37,0 -7.91,3.54 -7.91,7.91 0,0.71 0.1,1.4 0.27,2.06l15.27 0c0.18,-0.66 0.27,-1.35 0.27,-2.06z"/>
    <path class="fil0" d="M43.92 70.28l-40.67 0c-1.8,0 -3.25,1.46 -3.25,3.25l0 21.66 47.17 0 0 -21.66c0,-1.79 -1.46,-3.25 -3.25,-3.25z"/>
    <path class="fil0" d="M78.73 69.63c0.18,-0.66 0.27,-1.35 0.27,-2.06 0,-4.37 -3.54,-7.91 -7.91,-7.91 -4.37,0 -7.91,3.54 -7.91,7.91 0,0.71 0.1,1.4 0.27,2.06l15.27 0z"/>
    <path class="fil0" d="M91.95 70.28l-40.67 0c-1.8,0 -3.25,1.46 -3.25,3.25l0 21.66 47.17 0 0 -21.66c0,-1.79 -1.46,-3.25 -3.25,-3.25z"/>
   </g>
   <g>
    <circle class="fil1 str0" cx="78.75" cy="16.44" r="15.24"/>
    <path class="fil2" d="M90.38 28.07c-6.42,6.42 -16.83,6.42 -23.26,0 -6.42,-6.42 -6.42,-16.83 0,-23.26 6.42,-6.42 16.83,-6.42 23.26,0 6.42,6.42 6.42,16.83 0,23.26zm-1.99 -22.41l-20.42 20.42c-5.09,-5.68 -4.9,-14.41 0.55,-19.87 5.46,-5.46 14.19,-5.64 19.87,-0.55zm-19.28 21.56l20.42 -20.42c5.09,5.68 4.9,14.41 -0.55,19.87 -5.46,5.46 -14.19,5.64 -19.87,0.55z"/>
    <path class="fil2" d="M67.13 28.07c6.42,6.42 16.83,6.42 23.26,0 6.42,-6.42 6.42,-16.83 0,-23.26 -6.42,-6.42 -16.83,-6.42 -23.26,0 -6.42,6.42 -6.42,16.83 0,23.26zm1.99 -22.41l20.42 20.42c5.09,-5.68 4.9,-14.41 -0.55,-19.87 -5.46,-5.46 -14.19,-5.64 -19.87,-0.55zm19.28 21.56l-20.42 -20.42c-5.09,5.68 -4.9,14.41 0.55,19.87 5.46,5.46 14.19,5.64 19.87,0.55z"/>
   </g>
  </g>
 </g>
</svg>
