<?xml version="1.0" encoding="UTF-8"?>
<!DOCTYPE svg PUBLIC "-//W3C//DTD SVG 1.1//EN" "http://www.w3.org/Graphics/SVG/1.1/DTD/svg11.dtd">
<!-- Creator: CorelDRAW 2019 (64-Bit Evaluation Version) -->
<svg xmlns="http://www.w3.org/2000/svg" xml:space="preserve" width="24.7486mm" height="25.0551mm" version="1.1" style="shape-rendering:geometricPrecision; text-rendering:geometricPrecision; image-rendering:optimizeQuality; fill-rule:evenodd; clip-rule:evenodd"
viewBox="0 0 86.18 87.24"
 xmlns:xlink="http://www.w3.org/1999/xlink"
 xmlns:xodm="http://www.corel.com/coreldraw/odm/2003">
 <defs>
  <style type="text/css">
   <![CDATA[
    .fil0 {fill:black;fill-rule:nonzero}
   ]]>
  </style>
 </defs>
 <g id="Layer_x0020_1">
  <metadata id="CorelCorpID_0Corel-Layer"/>
  <path class="fil0" d="M43.09 14.56c-15.92,0 -28.92,13 -28.92,28.92 0,16.01 13,28.92 28.92,28.92 15.92,0 28.92,-13 28.92,-28.92 0,-15.92 -12.91,-28.92 -28.92,-28.92zm23.39 17.47l-7.38 0c-1.36,-5.24 -3.49,-9.61 -6.31,-12.71 5.92,2.43 10.87,6.99 13.68,12.71zm-8.93 11.45c0,2.91 -0.29,5.73 -0.78,8.35l-12.23 0 0 -16.89 12.13 0c0.58,2.72 0.87,5.53 0.87,8.54zm-28.82 0c0,-3.01 0.29,-5.92 0.78,-8.54l12.13 0 0 16.98 -12.13 0c-0.49,-2.72 -0.78,-5.53 -0.78,-8.44zm12.91 -25.91l0 14.46 -11.45 0c2.13,-7.86 6.4,-13.49 11.45,-14.46zm0 37.17l0 14.65c-5.05,-0.97 -9.41,-6.6 -11.55,-14.65l11.55 0zm2.91 14.65l0 -14.65 11.55 0c-2.14,8.05 -6.41,13.68 -11.55,14.65zm0 -37.36l0 -14.46c5.05,0.87 9.32,6.6 11.45,14.46l-11.45 0zm-11.06 -12.71c-2.81,3.11 -5.05,7.47 -6.31,12.71l-7.38 0c2.81,-5.73 7.67,-10.29 13.68,-12.71zm-14.95 15.62l8.05 0c-0.49,2.72 -0.78,5.53 -0.78,8.54 0,2.91 0.29,5.73 0.68,8.35l-8.05 0c-0.87,-2.62 -1.36,-5.43 -1.36,-8.35 0,-3.01 0.49,-5.82 1.46,-8.54zm1.16 19.8l7.47 0c1.36,5.34 3.49,9.8 6.31,12.91 -6.02,-2.43 -10.97,-6.99 -13.78,-12.91zm33 12.91c2.81,-3.11 5.05,-7.57 6.4,-12.91l7.47 0c-2.81,5.92 -7.76,10.48 -13.88,12.91zm15.04 -15.82l-8.05 0c0.49,-2.62 0.68,-5.43 0.68,-8.35 0,-3.01 -0.29,-5.82 -0.78,-8.54l8.05 0c0.97,2.72 1.46,5.53 1.46,8.54 0,2.91 -0.49,5.73 -1.36,8.35zm-17.27 -47.16c0,-2.62 2.13,-4.66 4.66,-4.66 2.52,0 4.66,2.13 4.66,4.66 0,2.62 -2.13,4.66 -4.66,4.66 -2.52,0 -4.66,-2.04 -4.66,-4.66zm10.19 4.46c0,-2.33 1.84,-4.17 4.17,-4.17 2.33,0 4.17,1.84 4.17,4.17 0,2.33 -1.84,4.17 -4.17,4.17 -2.33,0 -4.17,-1.84 -4.17,-4.17zm15.92 6.79c0,2.04 -1.65,3.78 -3.78,3.78 -2.13,0 -3.78,-1.65 -3.78,-3.78 0,-2.04 1.65,-3.78 3.78,-3.78 2.13,0 3.78,1.65 3.78,3.78zm2.52 11.84c-1.84,0 -3.3,-1.46 -3.3,-3.3 0,-1.84 1.46,-3.3 3.3,-3.3 1.84,0 3.3,1.46 3.3,3.3 0,1.84 -1.46,3.3 -3.3,3.3zm0.87 6.7c0,-1.55 1.26,-2.81 2.81,-2.81 1.55,0 2.81,1.26 2.81,2.81 0,1.55 -1.26,2.81 -2.81,2.81 -1.55,0 -2.81,-1.26 -2.81,-2.81zm6.21 10.58c0,1.26 -1.07,2.33 -2.33,2.33 -1.26,0 -2.33,-1.07 -2.33,-2.33 0,-1.26 1.07,-2.33 2.33,-2.33 1.26,0 2.33,0.97 2.33,2.33zm-2.33 10.48c0,1.07 -0.87,1.94 -1.94,1.94 -1.07,0 -1.94,-0.87 -1.94,-1.94 0,-1.07 0.87,-1.94 1.94,-1.94 1.07,0 1.94,0.87 1.94,1.94zm-47.16 26.98c0.1,2.62 -2.04,4.76 -4.56,4.76 -2.52,0 -4.76,-2.04 -4.76,-4.56 0,-2.52 2.04,-4.76 4.56,-4.76 2.52,-0.1 4.66,2.04 4.76,4.56zm-10.38 -4.17c0.1,2.33 -1.84,4.27 -4.17,4.27 -2.33,0.1 -4.27,-1.84 -4.27,-4.17 -0.1,-2.33 1.84,-4.27 4.17,-4.27 2.33,0 4.27,1.84 4.27,4.17zm-8.54 -6.6c0,2.04 -1.55,3.79 -3.69,3.88 -2.04,0 -3.78,-1.55 -3.88,-3.69 -0.1,-2.14 1.55,-3.79 3.69,-3.88 2.14,-0.1 3.78,1.55 3.88,3.69zm-6.99 -8.44c0,1.84 -1.36,3.3 -3.2,3.4 -1.84,0 -3.3,-1.36 -3.4,-3.2 0,-1.84 1.36,-3.3 3.2,-3.4 1.84,-0.1 3.4,1.36 3.4,3.2zm-7.08 -6.99c-1.55,0 -2.81,-1.16 -2.91,-2.81 0,-1.55 1.16,-2.81 2.81,-2.91 1.55,0 2.81,1.16 2.91,2.81 0,1.55 -1.26,2.91 -2.81,2.91zm-1.26 -11.06c-1.26,0 -2.43,-0.97 -2.43,-2.33 0,-1.26 0.97,-2.43 2.33,-2.43 1.26,0 2.43,0.97 2.43,2.33 0,1.36 -1.07,2.43 -2.33,2.43zm-0.29 -12.81c0,-1.07 0.78,-1.94 1.84,-1.94 1.07,0 1.94,0.78 1.94,1.84 0,1.07 -0.78,1.94 -1.84,1.94 -1.07,0 -1.94,-0.78 -1.94,-1.84z"/>
 </g>
</svg>
