<?xml version="1.0" encoding="UTF-8"?>
<!DOCTYPE svg PUBLIC "-//W3C//DTD SVG 1.1//EN" "http://www.w3.org/Graphics/SVG/1.1/DTD/svg11.dtd">
<!-- Creator: CorelDRAW 2019 (64-Bit Evaluation Version) -->
<svg xmlns="http://www.w3.org/2000/svg" xml:space="preserve" width="26mm" height="16.1001mm" version="1.1" style="shape-rendering:geometricPrecision; text-rendering:geometricPrecision; image-rendering:optimizeQuality; fill-rule:evenodd; clip-rule:evenodd"
viewBox="0 0 95.2 58.95"
 xmlns:xlink="http://www.w3.org/1999/xlink"
 xmlns:xodm="http://www.corel.com/coreldraw/odm/2003">
 <defs>
  <style type="text/css">
   <![CDATA[
    .fil1 {fill:white}
    .fil0 {fill:black;fill-rule:nonzero}
   ]]>
  </style>
 </defs>
 <g id="Layer_x0020_1">
  <metadata id="CorelCorpID_0Corel-Layer"/>
  <g id="_1627186627808">
   <path class="fil0" d="M65.73 0c-0.01,0 -0.02,0 -0.02,0 -6.54,0 -12.9,2.2 -18.05,6.24 -5.18,-4.04 -11.56,-6.24 -18.13,-6.24 -5.59,0 -10.82,1.56 -15.28,4.27 -8.54,5.16 -14.25,14.53 -14.25,25.23 0,16.27 13.19,29.45 29.45,29.45 3.04,0 5.98,-0.46 8.74,-1.32 0.05,-0.01 0.09,-0.03 0.14,-0.04l0.03 -0.01c3.33,-1.05 6.47,-2.68 9.26,-4.86 5,3.9 11.28,6.23 18.12,6.23 16.27,0 29.45,-13.19 29.45,-29.45 0,-9.01 -4.05,-17.07 -10.42,-22.47 -5.13,-4.37 -11.78,-7.02 -19.05,-7.02l-0 0zm-21.3 9.18c-5.04,5.29 -8.13,12.44 -8.13,20.32 0,7.86 3.08,15 8.1,20.29 -4.28,3.16 -9.47,4.88 -14.8,4.89l0 0c-11.02,-0.03 -20.74,-7.21 -24,-17.74l11.13 0 0 6.51c-0,0.01 -0,0.03 -0,0.04 0,0.87 0.53,1.66 1.34,1.98 0.26,0.11 0.53,0.16 0.81,0.16 0,0 0,0 0,0 0,0 0,0 0,0 0.57,0 1.11,-0.23 1.51,-0.63l13.93 -14.02c0.4,-0.4 0.62,-0.94 0.62,-1.5 0,-0.56 -0.22,-1.1 -0.62,-1.5l-13.93 -13.97c-0.4,-0.42 -0.96,-0.65 -1.54,-0.65 -1.18,0 -2.13,0.96 -2.13,2.13 0,0.01 0,0.02 0,0.02l0 6.51 -11.13 0c3.27,-10.51 12.99,-17.69 24,-17.71 0.01,0 0.02,0 0.02,0 5.33,0 10.53,1.72 14.81,4.89zm45.31 28.3c-3.34,10.05 -12.82,17.3 -23.99,17.3 -4.75,0 -9.19,-1.31 -12.98,-3.59 -0.65,-0.45 -1.29,-0.94 -1.9,-1.45 5.19,-5.47 8.09,-12.72 8.09,-20.26 0,-7.54 -2.9,-14.8 -8.09,-20.26 4.29,-3.18 9.5,-4.89 14.84,-4.89 0.01,0 0.01,0 0.02,0 11.01,0.02 20.73,7.19 24.01,17.69l-11.13 0 0 -6.51c0,-0 0,-0 0,-0 0,-1.18 -0.96,-2.13 -2.13,-2.13 -0.57,0 -1.11,0.23 -1.51,0.63l-13.95 13.97c-0.4,0.4 -0.62,0.94 -0.62,1.5 0,0.56 0.22,1.1 0.62,1.5l13.93 13.97c0.4,0.4 0.95,0.63 1.51,0.63 0.01,0 0.02,0 0.02,0 0,0 0,0 0,0 0.28,0 0.55,-0.05 0.81,-0.16 0.8,-0.33 1.32,-1.11 1.32,-1.97 0,0 0,0 0,0l0 -6.51 11.13 0c0.01,0.18 0.01,0.36 0.01,0.54z"/>
   <g>
    <rect class="fil1" x="40.77" y="23.25" width="13.66" height="4.98" rx="1.81" ry="1.6"/>
    <rect class="fil1" x="40.77" y="30.72" width="13.66" height="4.98" rx="1.81" ry="1.6"/>
   </g>
  </g>
 </g>
</svg>
