<?xml version="1.0" encoding="UTF-8"?>
<!DOCTYPE svg PUBLIC "-//W3C//DTD SVG 1.1//EN" "http://www.w3.org/Graphics/SVG/1.1/DTD/svg11.dtd">
<!-- Creator: CorelDRAW 2019 (64-Bit Evaluation Version) -->
<svg xmlns="http://www.w3.org/2000/svg" xml:space="preserve" width="94.7118mm" height="141.274mm" version="1.1" style="shape-rendering:geometricPrecision; text-rendering:geometricPrecision; image-rendering:optimizeQuality; fill-rule:evenodd; clip-rule:evenodd"
viewBox="0 0 658.49 982.21"
 xmlns:xlink="http://www.w3.org/1999/xlink"
 xmlns:xodm="http://www.corel.com/coreldraw/odm/2003">
 <defs>
  <style type="text/css">
   <![CDATA[
    .fil1 {fill:white}
    .fil0 {fill:white;fill-rule:nonzero}
   ]]>
  </style>
 </defs>
 <g id="Layer_x0020_1">
  <metadata id="CorelCorpID_0Corel-Layer"/>
  <g id="_1626925069680">
   <circle class="fil0" cx="337.63" cy="76.74" r="15.35"/>
   <circle class="fil0" cx="214.86" cy="76.74" r="15.35"/>
   <path class="fil0" d="M537.14 180.73l0 -11.92 0 -92.08c0,-42.37 -34.36,-76.74 -76.73,-76.74l-368.33 -0c-42.37,0 -76.74,34.36 -76.74,76.74l-0 61.39c-8.47,0 -15.35,6.87 -15.35,15.35l0 61.39c0,8.47 6.87,15.35 15.35,15.35l0 30.69c-8.47,0 -15.35,6.87 -15.35,15.35l0 61.39c0,8.47 6.87,15.35 15.35,15.35l-0 552.49c0,42.37 34.36,76.73 76.74,76.73l368.33 0c42.37,-0 76.73,-34.36 76.73,-76.74l0 -73.55 0 -35.41 0 -32.35 -30.69 0 0 42.32 0 87.27 0 11.72c0,25.42 -20.62,46.04 -46.04,46.04l-368.33 0c-25.42,-0 -46.04,-20.62 -46.04,-46.04l0 -821.07 46.04 0c15.99,0.41 30.94,8.03 40.67,20.72 12.44,15.75 31.34,25.07 51.41,25.32l184.16 0c20.07,-0.25 38.97,-9.57 51.41,-25.32 9.73,-12.69 24.69,-20.31 40.67,-20.71l46.04 -0 0 80.18 0 8.34 30.69 7.81zm-30.69 327.08l0 256.35 30.69 0 0 -264.46 -30.69 8.11zm-414.37 -477.12l368.33 0c0.21,0 0.43,-0 0.64,-0 22.47,0 41.66,16.22 45.4,38.37l-46.04 -0c-20.07,0.26 -38.97,9.57 -51.41,25.33 -9.73,12.69 -24.69,20.31 -40.68,20.71l-184.16 0c-15.98,-0.41 -30.94,-8.03 -40.67,-20.72 -12.44,-15.75 -31.34,-25.07 -51.41,-25.32l-45.28 -0c3.74,-22.1 22.86,-38.31 45.27,-38.37l-0 0z"/>
   <circle class="fil1" cx="276" cy="76.74" r="22.66"/>
   <g>
    <path class="fil0" d="M313.43 659.81c4.59,0 8.54,-1.48 11.87,-4.44 3.33,-2.95 4.99,-7.1 4.99,-12.43 0,-4.51 -1.58,-8.39 -4.77,-11.65 -3.18,-3.25 -7.09,-4.88 -11.76,-4.88 -4.65,0 -8.63,1.61 -11.92,4.83 -3.3,3.21 -4.94,7.12 -4.94,11.7 0,5.25 1.65,9.37 4.94,12.37 3.28,3 7.15,4.49 11.59,4.49z"/>
    <path class="fil0" d="M242.32 659.81c4.59,0 8.54,-1.48 11.87,-4.44 3.33,-2.95 4.99,-7.1 4.99,-12.42 0,-4.51 -1.58,-8.39 -4.77,-11.65 -3.18,-3.25 -7.09,-4.88 -11.76,-4.88 -4.65,0 -8.63,1.61 -11.92,4.83 -3.29,3.22 -4.94,7.12 -4.94,11.7 0,5.25 1.65,9.37 4.94,12.37 3.29,3 7.15,4.49 11.59,4.49z"/>
    <path class="fil0" d="M171.21 659.81c4.59,0 8.54,-1.48 11.87,-4.44 3.33,-2.95 4.99,-7.1 4.99,-12.42 0,-4.51 -1.58,-8.39 -4.77,-11.65 -3.18,-3.25 -7.09,-4.88 -11.76,-4.88 -4.65,0 -8.63,1.61 -11.92,4.83 -3.3,3.22 -4.94,7.12 -4.94,11.7 0,5.25 1.65,9.37 4.94,12.37 3.29,3 7.16,4.49 11.59,4.49z"/>
   </g>
   <g>
    <path class="fil0" d="M582 577.72c1.91,0 3.82,-0.52 5.5,-1.54 47.42,-28.78 62.24,-81.37 41.07,-144.83 19.59,-28.57 29.92,-60.75 29.92,-93.41 0,-107.51 -109.96,-194.98 -245.12,-194.98 -135.16,0 -245.12,87.47 -245.12,194.98 0,107.51 109.96,194.99 245.12,194.99 43.21,0 85.53,-9.02 122.69,-26.12 23.18,8.77 33.87,20.82 35.34,60.69 0.14,3.75 2.25,7.16 5.56,8.94 1.57,0.85 3.31,1.27 5.04,1.27zm-168.63 -413.56c123.47,0 223.92,77.96 223.92,173.79 0,29.89 -10.06,59.45 -29.08,85.48 -2.09,2.85 -2.61,6.54 -1.41,9.86 17.61,48.73 11.9,88.48 -15.86,113.98 -4.82,-33.78 -19.78,-50.83 -51.96,-61.93 -2.64,-0.91 -5.52,-0.74 -8.05,0.47 -35.27,16.96 -75.93,25.93 -117.56,25.93 -123.47,0 -223.92,-77.96 -223.92,-173.79 0,-95.83 100.46,-173.79 223.93,-173.79z"/>
   </g>
   <g>
    <path class="fil0" d="M138.75 793.96c1.93,0 3.88,-0.46 5.64,-1.39 3.89,-2.03 6.37,-5.99 6.52,-10.36 1.18,-33.92 8.96,-44.38 26.75,-51.87 31.75,15.21 67.73,23.22 104.47,23.22 104.9,0 192.82,-63.35 209.03,-150.63 0.73,-3.93 -0.51,-7.96 -3.33,-10.8 -2.82,-2.84 -6.84,-4.1 -10.78,-3.4 -19.1,3.41 -38.5,5.14 -57.67,5.14 -119.06,0 -221.81,-62.72 -249.89,-152.52 -1.14,-3.66 -3.93,-6.56 -7.55,-7.84 -3.61,-1.27 -7.62,-0.78 -10.81,1.34 -51.23,34.09 -80.6,85.19 -80.6,140.2 0,29.58 8.71,58.69 25.24,84.59 -17.89,57.86 -4.8,105.9 36.38,132.4 2.01,1.28 4.29,1.93 6.59,1.93zm39.49 -89.08c-1.41,0 -2.83,0.24 -4.18,0.74 -26.27,9.61 -39.8,24.51 -45.02,51.77 -18.96,-22.4 -22.03,-55.56 -8.35,-95.68 1.24,-3.64 0.68,-7.67 -1.51,-10.84 -15.91,-23.05 -24.31,-49.28 -24.31,-75.84 0,-42.07 20.6,-81.7 57.06,-110.71 37.59,91.37 144.77,153.87 267.44,153.87 14.44,0 28.99,-0.91 43.45,-2.72 -21.89,65.91 -96.15,113.73 -180.71,113.73 -34.84,0 -68.84,-7.95 -98.36,-23 -1.72,-0.87 -3.61,-1.32 -5.51,-1.32z"/>
   </g>
   <path class="fil0" d="M274.83 239.58l81.59 0 107.34 0 14 0 62.98 0c7.73,0 13.99,6.27 13.99,14l0 181.93c0,7.7 -6.22,13.95 -13.91,13.99l-42.08 0 -0 0c-0.02,-0 -0.05,-0 -0.07,-0 -0.02,0 -0.05,0 -0.07,0l-15.46 0c0.39,-7.23 5.96,-13.19 13.23,-13.99 0.39,-0.03 0.79,-0.05 1.19,-0.05 0.4,0 0.8,0.02 1.19,0.05l36.88 0 -108.46 -76.55 -8.61 7c-3.06,2.44 -6.86,3.77 -10.78,3.77 -3.91,0 -7.72,-1.33 -10.78,-3.77l-8.61 -7 -108.46 76.55 55.98 0c0.38,-0 0.76,-0 1.13,-0l166.75 0 6 13.99 -173.29 0 -0.32 -0 -61.36 0c-7.73,0 -13.99,-6.27 -13.99,-14l0 -181.93c0,-7.73 6.27,-13.99 13.99,-13.99l0 -0zm102.16 110.28l-102.16 -81.73 0 153.95 102.16 -72.21zm163.74 -81.73l-102.16 81.73 102.16 72.14 0 -153.88zm-4.2 -14.55l-257.51 0 126.72 101.39c0.58,0.44 1.3,0.68 2.03,0.68 0.73,0 1.45,-0.24 2.03,-0.68l126.72 -101.39z"/>
  </g>
 </g>
</svg>
