<?xml version="1.0" encoding="UTF-8"?>
<!DOCTYPE svg PUBLIC "-//W3C//DTD SVG 1.1//EN" "http://www.w3.org/Graphics/SVG/1.1/DTD/svg11.dtd">
<!-- Creator: CorelDRAW 2019 (64-Bit Evaluation Version) -->
<svg xmlns="http://www.w3.org/2000/svg" xml:space="preserve" width="26mm" height="19.7203mm" version="1.1" style="shape-rendering:geometricPrecision; text-rendering:geometricPrecision; image-rendering:optimizeQuality; fill-rule:evenodd; clip-rule:evenodd"
viewBox="0 0 63.26 47.98"
 xmlns:xlink="http://www.w3.org/1999/xlink"
 xmlns:xodm="http://www.corel.com/coreldraw/odm/2003">
 <defs>
  <style type="text/css">
   <![CDATA[
    .fil0 {fill:black;fill-rule:nonzero}
   ]]>
  </style>
 </defs>
 <g id="Layer_x0020_1">
  <metadata id="CorelCorpID_0Corel-Layer"/>
  <g id="_1626882385696">
   <path class="fil0" d="M0.98 0.01c-0.55,-0 -0.98,0.46 -0.98,1 0,0.01 0,0.02 0,0.03l0 30.63c0,0.55 0.44,0.99 0.99,0.99l29.71 0c0.51,8.54 7.6,15.33 16.26,15.33 9,0 16.32,-7.32 16.31,-16.32 -0.01,-10.04 0,-20.39 0,-30.5 0,-0.03 -0,-0.05 -0,-0.08l0 -0.01 0 -0.01c0.03,-0.57 -0.42,-1.04 -0.99,-1.04 -20.43,-0.09 -40.88,0.12 -61.3,-0.01l0 0zm1 1.99l59.31 0 0 21.88c-2.77,-5.08 -8.15,-8.53 -14.33,-8.53 -8.66,0 -15.74,6.79 -16.26,15.33l-28.72 0 0 -28.68zm4.12 3.13c-1.32,0 -1.32,1.98 0,1.98l51.07 0c1.32,0 1.32,-1.98 0,-1.98l-51.07 0zm0 5.11c-1.32,0 -1.32,1.98 0,1.98l30.64 0c1.32,0 1.32,-1.98 0,-1.98l-30.64 0zm0 5.11c-1.32,0 -1.32,1.98 0,1.98l20.43 0c1.32,0 1.32,-1.98 0,-1.98l-20.43 0zm40.86 1.98c7.93,0 14.33,6.41 14.33,14.34 0,7.93 -6.41,14.34 -14.33,14.34 -7.93,0 -14.33,-6.41 -14.33,-14.34 0,-7.93 6.4,-14.34 14.33,-14.34zm-0.06 2.47c-1.03,0.01 -2.07,0.17 -3.08,0.49 -4.06,1.3 -6.9,4.99 -7.13,9.25 -0.08,1.32 1.91,1.43 1.97,0.11 0.19,-3.45 2.48,-6.42 5.76,-7.47 3.28,-1.05 6.86,0.03 9.02,2.73 2.15,2.7 2.42,6.44 0.68,9.42 -1.54,2.63 -4.36,4.16 -7.34,4.1l1.48 -1.81c0.55,-0.65 0.06,-1.65 -0.79,-1.62 -0.29,0.01 -0.56,0.15 -0.74,0.37l-2.94 3.61c-0.35,0.42 -0.28,1.04 0.14,1.39l3.6 2.95c1.02,0.84 2.27,-0.69 1.25,-1.53l-1.69 -1.39c3.55,-0.04 6.9,-1.92 8.74,-5.07 2.16,-3.68 1.82,-8.32 -0.84,-11.66 -2,-2.5 -5,-3.88 -8.08,-3.87l0 0zm-40.8 5.77c-1.32,0 -1.32,1.98 0,1.98l10.22 0c1.32,0 1.32,-1.98 0,-1.98l-10.22 0z"/>
  </g>
 </g>
</svg>
