<?xml version="1.0" encoding="UTF-8"?>
<!DOCTYPE svg PUBLIC "-//W3C//DTD SVG 1.1//EN" "http://www.w3.org/Graphics/SVG/1.1/DTD/svg11.dtd">
<!-- Creator: CorelDRAW 2019 (64-Bit Evaluation Version) -->
<svg xmlns="http://www.w3.org/2000/svg" xml:space="preserve" width="22.0312mm" height="26mm" version="1.1" style="shape-rendering:geometricPrecision; text-rendering:geometricPrecision; image-rendering:optimizeQuality; fill-rule:evenodd; clip-rule:evenodd"
viewBox="0 0 45.09 53.21"
 xmlns:xlink="http://www.w3.org/1999/xlink"
 xmlns:xodm="http://www.corel.com/coreldraw/odm/2003">
 <defs>
  <style type="text/css">
   <![CDATA[
    .str0 {stroke:black;stroke-width:0.41;stroke-miterlimit:22.9256}
    .fil2 {fill:black}
    .fil1 {fill:white}
    .fil0 {fill:black;fill-rule:nonzero}
   ]]>
  </style>
 </defs>
 <g id="Layer_x0020_1">
  <metadata id="CorelCorpID_0Corel-Layer"/>
  <g id="_1626511814960">
   <g>
    <path class="fil0" d="M17.9 0c-5.78,0 -10.5,4.71 -10.5,10.5 0,5.78 4.71,10.5 10.5,10.5 5.78,0 10.5,-4.71 10.5,-10.5 0,-5.78 -4.71,-10.5 -10.5,-10.5zm0 2.47c4.45,0 8.03,3.58 8.03,8.03 0,4.45 -3.58,8.03 -8.03,8.03 -4.45,0 -8.03,-3.58 -8.03,-8.03 0,-4.45 3.58,-8.03 8.03,-8.03zm0 20.37c-9.85,0 -17.9,7.73 -17.9,17.29 0,0.68 0.55,1.23 1.23,1.23l33.34 0c0.68,0 1.23,-0.55 1.23,-1.23 0,-9.56 -8.06,-17.29 -17.9,-17.29zm0 2.47c8.12,0 14.64,5.99 15.3,13.58l-30.6 0c0.66,-7.59 7.18,-13.58 15.3,-13.58zm-15.43 17.9c-1.35,0 -2.47,1.12 -2.47,2.47l0 4.94c0,1.35 1.12,2.47 2.47,2.47l30.87 0c1.35,0 2.47,-1.12 2.47,-2.47l0 -4.94c0,-1.35 -1.12,-2.47 -2.47,-2.47l-30.87 0zm0 2.47l30.87 0 0 4.94 -30.87 0 0 -4.94zm2.35 1.23c-0.66,0.03 -1.18,0.57 -1.18,1.23 0,0.68 0.55,1.24 1.24,1.24 0.02,0 0.04,-0 0.06,-0l4.94 0c0.01,0 0.01,0 0.02,0 0.68,0 1.23,-0.55 1.23,-1.23 0,-0.68 -0.55,-1.23 -1.23,-1.23 -0.01,0 -0.01,0 -0.02,0l-4.94 0c-0.02,-0 -0.04,-0 -0.06,-0 -0.02,0 -0.04,0 -0.06,0l0 0zm10.5 0c-0.66,0.03 -1.18,0.57 -1.18,1.23 0,0.68 0.55,1.24 1.24,1.24 0.02,0 0.04,-0 0.06,-0l4.94 0c0.01,0 0.01,0 0.02,0 0.68,0 1.23,-0.55 1.23,-1.23 0,-0.68 -0.55,-1.23 -1.23,-1.23 -0.01,0 -0.01,0 -0.02,0l-4.94 0c-0.02,-0 -0.04,-0 -0.06,-0 -0.02,0 -0.04,0 -0.06,0l0 0zm10.5 0c-0.66,0.03 -1.18,0.57 -1.18,1.23 0,0.68 0.55,1.24 1.24,1.24 0.02,0 0.04,-0 0.06,-0l4.94 0c0.01,0 0.01,0 0.02,0 0.68,0 1.23,-0.55 1.23,-1.23 0,-0.68 -0.55,-1.23 -1.23,-1.23 -0.01,0 -0.01,0 -0.02,0l-4.94 0c-0.02,-0 -0.04,-0 -0.06,-0 -0.02,0 -0.04,0 -0.06,0l0 0z"/>
   </g>
   <g>
    <circle class="fil1 str0" cx="36.33" cy="44.45" r="8.22"/>
    <path class="fil0" d="M36.42 38.36c-0.54,0 -1.08,0.09 -1.61,0.26 -2.12,0.68 -3.61,2.61 -3.73,4.84 -0.04,0.69 1,0.75 1.03,0.06 0.1,-1.81 1.3,-3.36 3.02,-3.91 1.72,-0.55 3.6,0.02 4.72,1.43 1.13,1.41 1.27,3.37 0.35,4.93 -0.81,1.38 -2.28,2.18 -3.84,2.15l0.77 -0.95c0.29,-0.34 0.03,-0.86 -0.41,-0.85 -0.15,0 -0.29,0.08 -0.39,0.2l-1.54 1.89c-0.18,0.22 -0.15,0.55 0.07,0.73l1.88 1.54c0.53,0.44 1.19,-0.36 0.66,-0.8l-0.89 -0.73c1.86,-0.02 3.61,-1.01 4.58,-2.65 1.13,-1.93 0.95,-4.36 -0.44,-6.1 -1.05,-1.31 -2.62,-2.03 -4.23,-2.02l0 0z"/>
    <path class="fil2" d="M36.45 53.21c4.77,0 8.64,-3.87 8.64,-8.64 0,-4.77 -3.87,-8.64 -8.64,-8.64 -4.77,0 -8.64,3.87 -8.64,8.64 0,4.77 3.87,8.64 8.64,8.64zm0 -1.17c4.12,0 7.46,-3.34 7.46,-7.46 0,-4.12 -3.34,-7.46 -7.46,-7.46 -4.12,0 -7.46,3.34 -7.46,7.46 0,4.12 3.34,7.46 7.46,7.46z"/>
   </g>
  </g>
 </g>
</svg>
