<?xml version="1.0" encoding="UTF-8"?>
<!DOCTYPE svg PUBLIC "-//W3C//DTD SVG 1.1//EN" "http://www.w3.org/Graphics/SVG/1.1/DTD/svg11.dtd">
<!-- Creator: CorelDRAW 2019 (64-Bit Evaluation Version) -->
<svg xmlns="http://www.w3.org/2000/svg" xml:space="preserve" width="26mm" height="26mm" version="1.1" style="shape-rendering:geometricPrecision; text-rendering:geometricPrecision; image-rendering:optimizeQuality; fill-rule:evenodd; clip-rule:evenodd"
viewBox="0 0 63.27 63.27"
 xmlns:xlink="http://www.w3.org/1999/xlink"
 xmlns:xodm="http://www.corel.com/coreldraw/odm/2003">
 <defs>
  <style type="text/css">
   <![CDATA[
    .str0 {stroke:black;stroke-width:0.49;stroke-miterlimit:22.9256}
    .fil2 {fill:black}
    .fil1 {fill:white}
    .fil0 {fill:black;fill-rule:nonzero}
   ]]>
  </style>
 </defs>
 <g id="Layer_x0020_1">
  <metadata id="CorelCorpID_0Corel-Layer"/>
  <g id="_1626874075056">
   <path class="fil0" d="M27.05 0c-14.92,0 -27.05,12.13 -27.05,27.05 0,14.92 12.13,27.05 27.05,27.05 14.92,0 27.05,-12.13 27.05,-27.05 0,-14.92 -12.13,-27.05 -27.05,-27.05zm17.54 41.51l-7.23 -7.17c-0.74,1.25 -1.59,2.45 -2.56,3.53l6.72 6.72c-4.1,3.36 -9.22,5.24 -14.46,5.24 -12.53,0 -22.78,-10.19 -22.78,-22.72 0,-5.24 1.88,-10.36 5.24,-14.46l4.84 4.84c0.68,-0.97 1.77,-1.65 2.96,-1.77 0.4,-0.06 0.8,-0.06 1.2,-0.17l-5.92 -6.04c4.1,-3.36 9.22,-5.24 14.46,-5.24 12.53,0 22.72,10.19 22.72,22.78 0,5.24 -1.82,10.36 -5.18,14.46z"/>
   <path class="fil0" d="M36.5 18.51c-3.07,-0.23 -5.92,-1.54 -8.09,-3.7l-0.57 -0.57c-0.23,-0.23 -0.51,-0.34 -0.85,-0.34 -0.28,0 -0.63,0.11 -0.85,0.34l-0.57 0.57c-2.16,2.16 -5.01,3.47 -8.09,3.7 -0.63,0.06 -1.08,0.57 -1.08,1.14l0 3.36c0,7.06 3.81,13.61 9.96,17.08 0.17,0.11 0.4,0.17 0.57,0.17 0.17,0 0.4,-0.06 0.57,-0.17 6.15,-3.47 9.96,-10.02 9.96,-17.08l0 -3.36c0.11,-0.63 -0.34,-1.14 -0.97,-1.14z"/>
   <g>
    <circle class="fil1 str0" cx="48.07" cy="48.07" r="14.25"/>
    <path class="fil0" d="M48.23 37.5c-0.93,0.01 -1.88,0.15 -2.8,0.45 -3.68,1.18 -6.26,4.53 -6.47,8.4 -0.07,1.2 1.73,1.3 1.79,0.1 0.17,-3.13 2.25,-5.83 5.23,-6.79 2.98,-0.96 6.24,0.03 8.19,2.48 1.96,2.45 2.2,5.85 0.62,8.55 -1.4,2.39 -3.96,3.78 -6.66,3.72l1.34 -1.64c0.5,-0.59 0.06,-1.5 -0.72,-1.47 -0.26,0.01 -0.51,0.13 -0.68,0.34l-2.67 3.27c-0.31,0.38 -0.26,0.95 0.13,1.26l3.27 2.68c0.93,0.76 2.07,-0.63 1.14,-1.39l-1.54 -1.26c3.23,-0.04 6.27,-1.75 7.94,-4.6 1.96,-3.34 1.66,-7.56 -0.76,-10.59 -1.81,-2.27 -4.54,-3.53 -7.34,-3.51l0 0z"/>
    <path class="fil2" d="M48.29 63.27c8.27,0 14.98,-6.71 14.98,-14.98 0,-8.27 -6.71,-14.98 -14.98,-14.98 -8.27,0 -14.98,6.71 -14.98,14.98 0,8.27 6.71,14.98 14.98,14.98zm0 -2.04c7.15,0 12.94,-5.79 12.94,-12.94 0,-7.15 -5.79,-12.94 -12.94,-12.94 -7.15,0 -12.94,5.79 -12.94,12.94 0,7.15 5.79,12.94 12.94,12.94z"/>
   </g>
  </g>
 </g>
</svg>
