<?xml version="1.0" encoding="UTF-8"?>
<!DOCTYPE svg PUBLIC "-//W3C//DTD SVG 1.1//EN" "http://www.w3.org/Graphics/SVG/1.1/DTD/svg11.dtd">
<!-- Creator: CorelDRAW 2019 (64-Bit Evaluation Version) -->
<svg xmlns="http://www.w3.org/2000/svg" xml:space="preserve" width="25.9981mm" height="26mm" version="1.1" style="shape-rendering:geometricPrecision; text-rendering:geometricPrecision; image-rendering:optimizeQuality; fill-rule:evenodd; clip-rule:evenodd"
viewBox="0 0 63.26 63.26"
 xmlns:xlink="http://www.w3.org/1999/xlink"
 xmlns:xodm="http://www.corel.com/coreldraw/odm/2003">
 <defs>
  <style type="text/css">
   <![CDATA[
    .fil0 {fill:black;fill-rule:nonzero}
   ]]>
  </style>
 </defs>
 <g id="Layer_x0020_1">
  <metadata id="CorelCorpID_0Corel-Layer"/>
  <g id="_1627247711296">
   <g>
    <g>
     <path class="fil0" d="M61.63 19.91c-2.17,-2.17 -5.7,-2.17 -7.86,0 -0.67,0.67 -4.93,4.93 -5.58,5.58l0 -14.69c0,-1.49 -0.58,-2.88 -1.63,-3.93l-5.24 -5.24c-1.05,-1.05 -2.45,-1.63 -3.93,-1.63l-31.82 0c-3.07,0 -5.56,2.49 -5.56,5.56l0 52.14c0,3.07 2.49,5.56 5.56,5.56l37.07 0c3.07,0 5.56,-2.49 5.56,-5.56l0 -16.48 13.44 -13.45c2.17,-2.17 2.17,-5.69 0,-7.86zm-24.56 -16.2c0.35,0 1.02,-0.06 1.63,0.54l5.24 5.24c0.59,0.59 0.54,1.23 0.54,1.63l-7.41 0 0 -7.41zm7.41 53.99c0,1.02 -0.83,1.85 -1.85,1.85l-37.07 0c-1.02,0 -1.85,-0.83 -1.85,-1.85l0 -52.14c0,-1.02 0.83,-1.85 1.85,-1.85l27.8 0 0 9.27c0,1.02 0.83,1.85 1.85,1.85l9.27 0 0 14.37c0,0 -5.47,5.47 -5.47,5.47l-2.62 2.62c-0.2,0.2 -0.36,0.45 -0.45,0.72l-2.62 7.86c-0.22,0.67 -0.05,1.4 0.45,1.9 0.5,0.5 1.23,0.67 1.9,0.45l7.86 -2.62c0.27,-0.09 0.52,-0.24 0.72,-0.45l0.22 -0.22 0 12.77zm-4.16 -19.1l2.62 2.62 -1 1 -3.93 1.31 1.31 -3.93 1 -1zm5.24 -0l-2.62 -2.62c1.4,-1.4 7.59,-7.6 8.91,-8.92l2.62 2.62 -8.91 8.92zm13.44 -13.45l-1.91 1.91 -2.62 -2.62 1.91 -1.91c0.72,-0.72 1.9,-0.72 2.62,0 0.72,0.72 0.73,1.89 -0,2.62z"/>
    </g>
   </g>
   <g>
    <g>
     <path class="fil0" d="M35.21 18.53l-25.95 0c-1.02,0 -1.85,0.83 -1.85,1.85 0,1.02 0.83,1.85 1.85,1.85l25.95 0c1.02,0 1.85,-0.83 1.85,-1.85 0,-1.02 -0.83,-1.85 -1.85,-1.85z"/>
    </g>
   </g>
   <g>
    <g>
     <path class="fil0" d="M27.8 25.95l-18.53 0c-1.02,0 -1.85,0.83 -1.85,1.85 0,1.02 0.83,1.85 1.85,1.85l18.53 0c1.02,0 1.85,-0.83 1.85,-1.85 0,-1.02 -0.83,-1.85 -1.85,-1.85z"/>
    </g>
   </g>
   <g>
    <g>
     <path class="fil0" d="M27.8 33.36l-18.53 0c-1.02,0 -1.85,0.83 -1.85,1.85 0,1.02 0.83,1.85 1.85,1.85l18.53 0c1.02,0 1.85,-0.83 1.85,-1.85 0,-1.02 -0.83,-1.85 -1.85,-1.85z"/>
    </g>
   </g>
   <g>
    <g>
     <path class="fil0" d="M27.8 40.77l-18.53 0c-1.02,0 -1.85,0.83 -1.85,1.85 0,1.02 0.83,1.85 1.85,1.85l18.53 0c1.02,0 1.85,-0.83 1.85,-1.85 0,-1.02 -0.83,-1.85 -1.85,-1.85z"/>
    </g>
   </g>
   <g>
    <g>
     <path class="fil0" d="M35.21 52.14l-11.12 0c-1.02,0 -1.85,0.83 -1.85,1.85 0,1.02 0.83,1.85 1.85,1.85l11.12 0c1.02,0 1.85,-0.83 1.85,-1.85 0,-1.02 -0.83,-1.85 -1.85,-1.85z"/>
    </g>
   </g>
  </g>
 </g>
</svg>
