<?xml version="1.0" encoding="UTF-8"?>
<!DOCTYPE svg PUBLIC "-//W3C//DTD SVG 1.1//EN" "http://www.w3.org/Graphics/SVG/1.1/DTD/svg11.dtd">
<!-- Creator: CorelDRAW 2019 (64-Bit Evaluation Version) -->
<svg xmlns="http://www.w3.org/2000/svg" xml:space="preserve" width="18.4664mm" height="25.6972mm" version="1.1" style="shape-rendering:geometricPrecision; text-rendering:geometricPrecision; image-rendering:optimizeQuality; fill-rule:evenodd; clip-rule:evenodd"
viewBox="0 0 31.59 43.96"
 xmlns:xlink="http://www.w3.org/1999/xlink"
 xmlns:xodm="http://www.corel.com/coreldraw/odm/2003">
 <defs>
  <style type="text/css">
   <![CDATA[
    .fil1 {fill:black}
    .fil2 {fill:white}
    .fil0 {fill:black;fill-rule:nonzero}
   ]]>
  </style>
 </defs>
 <g id="Layer_x0020_1">
  <metadata id="CorelCorpID_0Corel-Layer"/>
  <g id="_1626510344480">
   <g>
    <path class="fil0" d="M1.48 21.3l0.04 -0.17 0.09 -8.77c0.03,-0.91 0.77,-1.63 1.68,-1.63 0.01,0 0.02,0 0.03,0l0.01 0c0,0 0,0 0,0 0.44,0 0.85,0.17 1.16,0.48 0.22,0.23 0.37,0.52 0.43,0.83 0,0.02 0.03,0.25 0.03,0.34l-0.08 9.74c0.44,-0.35 0.9,-0.68 1.38,-0.98l0.08 -14.93c0.03,-0.91 0.77,-1.63 1.68,-1.63 0.01,0 0.02,0 0.03,0l0.01 0c0.32,0 1.89,0.09 1.89,1.64l-0.13 13.41c0.45,-0.11 0.91,-0.21 1.38,-0.27l0.16 -16.36c0.03,-0.91 0.77,-1.63 1.68,-1.63 0.01,0 0.02,0 0.03,0l0.01 0c0,0 0,0 0,0 0.46,0 0.89,0.18 1.22,0.51 0.3,0.3 0.46,0.7 0.46,1.12 0,0 0,0.01 0,0.01l-0.16 16.3c0.46,0.05 0.92,0.13 1.37,0.24l0.11 -11.64c0.01,-0.84 0.96,-1.62 1.95,-1.62l0.01 0c0,0 0,0 0,0 0.46,0 0.89,0.18 1.22,0.51 0.3,0.3 0.46,0.7 0.46,1.12 0,0 0,0.01 0,0.02l-0.13 13.05c0.47,0.28 0.93,0.58 1.36,0.91l0.14 -13.95c-0,-0.01 0,-0.02 0,-0.03 0,-0.78 -0.31,-1.53 -0.86,-2.08 -0.58,-0.59 -1.37,-0.92 -2.19,-0.92 -0.7,0 -1.38,0.21 -1.95,0.6l0.02 -2.49c0,-0.01 0,-0.02 0,-0.03 0,-0.78 -0.31,-1.53 -0.86,-2.08 -0.58,-0.59 -1.37,-0.92 -2.19,-0.92l-0.02 -0c-0.01,0 -0.02,0 -0.02,0 -1.66,0 -3.02,1.33 -3.06,2.99l-0.01 0.73c-0.56,-0.34 -1.21,-0.52 -1.86,-0.52 -0.01,0 -0.03,0 -0.04,0l-0.02 -0c-0.01,-0 -0.02,-0 -0.02,-0 -1.66,0 -3.02,1.33 -3.06,2.99l-0.03 3.62c-0.48,-0.3 -1.04,-0.47 -1.6,-0.47l-0.02 0c-0.01,-0 -0.02,-0 -0.02,-0 -1.66,0 -3.02,1.33 -3.06,2.99l-0.08 8.62 -0.03 0.14c-0.02,0.15 -0.41,3.73 0.36,6.74l0.16 0.43c0.24,-0.74 0.55,-1.46 0.91,-2.14 -0.11,-0.9 -0.16,-1.82 -0.16,-2.73 0,-0.7 0.03,-1.41 0.1,-2.11l0 0z"/>
    <path class="fil0" d="M30.76 15.51c-0.55,-0.5 -1.27,-0.78 -2.02,-0.78 -0.08,0 -0.17,0 -0.25,0.01 -1.27,0.08 -2.55,0.84 -3.63,2.16l-3.79 5.09c0.36,0.28 0.71,0.59 1.04,0.9l3.83 -5.15c0.81,-0.98 1.77,-1.58 2.64,-1.64 0.05,-0.01 0.11,-0.01 0.17,-0.01 0.4,0 0.78,0.15 1.08,0.41 0.91,0.84 0.17,2.98 -1.97,5.71 -1.28,1.59 -2.17,3.46 -2.6,5.45 0.35,0.94 0.6,1.93 0.73,2.93 0.15,-0.48 0.28,-0.97 0.37,-1.47 0.43,-2.3 0.99,-4.02 2.58,-6.06 2.75,-3.51 3.38,-6.12 1.82,-7.57z"/>
    <path class="fil1" d="M4.79 40.53c4.56,4.56 11.96,4.56 16.52,0 4.56,-4.56 4.56,-11.96 0,-16.52 -4.56,-4.56 -11.96,-4.56 -16.52,0 -4.56,4.56 -4.56,11.96 0,16.52zm1.41 -15.92l14.5 14.5c3.61,-4.03 3.48,-10.24 -0.39,-14.11 -3.88,-3.88 -10.08,-4.01 -14.11,-0.39zm13.7 15.31l-14.5 -14.5c-3.61,4.03 -3.48,10.24 0.39,14.11 3.88,3.88 10.08,4.01 14.11,0.39z"/>
   </g>
   <g>
    <circle class="fil2" cx="12.93" cy="32.16" r="10.82"/>
    <g>
     <path class="fil0" d="M12.93 20.51c-6.43,0 -11.65,5.22 -11.65,11.65 0,6.43 5.22,11.65 11.65,11.65 6.43,0 11.65,-5.22 11.65,-11.65 0,-6.43 -5.22,-11.65 -11.65,-11.65zm7.55 17.88l-3.11 -3.09c-0.32,0.54 -0.69,1.05 -1.1,1.52l2.89 2.89c-1.77,1.45 -3.97,2.26 -6.23,2.26 -5.4,0 -9.81,-4.39 -9.81,-9.79 0,-2.26 0.81,-4.46 2.26,-6.23l2.08 2.08c0.29,-0.42 0.76,-0.71 1.28,-0.76 0.17,-0.02 0.34,-0.02 0.52,-0.07l-2.55 -2.6c1.77,-1.45 3.97,-2.26 6.23,-2.26 5.4,0 9.79,4.39 9.79,9.81 0,2.26 -0.78,4.46 -2.23,6.23z"/>
     <path class="fil0" d="M17 28.48c-1.32,-0.1 -2.55,-0.66 -3.48,-1.59l-0.25 -0.25c-0.1,-0.1 -0.22,-0.15 -0.37,-0.15 -0.12,0 -0.27,0.05 -0.37,0.15l-0.25 0.25c-0.93,0.93 -2.16,1.5 -3.48,1.59 -0.27,0.02 -0.47,0.25 -0.47,0.49l0 1.45c0,3.04 1.64,5.86 4.29,7.36 0.07,0.05 0.17,0.07 0.25,0.07 0.07,0 0.17,-0.02 0.25,-0.07 2.65,-1.5 4.29,-4.32 4.29,-7.36l0 -1.45c0.05,-0.27 -0.15,-0.49 -0.42,-0.49z"/>
    </g>
   </g>
  </g>
 </g>
</svg>
