<?xml version="1.0" encoding="UTF-8"?>
<!DOCTYPE svg PUBLIC "-//W3C//DTD SVG 1.1//EN" "http://www.w3.org/Graphics/SVG/1.1/DTD/svg11.dtd">
<!-- Creator: CorelDRAW 2019 (64-Bit Evaluation Version) -->
<svg xmlns="http://www.w3.org/2000/svg" xml:space="preserve" width="670.983mm" height="161.551mm" version="1.1" style="shape-rendering:geometricPrecision; text-rendering:geometricPrecision; image-rendering:optimizeQuality; fill-rule:evenodd; clip-rule:evenodd"
viewBox="0 0 16069.68 3869.06"
 xmlns:xlink="http://www.w3.org/1999/xlink"
 xmlns:xodm="http://www.corel.com/coreldraw/odm/2003">
 <defs>
  <style type="text/css">
   <![CDATA[
    .fil0 {fill:#1B3D5E}
    .fil2 {fill:white;fill-opacity:0.050980}
    .fil1 {fill:white;fill-rule:nonzero;fill-opacity:0.050980}
   ]]>
  </style>
 </defs>
 <g id="Layer_x0020_1">
  <metadata id="CorelCorpID_0Corel-Layer"/>
  <rect class="fil0" x="-0.01" y="-0.01" width="16069.68" height="3869.06"/>
  <g id="_1626926269056">
   <path class="fil1" d="M2291.4 586.59c0.08,-0.77 0.13,-1.55 0.13,-2.33 0,-0.77 -0.05,-1.56 -0.13,-2.33 -0.08,-0.77 0,-1.08 0,-1.61 -0.86,-1.89 -2.01,-3.65 -3.4,-5.19l0 0 -256.62 -254.83 0 0c-1.42,-1.5 -3.13,-2.72 -5.02,-3.58l-1.61 0c-1.49,-0.54 -3.07,-0.84 -4.66,-0.89l-1.25 0 -446.44 -0c-29.66,0 -53.72,24.06 -53.72,53.72l0 352.61c-20.56,11.44 -42.91,19.47 -66.07,23.64 -71.63,12.71 -117.65,69.13 -133.41,90.79l-12.72 -0 0 -0.9c0,-19.78 -16.04,-35.81 -35.82,-35.81l-125.35 -0c-19.78,0 -35.82,16.04 -35.82,35.82l0 255.72c0,19.78 16.04,35.82 35.82,35.82l125.35 0c19.78,0 35.82,-16.04 35.82,-35.82l0 0 26.15 0c43.14,27.8 93.21,43.34 144.52,44.78 14.23,-0.01 28.52,-1.54 42.44,-4.49l0 103.51c-0,29.67 24.05,53.73 53.72,53.73l664.38 0c29.66,0 53.72,-24.06 53.72,-53.72l0 -647.54c0,0 0,-1.07 0,-1.07zm-254.83 -210.42l193.76 193.58 -175.85 0c-9.89,0 -17.91,-8.02 -17.91,-17.91l0 -175.68zm-765.92 715.24l-125.35 0 0 -255.72 125.35 0 0 255.72zm77.9 -33.49c-3,-2.1 -6.59,-3.23 -10.25,-3.23 -0.1,0 -0.21,0 -0.31,0l-31.52 0 0 -181.58 23.1 0c0.01,0 0.03,0 0.04,0 6.17,0 11.91,-3.18 15.19,-8.42 3.27,-5.23 44.05,-70.2 115.15,-83.09 40.33,-6.89 78.33,-23.95 110.3,-49.43l85.06 -69.13c12.6,10.2 20.33,25.22 21.32,41.38 0,26.68 -27.22,56.41 -77.36,85.96 -5.22,3.09 -8.53,8.62 -8.77,14.68 -6.26,63.66 -47.11,118.76 -106.19,143.27 -4.76,3.35 -7.58,8.81 -7.58,14.62 0,9.89 8.02,17.91 17.91,17.91 1.1,0 2.2,-0.1 3.28,-0.3 7.34,-3.4 14.15,-6.98 20.77,-10.56l0 124.46c-86.85,21.85 -170.3,-35.81 -171.02,-36.53l0.89 0zm889.12 194.3l-665.27 0c-9.89,0 -17.91,-8.02 -17.91,-17.91l0 -289.57c37.91,-33.09 62.74,-78.75 69.84,-128.59 57.48,-35.82 86.85,-73.06 87.21,-111.75 0,-49.24 -46.02,-78.61 -47.99,-79.87 -2.79,-1.68 -6.01,-2.58 -9.28,-2.58 -4.12,0 -8.12,1.42 -11.31,4.02l-88.46 71.63 0 -328.97c0,-9.89 8.02,-17.91 17.91,-17.91l428.35 0 0 201.11c-0,29.66 24.06,53.72 53.72,53.72l201.1 -0 0 628.74c0,9.89 -8.02,17.91 -17.91,17.91l0 0z"/>
   <path class="fil1" d="M1923.03 438.31c0,-9.89 -8.02,-17.91 -17.91,-17.91l-262.71 0c-9.89,0 -17.91,8.02 -17.91,17.91 0,9.89 8.02,17.91 17.91,17.91l262.71 0c9.89,0 17.91,-8.02 17.91,-17.91z"/>
   <path class="fil1" d="M1943.09 552.92c0,-9.89 -8.02,-17.91 -17.91,-17.91l-262.71 0c-9.89,0 -17.91,8.02 -17.91,17.91 0,9.89 8.02,17.91 17.91,17.91l262.71 0c9.89,0 17.91,-8.02 17.91,-17.91z"/>
   <path class="fil1" d="M2125.75 799.51l-262.53 0c-9.89,0 -17.91,8.02 -17.91,17.91 0,9.89 8.02,17.91 17.91,17.91l262.53 0c9.89,0 17.91,-8.02 17.91,-17.91 0,-9.89 -8.02,-17.91 -17.91,-17.91l0 0z"/>
   <path class="fil1" d="M2125.75 951.55l-441.6 0c-9.89,0 -17.91,8.02 -17.91,17.91 0,9.89 8.02,17.91 17.91,17.91l441.6 0c9.89,0 17.91,-8.02 17.91,-17.91 0,-9.89 -8.02,-17.91 -17.91,-17.91l0 0z"/>
   <path class="fil1" d="M2125.75 1103.41l-441.6 0c-9.89,0 -17.91,8.02 -17.91,17.91 0,9.89 8.02,17.91 17.91,17.91l441.6 0c9.89,0 17.91,-8.02 17.91,-17.91 0,-9.89 -8.02,-17.91 -17.91,-17.91l0 0z"/>
  </g>
  <g id="_1626926270848">
   <path class="fil1" d="M7776.21 2868.67c-4.85,0 -9.32,2.58 -11.74,6.78 -2.42,4.18 -2.42,9.35 0,13.55l62.51 108.47c2.42,4.2 6.9,6.79 11.75,6.79 4.84,0 9.32,-2.58 11.74,-6.78l62.64 -108.47c2.42,-4.2 2.42,-9.36 0,-13.56 -2.42,-4.2 -6.9,-6.78 -11.74,-6.78l-19.81 0 0 -80.35c0,-23.61 -19.21,-42.82 -42.83,-42.82l-209.65 0 0 27.12 209.65 0c8.67,0 15.72,7.04 15.72,15.7l0 80.35 -31.29 0 0 -51.2c0,-7.5 -6.07,-13.56 -13.56,-13.56l-180.52 0 0 27.12 166.96 0 0 37.65 -19.82 0zm62.52 94.9l-39.06 -67.78 78.2 0 -39.14 67.78z"/>
   <path class="fil1" d="M7339.11 3313.68l19.86 0c4.84,0 9.32,-2.58 11.74,-6.78 2.42,-4.2 2.42,-9.36 0,-13.56l-62.62 -108.45c-4.85,-8.4 -18.64,-8.4 -23.49,0l-62.62 108.45c-2.42,4.2 -2.42,9.36 0,13.56 2.42,4.2 6.9,6.78 11.74,6.78l19.88 0 0 80.37c0,23.57 19.17,42.76 42.74,42.76l209.7 0 0 -27.12 -209.7 0c-8.62,0 -15.62,-7.02 -15.62,-15.64l0 -80.37 31.26 0 0 51.19c0,7.5 6.07,13.56 13.56,13.56l180.51 0 0 -27.12 -166.95 0 0 -37.63zm-81.88 -27.12l39.13 -67.77 39.13 67.77c-32.26,0 -52.86,0 -78.26,0z"/>
   <path class="fil1" d="M7934.67 3174.51l35.67 0 0 -98.7 -287.35 0 0 98.7 35.67 0 0 64.45 -133.78 0 0 300.16c272.99,0 205.73,0 483.58,0l0 -300.16 -133.79 0 0 -64.45zm-224.56 -27.12l0 -44.46 233.11 0 0 44.46c-100.31,0 -134.85,0 -233.11,0zm8.55 364.6l-106.66 0 0 -245.92 106.66 0 0 245.92zm77.95 0l0 -126.22 16.5 0 0 126.22 -16.5 0zm43.62 0l0 -126.22 16.5 0 0 126.22 -16.5 0zm67.32 0l-23.7 0 0 -153.34 -114.35 0 0 153.33 -23.72 0c0,-205.07 0,-217.71 0,-337.48l161.77 0 0 64.45 0 273.04zm133.79 -245.92l0 245.92 -106.67 0 0 -245.92 106.67 0z"/>
   <polygon class="fil1" points="7629.07,3324.16 7701.6,3324.16 7701.6,3297.04 7629.07,3297.04 "/>
   <polygon class="fil1" points="7629.07,3382.22 7701.6,3382.22 7701.6,3355.1 7629.07,3355.1 "/>
   <polygon class="fil1" points="7629.07,3440.3 7701.6,3440.3 7701.6,3413.18 7629.07,3413.18 "/>
   <polygon class="fil1" points="7951.74,3324.16 8024.27,3324.16 8024.27,3297.04 7951.74,3297.04 "/>
   <polygon class="fil1" points="7951.74,3382.22 8024.27,3382.22 8024.27,3355.1 7951.74,3355.1 "/>
   <polygon class="fil1" points="7951.74,3440.3 8024.27,3440.3 8024.27,3413.18 7951.74,3413.18 "/>
   <polygon class="fil1" points="7783.06,3223.8 7809.55,3223.8 7809.55,3196.68 7783.06,3196.68 "/>
   <polygon class="fil1" points="7841,3223.8 7867.5,3223.8 7867.5,3196.68 7841,3196.68 "/>
   <polygon class="fil1" points="7783.06,3266.08 7809.55,3266.08 7809.55,3238.96 7783.06,3238.96 "/>
   <polygon class="fil1" points="7841,3266.08 7867.5,3266.08 7867.5,3238.96 7841,3238.96 "/>
   <polygon class="fil1" points="7809.73,3308.56 7809.38,3281.44 7782.9,3281.78 7783.24,3308.9 "/>
   <polygon class="fil1" points="7867.66,3307.82 7867.31,3280.7 7840.83,3281.04 7841.18,3308.16 "/>
   <path class="fil1" d="M7525.6 2663.57l-229.26 0c-2.72,0 -7.03,1.42 -9.59,3.97l-82.11 82.11c-2.72,2.72 -3.97,7.23 -3.97,9.59l0 313.5c0,7.49 6.06,13.56 13.56,13.56l311.37 0c7.5,0 13.56,-6.07 13.56,-13.56l0 -395.61c0,-7.5 -6.07,-13.56 -13.56,-13.56zm-242.82 46.29l0 35.82 -35.82 0 35.82 -35.82zm229.26 349.32l-284.25 0 0 -286.39 68.55 0c7.49,0 13.56,-6.06 13.56,-13.56l0 -68.55 202.14 0 0 368.5z"/>
   <polygon class="fil1" points="7267.19,3033.27 7472.63,3033.27 7472.63,3006.15 7267.19,3006.15 "/>
   <polygon class="fil1" points="7332.73,2979.61 7472.63,2979.61 7472.63,2952.5 7332.73,2952.5 "/>
   <polygon class="fil1" points="7332.73,2925.96 7472.63,2925.96 7472.63,2898.84 7332.73,2898.84 "/>
   <polygon class="fil1" points="7332.73,2872.32 7472.63,2872.32 7472.63,2845.2 7332.73,2845.2 "/>
   <polygon class="fil1" points="7267.19,2979.61 7304.59,2979.61 7304.59,2952.5 7267.19,2952.5 "/>
   <polygon class="fil1" points="7267.19,2925.96 7304.59,2925.96 7304.59,2898.84 7267.19,2898.84 "/>
   <polygon class="fil1" points="7267.19,2872.32 7304.59,2872.32 7304.59,2845.2 7267.19,2845.2 "/>
   <polygon class="fil1" points="7267.19,2818.67 7472.63,2818.67 7472.63,2791.55 7267.19,2791.55 "/>
   <polygon class="fil1" points="7347.63,2765.01 7472.63,2765.01 7472.63,2737.9 7347.63,2737.9 "/>
  </g>
  <g id="_1626926293376">
   <path class="fil1" d="M10876.45 2767.47c-7.25,-0.05 -13.05,6.05 -12.96,13.3 -0,0.12 -0,0.25 0,0.38l0 406.56c0,7.25 5.88,13.13 13.13,13.13l394.32 0c6.84,113.34 100.82,203.47 215.81,203.47 119.42,0 216.65,-97.13 216.53,-216.6 -0.13,-133.22 0,-270.61 0,-404.92 0,-0.36 -0.01,-0.73 -0.03,-1.09l0 -0.13 0 -0.11c0.39,-7.5 -5.58,-13.8 -13.09,-13.81 -271.17,-1.15 -542.71,1.54 -813.7,-0.17l0 0zm13.3 26.42l787.28 0 0 290.47c-36.73,-67.42 -108.24,-113.25 -190.27,-113.25 -114.99,0 -208.97,90.13 -215.81,203.47l-381.2 0 0 -380.68zm54.66 41.57c-17.49,0.01 -17.49,26.24 0,26.25l677.96 0c17.49,0 17.49,-26.24 0,-26.25l-677.96 0zm0 67.82c-17.5,0 -17.5,26.25 0,26.25l406.77 0c17.5,0 17.5,-26.25 0,-26.25l-406.77 0zm0 67.82c-17.5,0 -17.5,26.25 0,26.25l271.19 0c17.5,0 17.5,-26.25 0,-26.25l-271.19 0zm542.34 26.25c105.23,0 190.27,85.06 190.27,190.34 0,105.28 -85.05,190.34 -190.27,190.34 -105.23,0 -190.24,-85.06 -190.24,-190.34 0,-105.28 85.01,-190.34 190.24,-190.34zm-0.82 32.78c-13.66,0.12 -27.42,2.21 -40.89,6.53 -53.84,17.29 -91.53,66.19 -94.62,122.76 -1.04,17.58 25.32,19.03 26.19,1.44 2.51,-45.78 32.86,-85.18 76.44,-99.17 43.57,-13.99 91.13,0.41 119.72,36.2 28.59,35.79 32.16,85.44 8.99,124.98 -20.44,34.88 -57.88,55.27 -97.39,54.42l19.59 -24c7.26,-8.69 0.85,-21.87 -10.46,-21.54 -3.86,0.12 -7.48,1.93 -9.88,4.96l-39.04 47.86c-4.58,5.61 -3.76,13.87 1.85,18.46l47.76 39.11c13.54,11.1 30.18,-9.21 16.65,-20.3l-22.46 -18.39c47.19,-0.58 91.56,-25.52 116.02,-67.28 28.62,-48.86 24.19,-110.49 -11.14,-154.72 -26.5,-33.17 -66.34,-51.52 -107.31,-51.31l0 0zm-541.53 76.61c-17.5,0 -17.5,26.26 0,26.26l135.61 0c17.5,0 17.5,-26.26 0,-26.26l-135.61 0z"/>
  </g>
  <g id="_1626926296512">
   <path class="fil1" d="M13277.96 727.86l0.65 -2.81 1.43 -145.67c0.45,-15.08 12.81,-27.09 27.9,-27.09 0.14,0 0.3,0 0.44,0l0.18 0c0.02,0 0.05,0 0.07,0 7.24,0 14.18,2.89 19.27,8.03 3.7,3.77 6.21,8.56 7.2,13.75 0.04,0.39 0.56,4.14 0.54,5.69l-1.28 161.71c7.26,-5.87 14.99,-11.31 22.93,-16.2l1.37 -247.91c0.45,-15.08 12.81,-27.08 27.9,-27.08 0.15,0 0.3,0 0.45,0l0.18 0c5.24,0.03 31.36,1.49 31.35,27.31l-2.18 222.66c7.48,-1.89 15.17,-3.44 22.84,-4.51l2.66 -271.6c0.45,-15.08 12.81,-27.07 27.9,-27.07 0.15,0 0.3,0 0.44,0l0.18 0c0,0 0.02,0 0.03,0 7.58,0 14.86,3.04 20.18,8.44 4.93,4.95 7.7,11.65 7.7,18.64 0,0.08 0,0.17 0,0.25l-2.65 270.67c7.62,0.89 15.27,2.23 22.76,3.94l1.89 -193.26c0.14,-13.9 15.88,-26.95 32.45,-26.95l0.2 0c0,0 0.02,0 0.03,0 7.58,0 14.85,3.04 20.17,8.43 4.93,4.95 7.7,11.66 7.7,18.64 0,0.08 0,0.17 0,0.26l-2.12 216.73c7.82,4.57 15.46,9.67 22.65,15.16l2.26 -231.67c-0,-0.17 0,-0.36 0,-0.54 0,-12.95 -5.13,-25.39 -14.25,-34.58 -9.57,-9.73 -22.67,-15.23 -36.32,-15.24 -11.55,0.03 -22.84,3.53 -32.4,10.02l0.41 -41.4c0,-0.17 0,-0.35 0,-0.53 0,-12.95 -5.12,-25.39 -14.25,-34.58 -9.57,-9.73 -22.66,-15.23 -36.32,-15.25l-0.33 0c-0.13,-0 -0.27,-0 -0.4,-0 -27.6,0 -50.15,22.07 -50.74,49.65l-0.12 12.14c-9.32,-5.61 -20.01,-8.59 -30.89,-8.59 -0.24,0 -0.5,0.01 -0.73,0.01l-0.33 -0c-0.13,-0 -0.26,-0 -0.39,-0 -27.6,0 -50.15,22.07 -50.75,49.66l-0.55 60.11c-7.96,-5.03 -17.19,-7.73 -26.6,-7.76l-0.33 0c-0.13,-0 -0.26,-0 -0.39,-0 -27.61,0 -50.15,22.07 -50.74,49.67l-1.4 143.16 -0.47 2.36c-0.28,2.51 -6.8,61.96 5.91,111.91l2.65 7.13c3.96,-12.29 9.06,-24.23 15.13,-35.59 -1.81,-14.94 -2.73,-30.16 -2.73,-45.25 0,-11.67 0.56,-23.44 1.62,-35.01l0.01 0z"/>
   <path class="fil1" d="M13764.1 631.71c-9.16,-8.32 -21.12,-12.95 -33.51,-12.95 -1.41,0 -2.82,0.06 -4.22,0.18 -21.03,1.41 -42.34,14 -60.34,35.89l-62.9 84.58c6.01,4.68 11.79,9.72 17.26,15l63.59 -85.53c13.42,-16.31 29.43,-26.22 43.91,-27.19 0.91,-0.09 1.83,-0.14 2.75,-0.14 6.62,0 13.01,2.45 17.94,6.86 15.08,14.02 2.85,49.49 -32.71,94.89 -21.2,26.41 -35.97,57.45 -43.13,90.55 5.87,15.66 9.96,32 12.06,48.58 2.54,-7.98 4.6,-16.17 6.18,-24.42 7.08,-38.13 16.36,-66.81 42.85,-100.64 45.59,-58.22 56.07,-101.67 30.27,-125.66z"/>
   <path class="fil2" d="M13333 1047.28c75.74,75.74 198.55,75.74 274.3,0 75.75,-75.74 75.75,-198.56 0,-274.3 -75.74,-75.74 -198.55,-75.74 -274.3,0 -75.75,75.74 -75.75,198.56 0,274.3zm23.44 -264.27l240.83 240.83c60.01,-66.97 57.84,-169.95 -6.52,-234.31 -64.35,-64.35 -167.34,-66.52 -234.31,-6.52zm227.41 254.24l-240.83 -240.83c-60.01,66.97 -57.84,169.95 6.52,234.31 64.35,64.35 167.34,66.52 234.31,6.52z"/>
  </g>
  <g id="_1626926296384">
   <path class="fil1" d="M15172.72 848.28c-100.26,0 -181.97,81.73 -181.97,181.97 0,100.26 81.71,181.99 181.97,181.99 100.25,0 181.97,-81.73 181.97,-181.99 0,-100.25 -81.73,-181.97 -181.97,-181.97zm0 42.83c77.1,0 139.16,62.04 139.16,139.14 0,77.12 -62.06,139.17 -139.16,139.17 -77.12,0 -139.16,-62.06 -139.16,-139.17 0,-77.1 62.04,-139.14 139.16,-139.14zm0 353.24c-170.77,0 -310.43,134 -310.43,299.72 0,11.82 9.59,21.41 21.41,21.41l476.37 0c6.44,-15.9 15.68,-30.37 27.1,-42.81l-479.72 0c11.45,-131.57 124.45,-235.5 265.27,-235.5 128.71,0 234.19,86.85 260.1,202.26 13.25,-6.07 27.55,-10.17 42.61,-11.93 -31.47,-133.59 -155.53,-233.14 -302.71,-233.14zm-267.61 353.24c-23.35,0 -42.81,19.47 -42.81,42.81l0 85.64c0,23.34 19.47,42.81 42.81,42.81l535.21 0c10.04,0 19.38,-3.6 26.75,-9.57 -26.15,-4.65 -49.8,-16.41 -68.94,-33.24l-493.02 0 0 -85.64 446.18 0c-1.04,-6.99 -1.61,-14.13 -1.61,-21.41 0,-7.28 0.57,-14.44 1.61,-21.41l-446.18 0zm40.82 64.22c-11.43,0.53 -20.44,9.97 -20.44,21.42 0,11.82 9.59,21.43 21.43,21.43 0.33,0 0.68,0 1.01,-0.02l85.64 0c0.09,0 0.2,0 0.31,0 11.82,0 21.41,-9.59 21.41,-21.41 0,-11.84 -9.59,-21.42 -21.41,-21.42 -0.11,0 -0.22,0 -0.31,0l-85.64 0c-0.33,0 -0.66,-0.02 -0.99,-0.02 -0.35,0 -0.68,0.02 -1.01,0.02l0 0zm181.97 0c-11.44,0.53 -20.44,9.97 -20.44,21.42 0,11.82 9.6,21.43 21.42,21.43 0.35,0 0.68,0 1.03,-0.02l85.63 0c0.09,0 0.2,0 0.31,0 11.82,0 21.41,-9.59 21.41,-21.41 0,-11.84 -9.59,-21.42 -21.41,-21.42 -0.11,0 -0.22,0 -0.31,0l-85.63 0c-0.35,0 -0.68,-0.02 -1.01,-0.02 -0.35,0 -0.68,0.02 -1.01,0.02l0 0zm181.97 0c-11.43,0.53 -20.44,9.97 -20.44,21.42 0,11.82 9.61,21.43 21.43,21.43 0.35,0 0.69,0 1.03,-0.02l66.4 0c-9.61,-12.77 -17.14,-27.23 -22.05,-42.83l-44.35 0c-0.33,0 -0.68,-0.02 -1.01,-0.02 -0.35,0 -0.68,0.02 -1.01,0.02l0 0z"/>
   <g>
    <path class="fil1" d="M15491.55 1514.46c-9,0.08 -18.08,1.45 -26.95,4.31 -35.49,11.4 -60.33,43.63 -62.37,80.91 -0.69,11.59 16.69,12.54 17.26,0.95 1.65,-30.18 21.66,-56.15 50.38,-65.37 28.72,-9.22 60.07,0.27 78.91,23.86 18.85,23.59 21.2,56.32 5.93,82.38 -13.47,22.99 -38.15,36.43 -64.2,35.87l12.91 -15.82c4.79,-5.72 0.57,-14.42 -6.9,-14.19 -2.55,0.08 -4.93,1.27 -6.51,3.27l-25.73 31.55c-3.02,3.7 -2.48,9.14 1.22,12.17l31.48 25.78c8.93,7.32 19.9,-6.07 10.98,-13.39l-14.81 -12.12c31.1,-0.38 60.35,-16.82 76.48,-44.35 18.87,-32.2 15.95,-72.83 -7.35,-101.98 -17.47,-21.87 -43.73,-33.96 -70.73,-33.82l0 0z"/>
    <path class="fil2" d="M15492.1 1762.64c79.69,0 144.29,-64.6 144.29,-144.29 0,-79.69 -64.6,-144.29 -144.29,-144.29 -79.69,0 -144.29,64.6 -144.29,144.29 0,79.69 64.6,144.29 144.29,144.29zm0 -19.62c68.85,0 124.67,-55.82 124.67,-124.67 0,-68.85 -55.81,-124.67 -124.67,-124.67 -68.85,0 -124.67,55.81 -124.67,124.67 0,68.85 55.82,124.67 124.67,124.67z"/>
   </g>
  </g>
  <g id="_1626926233248">
   <path class="fil1" d="M9205.53 2155.53c-3.43,-88.82 -71.2,-159.93 -154.01,-159.93 -82.81,0 -150.58,71.1 -154.01,159.91 19.19,11.37 82.94,45.62 154.01,45.62 71.29,0 134.87,-34.24 154.01,-45.6z"/>
   <path class="fil1" d="M9115.75 1905.68c0,-35.47 -28.76,-64.23 -64.23,-64.23 -35.47,0 -64.23,28.76 -64.23,64.23 0,35.47 28.76,64.23 64.23,64.23 35.47,0 64.23,-28.76 64.23,-64.23z"/>
   <path class="fil1" d="M9526.81 2265.36c0,-35.47 -28.76,-64.23 -64.23,-64.23 -35.47,0 -64.23,28.76 -64.23,64.23 0,35.47 28.76,64.23 64.23,64.23 35.47,0 64.23,-28.76 64.23,-64.23z"/>
   <path class="fil1" d="M9462.58 2355.28c-82.81,0 -150.57,71.1 -154.01,159.91 19.19,11.37 82.94,45.62 154.01,45.62 71.3,0 134.87,-34.24 154.01,-45.6 -3.43,-88.82 -71.2,-159.93 -154.01,-159.93z"/>
   <path class="fil1" d="M9102.9 2483.73l102.77 0c7.09,-0 12.85,-5.75 12.85,-12.85 0,-7.09 -5.75,-12.85 -12.85,-12.85l-102.77 0c-49.63,-0.04 -89.88,-40.29 -89.92,-89.92l0 -20.37 29.45 29.46c2.41,2.4 5.68,3.76 9.08,3.76 7.09,0 12.85,-5.75 12.85,-12.85 0,-3.41 -1.36,-6.67 -3.76,-9.08l-51.38 -51.38c-2.41,-2.41 -5.68,-3.76 -9.08,-3.76 -3.41,0 -6.67,1.36 -9.08,3.76l-51.38 51.38c-2.41,2.41 -3.76,5.68 -3.76,9.08 0,7.09 5.75,12.85 12.85,12.85 3.41,0 6.67,-1.36 9.08,-3.76l29.45 -29.45 0 20.37c0.06,63.81 51.8,115.55 115.62,115.61l-0 0z"/>
   <path class="fil1" d="M9411.2 1918.52l-102.77 0c-7.09,0 -12.85,5.75 -12.85,12.85 0,7.09 5.75,12.84 12.85,12.84l102.77 0c49.63,0.05 89.88,40.29 89.92,89.92l0 20.37 -29.45 -29.46c-2.41,-2.41 -5.68,-3.76 -9.08,-3.76 -7.09,0 -12.84,5.75 -12.84,12.85 0,3.41 1.35,6.68 3.76,9.08l51.38 51.38c2.41,2.41 5.68,3.76 9.08,3.76 3.41,0 6.68,-1.36 9.08,-3.76l51.38 -51.38c2.41,-2.41 3.76,-5.68 3.76,-9.08 0,-7.09 -5.75,-12.85 -12.84,-12.85 -3.41,0 -6.68,1.36 -9.08,3.76l-29.45 29.45 0 -20.37c-0.06,-63.81 -51.8,-115.55 -115.62,-115.61l0 0z"/>
  </g>
  <g id="_1626926236928">
   <g>
    <path class="fil1" d="M14705.65 2467.35c-32.73,-7.61 -65.45,12.73 -73.06,45.47 -7.63,32.73 12.73,65.45 45.47,73.08 32.72,7.61 65.43,-12.75 73.06,-45.47 7.61,-32.73 -12.73,-65.45 -45.47,-73.08z"/>
    <path class="fil1" d="M14659.86 2625.36l29.88 79.47c0,0 1.32,3.55 2.1,6.99 0.78,-3.44 2.09,-6.99 2.09,-6.99l29.9 -79.47 1.16 -20.43c-9.28,-1.19 -20.15,-1.89 -32.9,-1.91 -0.03,0 -0.05,0 -0.08,0 -0.05,0 -0.11,0 -0.16,0 -0.06,0 -0.11,0 -0.16,0 -0.03,0 -0.05,0 -0.08,0 -12.75,0.02 -23.62,0.72 -32.9,1.91l1.16 20.43z"/>
    <path class="fil1" d="M14686.11 2736.88c-3.34,-3.9 -8.25,-6.39 -13.79,-6.45 -30.84,-0.28 -50.8,-4.81 -61.59,-10.12 0,0 0,0 -0.02,-0.02 -5.28,-2.58 -8.35,-5.12 -10.22,-7.35 -0.44,-0.52 -0.85,-1.03 -1.17,-1.52 -1.66,-2.59 -2.36,-4.97 -2.41,-8.56 -0.03,-4.62 1.7,-11.2 5.28,-18.23 2.36,-4.71 5.53,-9.55 9.01,-14.17l8.61 47.41c9.26,3.18 25.5,6.65 52.56,6.88 8.09,0.1 15.18,4.19 19.48,10.35 4.3,-6.16 11.41,-10.25 19.48,-10.35 27.06,-0.23 43.3,-3.7 52.57,-6.88l8.61 -47.42c1.6,2.12 3.13,4.29 4.55,6.47 6.34,9.67 9.86,19.66 9.71,25.94 -0.03,3.59 -0.73,5.97 -2.41,8.56 -0.33,0.49 -0.72,0.99 -1.16,1.52 -1.89,2.23 -4.94,4.78 -10.22,7.35 -0.02,0.02 -0.03,0.02 -0.05,0.02 -10.79,5.31 -30.75,9.85 -61.56,10.12 -5.53,0.06 -10.45,2.56 -13.77,6.45l113.51 0c1.4,-1.63 2.71,-3.29 3.88,-5.07 6.03,-8.95 8.64,-19.32 8.59,-28.95 -0.05,-12.72 -3.96,-24.32 -9.24,-34.85 -8.04,-15.76 -19.47,-29.41 -30.58,-39.86 -5.61,-5.22 -11.12,-9.6 -16.55,-13.04 -2.74,-1.71 -5.46,-3.21 -8.48,-4.47 -1.65,-0.63 -3.36,-1.27 -5.36,-1.73l4.05 17.18 -18.28 2.9 11.67 15.31c0,0 -41.57,57.61 -53.23,69.98 -3.23,3.44 -4.94,4.24 -5.76,3.62 -0.78,0.62 -2.51,-0.18 -5.74,-3.62 -11.66,-12.37 -53.23,-69.98 -53.23,-69.98l11.67 -15.31 -18.27 -2.9 4.04 -17.18c-3.26,0.72 -5.76,1.89 -8.3,3.06 -6.55,3.28 -12.73,7.86 -19.28,13.63 -9.73,8.66 -19.81,19.87 -27.96,32.83 -8.04,12.96 -14.54,27.73 -14.67,44.41 -0.05,9.65 2.56,20 8.59,28.97 1.16,1.76 2.48,3.44 3.88,5.07l113.54 0 0 0z"/>
    <path class="fil1" d="M15103.63 2814.27l0 -77.38 0 -127.23c-8.98,2.71 -18.39,4.5 -28.07,5.23l0 122 0 16.81 -554.3 0 0 -16.81 0 -320.02 430.9 0c6.11,-10.35 13.58,-19.79 22.19,-28.07l-481.16 0 0 348.09 0 77.38 610.45 0 0 0zm-108.54 -24.09l-28.07 0 0 -12.16 28.07 0 0 12.16zm40.23 0l-28.07 0 0 -12.16 28.07 0 0 12.16zm40.23 0l-28.07 0 0 -12.16 28.07 0 0 12.16z"/>
    <path class="fil1" d="M14823.2 2592.68l168.63 0c-4.92,-3.32 -9.6,-6.99 -14,-10.94l-154.62 0 0 10.94z"/>
    <path class="fil1" d="M14823.2 2568.26l141.55 0c-2.93,-3.49 -5.67,-7.14 -8.25,-10.94l-133.3 0 0 10.94z"/>
    <polygon class="fil1" points="14823.2,2616.14 14900.34,2616.14 14900.34,2605.18 14823.2,2605.18 "/>
    <path class="fil1" d="M14661.98 2925.17c0,-37.72 -30.58,-68.29 -68.3,-68.29 -37.72,0 -68.3,30.57 -68.3,68.29 0,6.16 0.83,12.11 2.35,17.78l131.9 0c1.53,-5.67 2.36,-11.62 2.36,-17.78z"/>
    <path class="fil1" d="M14764.8 2948.56l-351.22 0c-15.5,0 -28.07,12.57 -28.07,28.07l0 187.08 407.34 0 0 -187.08c0,-15.5 -12.55,-28.07 -28.05,-28.07z"/>
    <path class="fil1" d="M15065.35 2942.95c1.52,-5.67 2.35,-11.62 2.35,-17.78 0,-37.72 -30.58,-68.29 -68.3,-68.29 -37.72,0 -68.3,30.57 -68.3,68.29 0,6.16 0.83,12.11 2.36,17.78l131.9 0z"/>
    <path class="fil1" d="M15179.49 2948.56l-351.2 0c-15.52,0 -28.07,12.57 -28.07,28.07l0 187.08 407.35 0 0 -187.08c0,-15.5 -12.57,-28.07 -28.07,-28.07z"/>
   </g>
   <path class="fil2" d="M15165.97 2584.06c-55.45,55.45 -145.37,55.45 -200.82,0 -55.46,-55.46 -55.46,-145.37 0,-200.83 55.45,-55.46 145.37,-55.46 200.82,0 55.46,55.45 55.46,145.37 0,200.83zm-17.16 -193.49l-176.32 176.32c-43.93,-49.03 -42.34,-124.43 4.77,-171.55 47.12,-47.12 122.52,-48.7 171.55,-4.77zm-166.5 186.14l176.32 -176.32c43.93,49.03 42.34,124.43 -4.77,171.55 -47.12,47.12 -122.52,48.7 -171.55,4.77z"/>
   <path class="fil2" d="M14965.15 2584.06c55.45,55.45 145.37,55.45 200.82,0 55.46,-55.46 55.46,-145.37 0,-200.83 -55.45,-55.46 -145.37,-55.46 -200.82,0 -55.46,55.45 -55.46,145.37 0,200.83zm17.16 -193.49l176.32 176.32c43.93,-49.03 42.34,-124.43 -4.77,-171.55 -47.12,-47.12 -122.52,-48.7 -171.55,-4.77zm166.5 186.14l-176.32 -176.32c-43.93,49.03 -42.34,124.43 4.77,171.55 47.12,47.12 122.52,48.7 171.55,4.77z"/>
  </g>
  <g id="_1626926244832">
   <path class="fil1" d="M4182.78 426.58c-231.97,0 -420.5,188.54 -420.5,420.48 0,231.92 188.54,420.5 420.5,420.5 41.25,0 81.1,-5.99 118.8,-17.1 -7.62,-20.7 -12.23,-42.8 -13.33,-65.83 -34,10.83 -69.57,16.51 -105.47,16.51 -194.76,0 -354.11,-158.44 -354.11,-353.22 0,-81.41 29.21,-161.11 81.45,-224.83l75.23 75.23c10.62,-15.04 27.46,-25.65 46.05,-27.43 6.17,-0.89 12.37,-0.89 18.59,-2.64l-92.1 -93.85c63.75,-52.22 143.43,-81.43 224.88,-81.43 194.71,0 353.2,158.46 353.2,354.09 0,35.9 -5.5,71.44 -16.14,105.45 23.22,1.05 45.51,5.68 66.32,13.35 11.11,-37.67 17.1,-77.55 17.1,-118.8 0,-231.94 -188.56,-420.48 -420.48,-420.48zm195.48 568.82l-35.29 -35.01c-11.51,19.46 -24.77,38.05 -39.83,54.86l27.69 27.69c13.31,-18.15 29.33,-34.19 47.43,-47.54z"/>
   <path class="fil1" d="M4329.71 714.28c-47.8,-3.54 -92.06,-23.9 -125.7,-57.54l-8.85 -8.85c-3.54,-3.54 -7.97,-5.31 -13.28,-5.31 -4.43,0 -9.74,1.77 -13.28,5.31l-8.85 8.85c-33.64,33.64 -77.9,54 -125.7,57.54 -9.74,0.89 -16.82,8.85 -16.82,17.71l0 52.23c0,109.77 59.31,211.57 154.92,265.57 2.66,1.77 6.2,2.66 8.85,2.66 2.66,0 6.2,-0.89 8.85,-2.66 95.61,-54 154.92,-155.8 154.92,-265.57l0 -52.23c1.77,-9.74 -5.31,-17.71 -15.05,-17.71z"/>
   <path class="fil1" d="M4512.08 1009.6c-14.53,0.12 -29.18,2.35 -43.49,6.95 -57.28,18.39 -97.37,70.41 -100.67,130.59 -1.11,18.7 26.94,20.24 27.86,1.53 2.67,-48.7 34.96,-90.62 81.32,-105.5 46.36,-14.89 96.94,0.43 127.36,38.51 30.42,38.08 34.21,90.9 9.57,132.96 -21.74,37.11 -61.57,58.8 -103.61,57.9l20.84 -25.53c7.72,-9.24 0.91,-23.27 -11.13,-22.91 -4.11,0.12 -7.96,2.05 -10.51,5.28l-41.53 50.91c-4.88,5.97 -4,14.76 1.97,19.64l50.8 41.6c14.4,11.81 32.11,-9.79 17.71,-21.6l-23.9 -19.57c50.2,-0.62 97.41,-27.15 123.43,-71.57 30.45,-51.98 25.74,-117.54 -11.85,-164.59 -28.19,-35.3 -70.57,-54.81 -114.16,-54.59l0 0z"/>
   <path class="fil2" d="M4512.97 1410.15c128.61,0 232.87,-104.26 232.87,-232.87 0,-128.61 -104.26,-232.87 -232.87,-232.87 -128.61,0 -232.88,104.26 -232.88,232.87 0,128.61 104.26,232.87 232.88,232.87zm0 -31.67c111.12,0 201.2,-90.08 201.2,-201.2 0,-111.12 -90.08,-201.2 -201.2,-201.2 -111.12,0 -201.2,90.08 -201.2,201.2 0,111.12 90.08,201.2 201.2,201.2z"/>
  </g>
  <g id="_1626926248736">
   <g>
    <path class="fil1" d="M6421.07 1278.6c0,-9.1 -7.38,-16.47 -16.47,-16.47 -9.1,0 -16.47,7.38 -16.47,16.47 0,9.1 7.38,16.47 16.47,16.47 9.1,0 16.47,-7.38 16.47,-16.47z"/>
    <path class="fil1" d="M6519.92 1278.6c0,-9.1 -7.38,-16.47 -16.47,-16.47 -9.1,0 -16.47,7.38 -16.47,16.47 0,9.1 7.38,16.47 16.47,16.47 9.1,0 16.47,-7.38 16.47,-16.47z"/>
    <path class="fil1" d="M6924.92 1603.1l-45.66 -9.14 -7.71 -30.82c-5.5,-22.04 -25.24,-37.43 -47.95,-37.43l-113.29 0c-12.41,0 -23.81,4.69 -32.59,12.44 -4.33,-12.73 -10.58,-24.81 -18.8,-35.77 -19.93,-26.61 -48.99,-44.27 -81.79,-49.73l-44.71 -7.45 -7.56 -22.68c27.66,-17.71 48.2,-45.42 56.64,-78.02l4.33 0c36.34,0 65.9,-29.55 65.9,-65.89 0,-15.59 -5.67,-29.75 -14.76,-41.04l11.86 -44.23c1.93,-7.64 2.9,-15.52 2.9,-23.41 0,-40.43 -25.53,-76.87 -63.51,-90.67l-108.38 -39.41c-15.19,-5.55 -31.09,-8.35 -47.25,-8.35 -43.31,0 -84.68,20.67 -110.64,55.32l-8.37 11.14c-32.24,4.25 -57.22,31.94 -57.22,65.34 0,26.51 9.31,59.09 14.35,74.76 -8.85,11.22 -14.35,25.19 -14.35,40.56 0,36.34 29.56,65.89 65.9,65.89l4.33 0c8.43,32.6 28.98,60.31 56.62,78.02l-7.58 22.68 -44.71 7.45c-30.34,5.06 -57.38,20.66 -77.05,43.99l-129.4 -143.82 -185.25 205.84 53.46 0 0 197.69 230.64 0 0 131.79 50.26 0c8.35,92.22 86.01,164.74 180.37,164.74 94.36,0 172.02,-72.52 180.38,-164.74l50.26 0 0 -131.79c21.45,0 39.57,-13.82 46.39,-32.95l71.98 0c6.82,19.13 24.94,32.95 46.39,32.95 21.45,0 39.57,-13.82 46.39,-32.95l19.49 0c27.25,0 49.42,-22.17 49.42,-49.42l0 -22.41c0,-23.49 -16.72,-43.87 -39.72,-48.47zm-385.9 -123.41l-39.16 68.55 -22.52 -22.53 48.25 -48.25 13.43 2.24zm46.82 -168.15l0 -65.9c18.17,0 32.95,14.78 32.95,32.95 0,18.17 -14.79,32.95 -32.95,32.95zm-296.53 -32.95c0,-18.17 14.78,-32.95 32.95,-32.95l0 65.9c-18.17,0 -32.95,-14.78 -32.95,-32.95zm47.4 -65.9l-14.45 0c-8.29,0 -16.13,1.71 -23.44,4.51 -4.37,-15.14 -9.51,-36.65 -9.51,-53.94 0,-18.17 14.78,-32.95 32.95,-32.95l8.24 0 17.81 -23.76c19.79,-26.39 51.3,-42.14 84.28,-42.14 12.31,0 24.42,2.12 36,6.34l108.38 39.41c25.02,9.09 41.83,33.1 41.83,59.72 0,5.19 -0.64,10.36 -1.83,15.14l-8.55 31.89c-7.08,-2.6 -14.61,-4.23 -22.57,-4.23l-14.45 0 -6.33 -1.58c-36.39,-9.09 -70.67,-24.27 -101.89,-45.08l-9.14 -6.1 -9.14 6.1c-31.23,20.82 -65.52,35.98 -101.91,45.08l-6.28 1.58zm18.5 98.84l0 -69.54c34.99,-9.19 68.19,-23.53 98.84,-42.65 30.64,19.14 63.84,33.46 98.85,42.65l-0 69.54c0,54.51 -44.35,98.84 -98.86,98.84 -54.5,0 -98.83,-44.33 -98.83,-98.84zm98.84 131.79c14.27,0 27.97,-2.35 40.86,-6.56l6.19 18.58 -47.05 47.05 -47.05 -47.05 6.19 -18.58c12.87,4.2 26.59,6.55 40.86,6.55zm-71.55 34.12l48.25 48.25 -22.52 22.52 -39.18 -68.53 13.44 -2.24zm-258.03 -75.39l111.28 123.64 -222.56 0 111.28 -123.64zm-98.84 156.59l197.69 0 0 164.74 -49.42 0 0 -98.84 -98.84 0 0 98.84 -49.42 0 0 -164.74zm115.32 164.74l-32.95 0 0 -65.9 32.95 0 0 65.9zm313.01 296.53c-81.76,0 -148.27,-66.51 -148.27,-148.26 0,-81.76 66.51,-148.27 148.27,-148.27 81.76,0 148.27,66.51 148.27,148.27 0,81.76 -66.51,148.26 -148.27,148.26zm197.69 -164.74l-17.31 0c-8.35,-92.22 -86.01,-164.74 -180.38,-164.74 -94.36,0 -172.02,72.52 -180.37,164.74l-17.32 0 0 -98.84 0 -16.47 0 -181.21 53.46 0 -33.54 -37.27c14.42,-18.83 35.03,-31.4 58.32,-35.76l66.51 116.39 53.03 -53.03 53.03 53.03 66.49 -116.39c23.62,4.41 44.56,17.23 59.01,36.51 11.73,15.62 18.32,34.17 19.08,53l0 19.44 -42.63 8.53c-23.01,4.6 -39.73,24.98 -39.73,48.47l0 22.41c0,27.25 22.17,49.42 49.42,49.42l19.5 0c2.79,7.81 7.4,14.65 13.44,20.1l0 111.69zm32.95 -131.79c-9.09,0 -16.47,-7.38 -16.47,-16.47 0,-9.09 7.38,-16.47 16.47,-16.47 9.09,0 16.47,7.38 16.47,16.47 0,9.09 -7.38,16.47 -16.47,16.47zm164.74 0c-9.09,0 -16.47,-7.38 -16.47,-16.47 0,-9.09 7.38,-16.47 16.47,-16.47 9.09,0 16.47,7.38 16.47,16.47 0,9.09 -7.38,16.47 -16.47,16.47zm82.37 -49.42c0,9.09 -7.38,16.47 -16.47,16.47l-19.51 0c-6.82,-19.13 -24.94,-32.95 -46.39,-32.95 -21.45,0 -39.57,13.82 -46.39,32.95l-71.98 0c-6.82,-19.13 -24.94,-32.95 -46.39,-32.95 -21.45,0 -39.57,13.82 -46.39,32.95l-19.49 0c-9.09,0 -16.47,-7.38 -16.47,-16.47l0 -22.41c0,-7.84 5.57,-14.63 13.25,-16.14l66.11 -13.23 12.75 -51.07c1.84,-7.33 8.42,-12.47 16,-12.47l113.29 0c7.58,0 14.13,5.14 16,12.47l12.75 51.07 66.13 13.23c7.64,1.52 13.21,8.3 13.21,16.14l0 22.41z"/>
   </g>
   <g>
    <path class="fil1" d="M6549.92 1819.54c0.01,-0.14 0.02,-0.28 0.02,-0.43 0,-0.14 -0.01,-0.28 -0.02,-0.43 -0.01,-0.14 0,-0.2 0,-0.29 -0.16,-0.35 -0.37,-0.67 -0.62,-0.95l0 0 -47 -46.67 0 0c-0.26,-0.28 -0.57,-0.5 -0.92,-0.66l-0.3 0c-0.27,-0.1 -0.56,-0.15 -0.85,-0.16l-0.23 0 -81.76 0c-5.43,0 -9.84,4.4 -9.84,9.84l0 64.57c-3.76,2.1 -7.86,3.57 -12.1,4.33 -13.12,2.33 -21.55,12.66 -24.43,16.63l-2.33 0 0 -0.17c0,-3.62 -2.94,-6.56 -6.56,-6.56l-22.96 0c-3.62,0 -6.56,2.94 -6.56,6.56l0 46.84c0,3.62 2.94,6.56 6.56,6.56l22.96 0c3.62,0 6.56,-2.94 6.56,-6.56l0 0 4.79 0c7.9,5.09 17.07,7.93 26.47,8.2 2.61,-0 5.22,-0.28 7.77,-0.82l0 18.96c0,5.43 4.4,9.84 9.84,9.84l121.68 0c5.43,0 9.84,-4.41 9.84,-9.84l0 -118.59c0,0 0,-0.2 0,-0.2zm-46.67 -38.54l35.49 35.45 -32.2 0c-1.81,0 -3.28,-1.47 -3.28,-3.28l0 -32.17zm-140.27 130.99l-22.96 0 0 -46.84 22.96 0 0 46.84zm14.27 -6.13c-0.55,-0.39 -1.21,-0.59 -1.88,-0.59 -0.02,0 -0.04,0 -0.06,0l-5.77 0 0 -33.25 4.23 0c0,0 0,0 0.01,0 1.13,0 2.18,-0.58 2.78,-1.54 0.6,-0.96 8.07,-12.86 21.09,-15.22 7.39,-1.26 14.35,-4.39 20.2,-9.05l15.58 -12.66c2.31,1.87 3.72,4.62 3.9,7.58 0,4.89 -4.98,10.33 -14.17,15.74 -0.96,0.57 -1.56,1.58 -1.61,2.69 -1.14,11.66 -8.63,21.75 -19.45,26.24 -0.87,0.61 -1.39,1.61 -1.39,2.68 0,1.81 1.47,3.28 3.28,3.28 0.2,0 0.4,-0.02 0.6,-0.06 1.34,-0.62 2.59,-1.28 3.8,-1.94l0 22.79c-15.91,4 -31.19,-6.56 -31.32,-6.69l0.17 0zm162.83 35.58l-121.84 0c-1.81,0 -3.28,-1.47 -3.28,-3.28l0 -53.03c6.94,-6.06 11.49,-14.42 12.79,-23.55 10.53,-6.56 15.91,-13.38 15.97,-20.46 0,-9.02 -8.43,-14.4 -8.79,-14.63 -0.51,-0.31 -1.1,-0.47 -1.7,-0.47 -0.75,0 -1.49,0.26 -2.07,0.74l-16.2 13.12 0 -60.25c0,-1.81 1.47,-3.28 3.28,-3.28l78.45 0 0 36.83c-0,5.43 4.4,9.84 9.84,9.84l36.83 0 0 115.15c0,1.81 -1.47,3.28 -3.28,3.28l0 0z"/>
    <path class="fil1" d="M6482.45 1792.39c0,-1.81 -1.47,-3.28 -3.28,-3.28l-48.11 0c-1.81,0 -3.28,1.47 -3.28,3.28 0,1.81 1.47,3.28 3.28,3.28l48.11 0c1.81,0 3.28,-1.47 3.28,-3.28z"/>
    <path class="fil1" d="M6486.13 1813.37c0,-1.81 -1.47,-3.28 -3.28,-3.28l-48.11 0c-1.81,0 -3.28,1.47 -3.28,3.28 0,1.81 1.47,3.28 3.28,3.28l48.11 0c1.81,0 3.28,-1.47 3.28,-3.28z"/>
    <path class="fil1" d="M6519.58 1858.54l-48.08 0c-1.81,0 -3.28,1.47 -3.28,3.28 0,1.81 1.47,3.28 3.28,3.28l48.08 0c1.81,0 3.28,-1.47 3.28,-3.28 0,-1.81 -1.47,-3.28 -3.28,-3.28l0 0z"/>
    <path class="fil1" d="M6519.58 1886.38l-80.88 0c-1.81,0 -3.28,1.47 -3.28,3.28 0,1.81 1.47,3.28 3.28,3.28l80.88 0c1.81,0 3.28,-1.47 3.28,-3.28 0,-1.81 -1.47,-3.28 -3.28,-3.28l0 0z"/>
    <path class="fil1" d="M6519.58 1914.19l-80.88 0c-1.81,0 -3.28,1.47 -3.28,3.28 0,1.81 1.47,3.28 3.28,3.28l80.88 0c1.81,0 3.28,-1.47 3.28,-3.28 0,-1.81 -1.47,-3.28 -3.28,-3.28l0 0z"/>
   </g>
  </g>
  <path class="fil1" d="M10860.47 829.61c-149.93,0 -272.43,122.5 -272.43,272.43 0,150.85 122.5,272.43 272.43,272.43 149.93,0 272.43,-122.5 272.43,-272.43 0,-149.93 -121.59,-272.43 -272.43,-272.43zm220.32 164.56l-69.48 0c-12.8,-49.37 -32.91,-90.5 -59.42,-119.76 55.77,22.85 102.39,65.82 128.9,119.76zm-84.11 107.88c0,27.43 -2.74,53.94 -7.31,78.62l-115.19 0 0 -159.07 114.28 0c5.48,25.6 8.23,52.11 8.23,80.45zm-271.52 0c0,-28.34 2.74,-55.77 7.31,-80.45l114.27 0 0 159.98 -114.27 0c-4.57,-25.6 -7.31,-52.11 -7.31,-79.54zm121.59 -244.09l0 136.21 -107.88 0c20.11,-74.05 60.34,-127.07 107.88,-136.21zm0 350.14l0 138.04c-47.54,-9.14 -88.68,-62.17 -108.79,-138.04l108.79 0zm27.42 138.04l0 -138.04 108.79 0c-20.11,75.88 -60.34,128.9 -108.79,138.04zm0 -351.97l0 -136.21c47.54,8.23 87.77,62.17 107.88,136.21l-107.88 0zm-104.22 -119.76c-26.51,29.25 -47.54,70.39 -59.42,119.76l-69.48 0c26.51,-53.94 72.22,-96.9 128.9,-119.76zm-140.79 147.19l75.88 0c-4.57,25.6 -7.31,52.11 -7.31,80.45 0,27.43 2.74,53.94 6.4,78.62l-75.88 0c-8.23,-24.68 -12.8,-51.2 -12.8,-78.62 0,-28.34 4.57,-54.85 13.71,-80.45zm10.97 186.5l70.39 0c12.8,50.28 32.91,92.33 59.42,121.59 -56.68,-22.85 -103.3,-65.82 -129.82,-121.59zm310.83 121.59c26.51,-29.25 47.54,-71.31 60.34,-121.59l70.39 0c-26.51,55.77 -73.13,98.73 -130.73,121.59zm141.7 -149.01l-75.88 0c4.57,-24.68 6.4,-51.2 6.4,-78.62 0,-28.34 -2.74,-54.85 -7.31,-80.45l75.88 0c9.14,25.6 13.71,52.11 13.71,80.45 0,27.43 -4.57,53.94 -12.8,78.62zm-162.73 -444.3c0,-24.68 20.11,-43.88 43.88,-43.88 23.77,0 43.88,20.11 43.88,43.88 0,24.68 -20.11,43.88 -43.88,43.88 -23.77,0 -43.88,-19.2 -43.88,-43.88zm95.99 42.05c0,-21.94 17.37,-39.31 39.31,-39.31 21.94,0 39.31,17.37 39.31,39.31 0,21.94 -17.37,39.31 -39.31,39.31 -21.94,0 -39.31,-17.37 -39.31,-39.31zm149.93 63.99c0,19.2 -15.54,35.65 -35.65,35.65 -20.11,0 -35.66,-15.54 -35.66,-35.65 0,-19.2 15.54,-35.65 35.66,-35.65 20.11,0 35.65,15.54 35.65,35.65zm23.77 111.53c-17.37,0 -31.08,-13.71 -31.08,-31.08 0,-17.37 13.71,-31.08 31.08,-31.08 17.37,0 31.08,13.71 31.08,31.08 0,17.37 -13.71,31.08 -31.08,31.08zm8.23 63.08c0,-14.63 11.88,-26.51 26.51,-26.51 14.63,0 26.51,11.89 26.51,26.51 0,14.63 -11.88,26.51 -26.51,26.51 -14.63,0 -26.51,-11.88 -26.51,-26.51zm58.51 99.65c0,11.88 -10.06,21.94 -21.94,21.94 -11.88,0 -21.94,-10.06 -21.94,-21.94 0,-11.88 10.06,-21.94 21.94,-21.94 11.88,0 21.94,9.14 21.94,21.94zm-21.94 98.73c0,10.06 -8.23,18.28 -18.28,18.28 -10.06,0 -18.29,-8.23 -18.29,-18.28 0,-10.06 8.23,-18.28 18.29,-18.28 10.05,0 18.28,8.23 18.28,18.28zm-444.3 254.15c0.91,24.68 -19.2,44.8 -42.97,44.8 -23.77,0 -44.8,-19.2 -44.8,-42.97 0,-23.77 19.2,-44.8 42.97,-44.8 23.77,-0.91 43.88,19.2 44.8,42.97zm-97.82 -39.31c0.91,21.94 -17.37,40.22 -39.31,40.22 -21.94,0.91 -40.23,-17.37 -40.23,-39.31 -0.91,-21.94 17.37,-40.22 39.31,-40.22 21.94,0 40.23,17.37 40.23,39.31zm-80.45 -62.17c0,19.2 -14.63,35.65 -34.74,36.57 -19.2,0 -35.65,-14.63 -36.57,-34.74 -0.91,-20.11 14.63,-35.65 34.74,-36.57 20.11,-0.91 35.65,14.63 36.57,34.74zm-65.82 -79.54c0,17.37 -12.8,31.08 -30.17,32 -17.37,0 -31.08,-12.8 -32,-30.17 0,-17.37 12.8,-31.08 30.17,-32 17.37,-0.91 32,12.8 32,30.17zm-66.74 -65.82c-14.63,0 -26.51,-10.97 -27.42,-26.51 0,-14.63 10.97,-26.51 26.51,-27.43 14.63,0 26.51,10.97 27.42,26.51 0,14.63 -11.88,27.43 -26.51,27.43zm-11.88 -104.22c-11.88,0 -22.85,-9.14 -22.85,-21.94 0,-11.88 9.14,-22.85 21.94,-22.85 11.89,0 22.85,9.14 22.85,21.94 0,12.8 -10.06,22.85 -21.94,22.85zm-2.74 -120.67c0,-10.06 7.31,-18.28 17.37,-18.28 10.06,0 18.28,7.31 18.28,17.37 0,10.06 -7.31,18.29 -17.37,18.29 -10.06,0 -18.28,-7.31 -18.28,-17.37z"/>
  <g id="_1626926252672">
   <g>
    <g>
     <path class="fil1" d="M5258.5 3194.41c-21.43,-21.43 -56.29,-21.43 -77.73,0 -6.59,6.6 -48.68,48.73 -55.11,55.16l0 -145.17c0,-14.68 -5.72,-28.48 -16.1,-38.86l-51.81 -51.81c-10.38,-10.38 -24.18,-16.1 -38.86,-16.1l-314.57 0c-30.3,0 -54.96,24.65 -54.96,54.96l0 515.38c0,30.3 24.65,54.96 54.96,54.96l366.38 0c30.3,0 54.96,-24.65 54.96,-54.96l0 -162.88 132.84 -132.95c21.48,-21.48 21.48,-56.24 0,-77.72zm-242.75 -160.14c3.46,0 10.13,-0.6 16.09,5.36l51.81 51.81c5.81,5.81 5.37,12.19 5.37,16.1l-73.28 0 0 -73.28zm73.27 533.69c0,10.1 -8.22,18.32 -18.32,18.32l-366.38 0c-10.1,0 -18.32,-8.22 -18.32,-18.32l0 -515.38c0,-10.1 8.22,-18.32 18.32,-18.32l274.79 0 0 91.59c0,10.12 8.2,18.32 18.32,18.32l91.59 0 0 142.06c0,0 -54.05,54.09 -54.05,54.09l-25.89 25.9c-2.01,2.01 -3.53,4.46 -4.43,7.16l-25.91 77.72c-2.19,6.58 -0.48,13.84 4.43,18.75 4.91,4.91 12.18,6.62 18.75,4.43l77.72 -25.91c2.7,-0.9 5.15,-2.41 7.16,-4.43l2.22 -2.22 0 126.23zm-41.08 -188.77l25.91 25.91 -9.9 9.9 -38.86 12.95 12.95 -38.86 9.9 -9.89zm51.81 -0.01l-25.91 -25.91c13.79,-13.81 75.06,-75.13 88.06,-88.13l25.91 25.91 -88.06 88.13zm132.84 -132.95l-18.88 18.9 -25.91 -25.91 18.89 -18.91c7.15,-7.14 18.77,-7.14 25.91,0 7.14,7.14 7.18,18.72 -0.01,25.91z"/>
    </g>
   </g>
   <g>
    <g>
     <path class="fil1" d="M4997.42 3180.82l-256.47 0c-10.12,0 -18.32,8.2 -18.32,18.32 0,10.12 8.2,18.32 18.32,18.32l256.47 0c10.12,0 18.32,-8.2 18.32,-18.32 0,-10.12 -8.2,-18.32 -18.32,-18.32z"/>
    </g>
   </g>
   <g>
    <g>
     <path class="fil1" d="M4924.15 3254.09l-183.19 0c-10.12,0 -18.32,8.2 -18.32,18.32 0,10.12 8.2,18.32 18.32,18.32l183.19 0c10.12,0 18.32,-8.2 18.32,-18.32 0,-10.12 -8.2,-18.32 -18.32,-18.32z"/>
    </g>
   </g>
   <g>
    <g>
     <path class="fil1" d="M4924.15 3327.37l-183.19 0c-10.12,0 -18.32,8.2 -18.32,18.32 0,10.12 8.2,18.32 18.32,18.32l183.19 0c10.12,0 18.32,-8.2 18.32,-18.32 0,-10.12 -8.2,-18.32 -18.32,-18.32z"/>
    </g>
   </g>
   <g>
    <g>
     <path class="fil1" d="M4924.15 3400.65l-183.19 0c-10.12,0 -18.32,8.2 -18.32,18.32 0,10.12 8.2,18.32 18.32,18.32l183.19 0c10.12,0 18.32,-8.2 18.32,-18.32 0,-10.12 -8.2,-18.32 -18.32,-18.32z"/>
    </g>
   </g>
   <g>
    <g>
     <path class="fil1" d="M4997.42 3513l-109.91 0c-10.12,0 -18.32,8.2 -18.32,18.32 0,10.12 8.2,18.32 18.32,18.32l109.91 0c10.12,0 18.32,-8.2 18.32,-18.32 0,-10.12 -8.2,-18.32 -18.32,-18.32z"/>
    </g>
   </g>
  </g>
  <g id="_1626926260448">
   <path class="fil2" d="M600.5 2426.33l996.99 0c23.72,0 43.13,19.41 43.13,43.14l0 776.55c0,23.73 -19.41,43.13 -43.13,43.13l-996.99 0c-23.72,0 -43.13,-19.4 -43.13,-43.13l0 -776.55c0,-23.73 19.41,-43.14 43.13,-43.14zm22.85 25.07l951.29 0c22.35,0 40.64,18.28 40.64,40.63l0 731.5c0,22.35 -18.28,40.64 -40.64,40.64l-951.29 0c-22.35,0 -40.64,-18.28 -40.64,-40.64l0 -731.5c0,-22.35 18.28,-40.63 40.64,-40.63z"/>
   <path class="fil2" d="M740.04 2782.35l487.81 0c11.5,0 20.91,9.41 20.91,20.91l0 0c0,11.5 -9.41,20.91 -20.91,20.91l-487.81 0c-11.5,0 -20.91,-9.41 -20.91,-20.91l0 -0c0,-11.5 9.41,-20.91 20.91,-20.91z"/>
   <path class="fil2" d="M740.04 2867.09l487.81 0c11.5,0 20.91,9.41 20.91,20.91l0 0c0,11.5 -9.41,20.91 -20.91,20.91l-487.81 0c-11.5,0 -20.91,-9.41 -20.91,-20.91l0 -0c0,-11.5 9.41,-20.91 20.91,-20.91z"/>
   <path class="fil2" d="M781.9 2573.11l634.18 0c46.03,0 83.68,37.66 83.68,83.68l0 0c0,46.03 -37.66,83.69 -83.68,83.69l-634.18 0c-46.03,0 -83.69,-37.66 -83.69,-83.69l0 0c0,-46.03 37.66,-83.68 83.69,-83.68zm0.06 41.95l634.09 0c22.76,0 41.38,18.62 41.38,41.38l0 0c0,22.76 -18.62,41.38 -41.38,41.38l-634.09 0c-22.76,0 -41.38,-18.62 -41.38,-41.38l0 0c0,-22.76 18.62,-41.38 41.38,-41.38z"/>
   <path class="fil1" d="M1054.08 3099.58c-13.92,0.05 -27.85,0.05 -41.83,0 -31.34,-0.16 -59.66,7.35 -84.69,27.8 -22.95,18.72 -48.45,19.4 -69.99,4.9 -10.17,-6.83 -16.17,-16.79 -21.33,-29.88 -11.11,11.47 -20.75,21.43 -30.45,31.39 -7.41,7.56 -16.06,10.38 -26.02,5.84 -9.49,-4.27 -12.62,-12.41 -12.41,-22.42 0.21,-11.06 0.05,-22.11 -2.51,-33.58 -6,13.72 -11.94,27.53 -18.04,41.2 -6.83,15.28 -17.26,20.5 -29.67,15.02 -11.37,-5.01 -15.12,-16.84 -9.07,-31.08 19.71,-46.41 39.58,-92.72 59.61,-138.93 5.37,-12.36 15.54,-18.62 25.29,-15.7 12.15,3.6 16.58,12.15 16.32,24.77 -0.52,29.15 -0.16,58.3 -0.16,87.51 4.85,1.57 6.26,-2.66 8.4,-4.74 12.78,-12.46 25.24,-25.24 38.02,-37.7 8.34,-8.14 17.94,-10.69 28.37,-3.86 9.23,6.05 11.74,17.26 5.79,29.1 -6.1,12.25 -10.53,24.77 -10.22,38.64 0.26,11.42 6.89,15.59 16.9,9.8 7.87,-4.54 15.07,-10.27 22.53,-15.54 22.01,-15.44 46.67,-22.89 73.27,-23.83 20.44,-0.73 40.94,-0.47 61.38,-0.36 18.09,0.11 27.22,7.35 27.33,20.97 0.26,13.77 -8.66,20.7 -26.8,20.7z"/>
  </g>
  <g id="_1626926264448">
   <path class="fil1" d="M3066.39 2391.18l0.78 -3.33 1.7 -172.92c0.53,-17.9 15.21,-32.16 33.12,-32.16 0.17,0 0.35,0 0.52,0l0.21 -0c0.03,0 0.06,0 0.09,0 8.59,0 16.83,3.44 22.87,9.54 4.39,4.47 7.37,10.16 8.55,16.32 0.05,0.46 0.66,4.91 0.64,6.75l-1.52 191.95c8.61,-6.97 17.79,-13.43 27.22,-19.23l1.62 -294.28c0.53,-17.9 15.21,-32.14 33.12,-32.14 0.17,0 0.36,0 0.53,0l0.21 0c6.21,0.04 37.22,1.77 37.22,32.42l-2.59 264.31c8.88,-2.24 18.01,-4.08 27.12,-5.36l3.16 -322.4c0.54,-17.9 15.21,-32.14 33.12,-32.14 0.17,0 0.35,0 0.52,0l0.22 0c0,0 0.02,0 0.03,0 9,0 17.64,3.61 23.96,10.02 5.85,5.87 9.14,13.84 9.14,22.13 0,0.1 0,0.2 0,0.29l-3.15 321.3c9.05,1.06 18.12,2.65 27.01,4.68l2.25 -229.41c0.17,-16.5 18.85,-31.99 38.52,-31.99l0.24 0c0.01,0 0.02,0 0.03,0 9,0 17.63,3.61 23.95,10.01 5.85,5.88 9.14,13.84 9.14,22.13 0,0.1 0,0.2 0,0.3l-2.51 257.27c9.29,5.43 18.36,11.48 26.89,18l2.68 -275c-0,-0.2 0,-0.43 0,-0.64 0,-15.37 -6.08,-30.14 -16.91,-41.04 -11.36,-11.55 -26.9,-18.09 -43.11,-18.09 -13.71,0.03 -27.12,4.19 -38.46,11.89l0.48 -49.14c0,-0.21 0,-0.42 0,-0.63 0,-15.38 -6.08,-30.13 -16.91,-41.04 -11.36,-11.55 -26.9,-18.09 -43.11,-18.1l-0.39 0c-0.15,-0 -0.32,-0 -0.47,-0 -32.76,0 -59.53,26.19 -60.23,58.94l-0.14 14.42c-11.06,-6.66 -23.76,-10.19 -36.67,-10.19 -0.28,0 -0.59,0.01 -0.87,0.01l-0.39 -0c-0.15,-0 -0.31,-0 -0.47,-0 -32.76,0 -59.53,26.2 -60.24,58.95l-0.66 71.35c-9.44,-5.97 -20.4,-9.18 -31.57,-9.21l-0.39 0c-0.15,0 -0.31,0 -0.47,0 -32.77,0 -59.54,26.2 -60.24,58.95l-1.66 169.93 -0.56 2.8c-0.34,2.98 -8.08,73.55 7.02,132.84l3.14 8.46c4.7,-14.59 10.76,-28.76 17.96,-42.25 -2.15,-17.73 -3.24,-35.8 -3.24,-53.71 0,-13.85 0.66,-27.82 1.92,-41.56l0.01 0.01z"/>
   <path class="fil1" d="M3643.46 2277.05c-10.88,-9.88 -25.08,-15.37 -39.78,-15.37 -1.67,0 -3.35,0.07 -5.01,0.21 -24.96,1.67 -50.25,16.62 -71.62,42.61l-74.67 100.39c7.13,5.56 14,11.54 20.48,17.81l75.49 -101.52c15.94,-19.36 34.94,-31.13 52.12,-32.28 1.08,-0.11 2.18,-0.17 3.26,-0.17 7.86,0 15.45,2.91 21.3,8.15 17.9,16.64 3.38,58.75 -38.83,112.63 -25.16,31.35 -42.69,68.2 -51.19,107.49 6.97,18.59 11.83,37.99 14.32,57.67 3.01,-9.48 5.46,-19.2 7.33,-28.98 8.4,-45.26 19.42,-79.31 50.86,-119.47 54.12,-69.11 66.55,-120.69 35.93,-149.16z"/>
   <g>
    <path class="fil1" d="M3292.07 2375.69c-126.65,0 -229.62,102.96 -229.62,229.62 0,126.65 102.97,229.62 229.62,229.62 126.65,0 229.62,-102.96 229.62,-229.62 0,-126.65 -102.97,-229.62 -229.62,-229.62zm148.89 352.4l-61.39 -60.91c-6.28,10.63 -13.53,20.79 -21.75,29.97l57.04 57.04c-34.81,28.52 -78.31,44.47 -122.78,44.47 -106.35,0 -193.36,-86.53 -193.36,-192.88 0,-44.47 15.95,-87.98 44.47,-122.78l41.09 41.09c5.8,-8.22 14.99,-14.02 25.13,-14.99 3.38,-0.48 6.77,-0.48 10.15,-1.45l-50.27 -51.24c34.81,-28.52 78.31,-44.47 122.79,-44.47 106.35,0 192.88,86.53 192.88,193.36 0,44.47 -15.47,87.98 -43.99,122.78z"/>
    <path class="fil1" d="M3372.31 2532.8c-26.1,-1.94 -50.27,-13.05 -68.64,-31.42l-4.84 -4.84c-1.93,-1.93 -4.35,-2.9 -7.25,-2.9 -2.42,0 -5.32,0.97 -7.25,2.9l-4.83 4.84c-18.37,18.37 -42.54,29.49 -68.64,31.42 -5.32,0.48 -9.18,4.83 -9.18,9.67l0 28.52c0,59.94 32.39,115.53 84.59,145.02 1.45,0.97 3.38,1.45 4.84,1.45 1.45,0 3.38,-0.48 4.83,-1.45 52.21,-29.49 84.6,-85.08 84.6,-145.02l0 -28.52c0.97,-5.32 -2.9,-9.67 -8.22,-9.67z"/>
   </g>
  </g>
  <path class="fil1" d="M8464.74 539.05c-0.06,0 -0.12,0 -0.19,0 -53.5,0 -105.53,17.99 -147.58,51.01 -42.32,-33.04 -94.55,-51.01 -148.26,-51.01 -45.76,0 -88.53,12.75 -124.98,34.89 -69.83,42.18 -116.54,118.81 -116.54,206.35 0,133.02 107.84,240.87 240.87,240.87 24.91,0 48.91,-3.77 71.48,-10.78 0.39,-0.12 0.77,-0.25 1.14,-0.35l0.28 -0.09c27.25,-8.57 52.94,-21.95 75.76,-39.72 40.87,31.93 92.3,50.95 148.16,50.95 133.04,0 240.88,-107.84 240.88,-240.87 0,-73.68 -33.09,-139.62 -85.21,-183.8 -41.98,-35.76 -96.36,-57.39 -155.8,-57.43l-0.01 0zm-191.06 190.12l85.6 0c7.19,0 13.08,5.88 13.08,13.08l0 14.57c0,7.19 -5.88,13.08 -13.08,13.08l-85.6 0c-7.19,0 -13.08,-5.88 -13.08,-13.08l0 -14.57c0,-7.2 5.88,-13.08 13.08,-13.08zm0 61.14l85.6 0c7.19,0 13.08,5.88 13.08,13.08l0 14.58c0,7.19 -5.88,13.08 -13.08,13.08l-85.6 0c-7.19,0 -13.08,-5.88 -13.08,-13.08l0 -14.58c0,-7.19 5.88,-13.08 13.08,-13.08zm16.85 -176.21c-41.21,43.23 -66.51,101.76 -66.51,166.19 0,64.29 25.2,122.7 66.25,165.89 -35,25.88 -77.47,39.94 -121.03,39.96l0 0c-90.1,-0.22 -169.58,-59.01 -196.25,-145.05l91.06 0 0 53.22c0,0.11 0,0.23 0,0.35 0,7.15 4.35,13.57 10.99,16.21 2.1,0.86 4.35,1.3 6.62,1.3 0,0 0,0 0,0 0,0 0.02,0 0.02,0 4.65,0 9.09,-1.85 12.37,-5.14l113.91 -114.7c3.26,-3.26 5.08,-7.69 5.08,-12.29 0,-4.6 -1.82,-9.03 -5.08,-12.31l-113.91 -114.25c-3.27,-3.41 -7.81,-5.34 -12.55,-5.34 -9.63,0 -17.44,7.81 -17.44,17.44 0,0.06 0,0.12 0,0.19l0 53.2 -91.06 0c26.71,-85.97 106.22,-144.67 196.26,-144.87 0.05,0 0.14,0 0.18,0 43.6,0 86.11,14.05 121.09,39.99zm370.52 231.43c-27.31,82.17 -104.82,141.44 -196.17,141.44 -38.81,0 -75.14,-10.71 -106.18,-29.33 -5.36,-3.69 -10.54,-7.64 -15.55,-11.87 42.43,-44.7 66.13,-104.06 66.13,-165.72 0,-61.67 -23.7,-121.03 -66.14,-165.73 35.12,-25.98 77.68,-40.03 121.37,-40.03 0.05,0 0.09,0 0.14,0 90.03,0.16 169.55,58.78 196.34,144.7l-91.06 0 0 -53.2c0,0 0,0 0,-0.02 0,-9.63 -7.81,-17.44 -17.44,-17.44 -4.65,0 -9.11,1.87 -12.38,5.17l-114.08 114.25c-3.26,3.27 -5.08,7.7 -5.08,12.31 0,4.6 1.82,9.03 5.08,12.29l113.91 114.27c3.27,3.29 7.72,5.14 12.37,5.14 0.06,0 0.12,0 0.19,0 0,0 0,0 0,0 2.27,0 4.52,-0.45 6.64,-1.3 6.53,-2.7 10.81,-9.06 10.81,-16.15 0,0 0,0 0,0l0 -53.2 91.06 0c0.08,1.5 0.08,2.96 0.06,4.45z"/>
  <g id="_1626926267552">
   <path class="fil1" d="M12937 1782.63l110.96 387.73 0 -90.76 -86.95 -303.83c-0.31,-1.04 -0.46,-2.12 -0.46,-3.2 0,-4.93 3.19,-9.29 7.88,-10.78l79.53 -23.93 0 -26.08 -86.73 26.09c-15.24,4.72 -25.64,18.81 -25.64,34.77 0,3.38 0.47,6.75 1.4,9.99z"/>
   <path class="fil1" d="M13709.05 1737.87l-86.73 -26.09 0 26.08 79.53 23.93c4.69,1.49 7.88,5.85 7.88,10.78 0,1.08 -0.16,2.16 -0.46,3.19l-86.95 303.84 0 90.76 110.96 -387.73c0.92,-3.24 1.4,-6.62 1.4,-9.99 0,-15.95 -10.4,-30.05 -25.64,-34.76l0 -0z"/>
   <path class="fil1" d="M13484.97 1707.59l-299.66 0c-6.9,0 -12.49,5.59 -12.49,12.48 0,6.9 5.59,12.49 12.49,12.49l299.66 0c6.9,0 12.49,-5.59 12.49,-12.49 0,-6.9 -5.59,-12.48 -12.49,-12.48l0 0z"/>
   <path class="fil1" d="M13484.97 1757.54l-299.66 0c-6.9,0 -12.49,5.59 -12.49,12.48 0,6.9 5.59,12.49 12.49,12.49l299.66 0c6.9,0 12.49,-5.59 12.49,-12.49 0,-6.89 -5.59,-12.48 -12.49,-12.48l0 0z"/>
   <path class="fil1" d="M13484.97 1807.48l-299.66 0c-6.9,0 -12.49,5.59 -12.49,12.49 0,6.89 5.59,12.48 12.49,12.48l299.66 0c6.9,0 12.49,-5.59 12.49,-12.48 0,-6.9 -5.59,-12.49 -12.49,-12.49l0 0z"/>
   <path class="fil1" d="M13484.97 1857.43l-299.66 0c-6.9,0 -12.49,5.59 -12.49,12.49 0,6.89 5.59,12.48 12.49,12.48l299.66 0c6.9,0 12.49,-5.59 12.49,-12.48 0,-6.9 -5.59,-12.49 -12.49,-12.49l0 0z"/>
   <path class="fil1" d="M13484.97 1907.37l-299.66 0c-6.9,0 -12.49,5.59 -12.49,12.49 0,6.9 5.59,12.48 12.49,12.48l299.66 0c6.9,0 12.49,-5.59 12.49,-12.48 0,-6.9 -5.59,-12.49 -12.49,-12.49l0 0z"/>
   <path class="fil1" d="M13484.97 1957.31l-299.66 0c-6.9,0 -12.49,5.59 -12.49,12.49 0,6.9 5.59,12.48 12.49,12.48l299.66 0c6.9,0 12.49,-5.59 12.49,-12.48 0,-6.9 -5.59,-12.49 -12.49,-12.49l0 0z"/>
   <path class="fil1" d="M13497.46 2019.74c0,-6.9 -5.59,-12.49 -12.49,-12.49l-299.66 0c-6.9,0 -12.49,5.59 -12.49,12.49 0,6.9 5.59,12.48 12.49,12.48l299.66 0c6.9,0 12.49,-5.59 12.49,-12.48l0 0z"/>
   <path class="fil1" d="M13172.82 2119.63c0,6.9 5.59,12.48 12.49,12.48l189.58 0c0.84,-8.51 2.78,-16.94 5.7,-24.97l-195.28 -0c-6.9,0 -12.49,5.59 -12.49,12.49l0 0z"/>
   <path class="fil1" d="M13110.39 2350.63c-6.89,-0.01 -12.48,-5.59 -12.48,-12.49l0 -674.25c0.01,-6.89 5.59,-12.48 12.49,-12.48l449.5 0c6.89,0.01 12.48,5.59 12.49,12.49l0 434.74c6.37,13.55 9.69,28.38 9.69,43.36 0,14.98 -3.32,29.81 -9.7,43.36l0 68.5 2.68 0c7.7,0.01 15.32,1.69 22.3,4.93l-0 -594.89c-0.02,-20.67 -16.78,-37.44 -37.46,-37.46l-449.5 0c-20.67,0.02 -37.44,16.78 -37.46,37.46l0 674.25c0.02,20.67 16.78,37.44 37.46,37.46l226.81 0c-4.75,-7.5 -7.56,-16.11 -8.13,-24.97l-218.69 0z"/>
   <path class="fil1" d="M13575.05 2278.83l-39.69 0 0 -3.01c0,-14.72 -7.72,-26.16 -18.45,-28.16 2.78,-17.3 8.49,-34.08 16.76,-49.51l0.24 -0.49c14.81,-14.6 23.17,-34.55 23.17,-55.35 0,-0.08 0,-0.16 0,-0.24 0,-0.09 0,-0.19 0,-0.28 0,-43.55 -35.32,-78.87 -78.87,-78.87 -43.55,0 -78.87,35.32 -78.87,78.87 0,21.83 9.07,42.7 25.01,57.61l0.17 0.35c7.83,14.99 13.25,31.2 16,47.91 -10.72,2.01 -18.44,13.45 -18.44,28.16l0 3.01 -39.69 0c-15.74,0 -28.51,12.74 -28.54,28.48l0 39.81c0.03,15.73 12.8,28.48 28.54,28.48l192.64 0c15.74,0 28.51,-12.74 28.54,-28.48l0 -39.81c-0.03,-15.73 -12.8,-28.48 -28.54,-28.48l-0 0zm3.57 68.29c-0.02,1.94 -1.6,3.51 -3.54,3.51 -0.01,0 -0.02,0 -0.03,0l-192.64 0c-0.01,0 -0.02,0 -0.03,0 -1.94,0 -3.52,-1.56 -3.54,-3.51l0 -39.81c0.02,-1.94 1.6,-3.51 3.54,-3.51 0.01,0 0.02,0 0.03,0l52.18 0c6.9,0 12.49,-5.59 12.49,-12.49l0 -15.5c-0,-0.03 -0,-0.07 -0,-0.11 0,-1.15 0.15,-2.29 0.45,-3.4l7.13 0c0,0 0,0 0,0 6.89,0 12.48,-5.59 12.48,-12.48 0,-0.39 -0.02,-0.78 -0.06,-1.16 -1.92,-24.3 -8.77,-48.07 -20.02,-69.69l-1.22 -2.56c-0.73,-1.54 -1.78,-2.92 -3.07,-4.05 -11.51,-10.19 -18.11,-24.85 -18.11,-40.23 0,-29.67 24.06,-53.73 53.73,-53.73 29.64,0 53.69,24.01 53.73,53.65 0,0.04 0,0.08 0,0.11 0,14.77 -6.17,28.88 -17,38.9 -1.11,1.04 -2.01,2.27 -2.68,3.64l-1.19 2.43c-11.76,22.16 -18.87,46.53 -20.87,71.53 -0.03,0.38 -0.05,0.77 -0.05,1.16 0,6.89 5.59,12.48 12.48,12.48 0,0 0,0 0,0l7.13 0c0.3,1.1 0.45,2.25 0.45,3.4 0,0.03 0,0.07 0,0.11l0 15.5c0,6.9 5.59,12.48 12.49,12.48l52.17 0c0.01,-0 0.02,-0 0.03,-0 1.94,0 3.52,1.57 3.54,3.51l0 39.81z"/>
   <path class="fil1" d="M13335.54 2180.13c-3.92,-2.78 -8.62,-4.28 -13.43,-4.28 -2.52,0 -5.03,0.41 -7.42,1.22 -13.26,4.78 -18.57,20.89 -24.19,37.94 -2.53,9.3 -6.32,18.28 -11.21,26.59 -0.49,-1.52 -0.95,-3.13 -1.34,-4.46 -3.26,-11.21 -9.34,-32.06 -30.7,-29.8 -17.19,1.85 -24.59,17.18 -31.12,30.71 -7.03,14.56 -12.02,23.52 -22.08,25.04 -0.53,0.08 -1.06,0.13 -1.6,0.13 -0.07,0 -0.14,-0 -0.21,-0 -2.29,-5.07 0.86,-23.78 6.7,-38.99 0.55,-1.43 0.83,-2.95 0.83,-4.49 0,-6.9 -5.59,-12.49 -12.49,-12.49 -5.16,0 -9.8,3.19 -11.65,8 -4.11,10.67 -16.45,46.84 -2.6,64.09 4.57,5.6 11.43,8.86 18.67,8.86 0.26,0 0.54,-0.01 0.8,-0.02 1.77,-0 3.54,-0.14 5.28,-0.41 23.8,-3.61 33.64,-23.99 40.83,-38.87 3.35,-6.94 7.48,-15.5 10.97,-16.64 1.91,3.75 3.39,7.74 4.38,11.84 2.77,9.51 5.9,20.29 16.11,24.22 2.27,0.79 4.66,1.2 7.07,1.2 4.5,0 8.89,-1.42 12.54,-4.05 13.16,-8.12 18.95,-25.68 24.55,-42.66 2.11,-7.36 4.94,-14.51 8.46,-21.3 1.89,1.09 4.04,1.66 6.22,1.66 6.9,0 12.48,-5.59 12.48,-12.48 0,-4.3 -2.21,-8.29 -5.85,-10.58l0 -0z"/>
   <path class="fil1" d="M13172.82 2069.69c0,6.9 5.59,12.49 12.49,12.49l208.34 -0c6.9,-9.69 15.46,-18.17 25.2,-24.98l-233.54 0c-6.9,0 -12.49,5.59 -12.49,12.49l0 0z"/>
  </g>
 </g>
</svg>
