<?xml version="1.0" encoding="UTF-8"?>
<!DOCTYPE svg PUBLIC "-//W3C//DTD SVG 1.1//EN" "http://www.w3.org/Graphics/SVG/1.1/DTD/svg11.dtd">
<!-- Creator: CorelDRAW 2019 (64-Bit Evaluation Version) -->
<svg xmlns="http://www.w3.org/2000/svg" xml:space="preserve" width="155.507mm" height="140.928mm" version="1.1" style="shape-rendering:geometricPrecision; text-rendering:geometricPrecision; image-rendering:optimizeQuality; fill-rule:evenodd; clip-rule:evenodd"
viewBox="0 0 1369.94 1241.51"
 xmlns:xlink="http://www.w3.org/1999/xlink"
 xmlns:xodm="http://www.corel.com/coreldraw/odm/2003">
 <defs>
  <style type="text/css">
   <![CDATA[
    .fil0 {fill:white;fill-rule:nonzero}
   ]]>
  </style>
 </defs>
 <g id="Layer_x0020_1">
  <metadata id="CorelCorpID_0Corel-Layer"/>
  <g id="_1626876187648">
   <path class="fil0" d="M1348.54 1070.27l-85.62 0 0 -749.19c0,-35.4 -28.81,-64.22 -64.22,-64.22l-154.05 0c-14.58,-58.65 -66.55,-102.68 -129.12,-104.91 -11.8,-16.25 -27.57,-28.96 -45.94,-36.99 -10.12,-65.52 -66.72,-114.97 -134.73,-114.97 -31.02,0 -61.35,10.62 -85.43,29.88 -9.76,7.83 -18.28,16.82 -25.47,26.84 -61.22,-1.63 -114.18,42 -124.79,100.97 -12.86,-3.87 -26.18,-5.82 -39.77,-5.82 -64.75,0 -119.1,44.8 -134.06,104.99l-154.1 0c-35.4,0 -64.22,28.81 -64.22,64.22l0 749.19 -85.62 0c-11.84,0 -21.41,9.57 -21.41,21.4l0 85.62c0,35.4 28.81,64.22 64.22,64.22l1241.51 0c35.4,0 64.22,-28.81 64.22,-64.22l0 -85.62c0,-11.84 -9.57,-21.4 -21.41,-21.4zm-956.99 -660.42l-22.37 25.56c-5.52,6.31 -6.85,15.3 -3.36,22.95 3.47,7.66 11.07,12.56 19.48,12.56l64.22 0 0 235.46c0,11.84 9.57,21.41 21.4,21.41l128.43 0c11.84,0 21.41,-9.57 21.41,-21.41l0 -235.46 64.22 0c8.41,0 16.01,-4.9 19.48,-12.56 3.49,-7.64 2.16,-16.61 -3.36,-22.95l-6.4 -7.3 75.9 0 0 85.62 -64.22 0c-8.41,0 -16.01,4.9 -19.48,12.57 -3.49,7.64 -2.16,16.61 3.36,22.95l149.84 171.24c4.07,4.65 9.95,7.3 16.12,7.3 6.16,0 12.03,-2.65 16.12,-7.32l149.84 -171.24c5.52,-6.31 6.85,-15.3 3.36,-22.95 -3.47,-7.64 -11.07,-12.54 -19.48,-12.54l-64.22 0 0 -89.35c26.56,-6.21 50.15,-20.06 68.39,-39.09l124.26 0 0 599.35 -899.03 0 0 -599.35 124.39 0c9.25,9.65 19.91,17.87 31.7,24.55zm246.25 18.26l-38.44 0c-11.84,0 -21.41,9.59 -21.41,21.41l0 235.46 -85.62 0 0 -235.46c0,-11.82 -9.57,-21.41 -21.41,-21.41l-38.44 0 102.66 -117.32 102.66 117.32zm282.64 128.43l38.44 0 -102.66 117.32 -102.66 -117.32 38.44 0c11.84,0 21.41,-9.59 21.41,-21.41l0 -235.46 85.62 0 0 235.46c0,11.82 9.57,21.41 21.4,21.41zm-461.05 -361.86c12.97,0 25.56,2.57 37.44,7.62 7.15,3.08 15.43,1.99 21.58,-2.8 2.95,-2.29 6.16,-4.28 9.55,-5.91 7.08,-3.38 11.77,-10.36 12.18,-18.19 2.23,-42.58 37.4,-75.93 80.06,-75.93 3.94,0 7.81,0.28 11.67,0.86 8.63,1.28 17.38,-2.91 21.75,-10.6 5.8,-10.17 13.38,-19.07 22.6,-26.44 16.5,-13.21 37.35,-20.48 58.67,-20.48 50.03,0 91.06,38.94 93.41,88.66 0.45,9.14 6.64,16.97 15.39,19.54 17.47,5.09 32.64,17.12 41.63,33.01 4.02,7.11 11.9,11.41 19.84,10.83 54.9,-3.08 100.9,40.88 100.9,95.34 0,40.93 -26.91,76.37 -64.22,89.47l0 -101.4c0,-11.82 -9.57,-21.41 -21.41,-21.41l-128.43 0c-11.84,0 -21.4,9.59 -21.4,21.41l0 107.03 -113.36 0 -105.98 -121.13c-8.16,-9.29 -24.08,-9.29 -32.24,0l-98.59 112.68c-33.8,-15.13 -56.53,-49.02 -56.53,-86.65 0,-52.66 42.83,-95.51 95.49,-95.51zm-309.54 126.4c0,-11.8 9.59,-21.41 21.4,-21.41l150.63 0c1.05,14.96 4.5,29.33 10.1,42.81l-117.92 0c-11.84,0 -21.41,9.59 -21.41,21.41l0 642.16c0,11.84 9.57,21.41 21.41,21.41l941.84 0c11.84,0 21.41,-9.57 21.41,-21.41l0 -642.16c0,-11.82 -9.57,-21.41 -21.41,-21.41l-117.58 0c5.59,-13.4 9.03,-27.81 10.08,-42.81l150.31 0c11.82,0 21.41,9.61 21.41,21.41l0 749.19 -385.3 0c-3.32,0 -6.62,0.77 -9.57,2.25l-38.29 19.16 -203.93 0 -38.29 -19.16c-2.97,-1.48 -6.27,-2.25 -9.59,-2.25l-385.3 0 0 -749.19zm1177.3 856.22c0,11.82 -9.59,21.4 -21.41,21.4l-1241.51 0c-11.82,0 -21.41,-9.59 -21.41,-21.4l0 -64.22 487.27 0 38.29 19.16c2.95,1.48 6.25,2.25 9.57,2.25l214.05 0c3.32,0 6.62,-0.77 9.57,-2.25l38.29 -19.16 487.27 0 0 64.22z"/>
   <path class="fil0" d="M321.08 899.03l727.78 0c23.61,0 42.81,-19.2 42.81,-42.81l0 -42.81c0,-23.61 -19.2,-42.81 -42.81,-42.81l-727.78 0c-23.61,0 -42.81,19.2 -42.81,42.81l0 42.81c0,23.61 19.2,42.81 42.81,42.81zm0 -85.62l727.78 0 0 42.81 -727.78 0 0 -42.81z"/>
  </g>
 </g>
</svg>
