<?xml version="1.0" encoding="UTF-8"?>
<!DOCTYPE svg PUBLIC "-//W3C//DTD SVG 1.1//EN" "http://www.w3.org/Graphics/SVG/1.1/DTD/svg11.dtd">
<!-- Creator: CorelDRAW 2019 (64-Bit Evaluation Version) -->
<svg xmlns="http://www.w3.org/2000/svg" xml:space="preserve" width="25.7696mm" height="26mm" version="1.1" style="shape-rendering:geometricPrecision; text-rendering:geometricPrecision; image-rendering:optimizeQuality; fill-rule:evenodd; clip-rule:evenodd"
viewBox="0 0 46.54 46.95"
 xmlns:xlink="http://www.w3.org/1999/xlink"
 xmlns:xodm="http://www.corel.com/coreldraw/odm/2003">
 <defs>
  <style type="text/css">
   <![CDATA[
    .fil0 {fill:black;fill-rule:nonzero}
   ]]>
  </style>
 </defs>
 <g id="Layer_x0020_1">
  <metadata id="CorelCorpID_0Corel-Layer"/>
  <g id="_1626702553120">
   <path class="fil0" d="M30.87 11c-0.26,0 -0.5,0.14 -0.63,0.36 -0.13,0.22 -0.13,0.5 0,0.73l3.35 5.82c0.13,0.23 0.37,0.36 0.63,0.36 0.26,0 0.5,-0.14 0.63,-0.36l3.36 -5.82c0.13,-0.23 0.13,-0.5 0,-0.73 -0.13,-0.23 -0.37,-0.36 -0.63,-0.36l-1.06 0 0 -4.31c0,-1.27 -1.03,-2.3 -2.3,-2.3l-11.24 0 0 1.45 11.24 0c0.47,0 0.84,0.38 0.84,0.84l0 4.31 -1.68 0 0 -2.75c0,-0.4 -0.33,-0.73 -0.73,-0.73l-9.68 0 0 1.45 8.95 0 0 2.02 -1.06 0zm3.35 5.09l-2.09 -3.63 4.19 0 -2.1 3.63z"/>
   <path class="fil0" d="M7.42 34.86l1.07 0c0.26,0 0.5,-0.14 0.63,-0.36 0.13,-0.23 0.13,-0.5 0,-0.73l-3.36 -5.82c-0.26,-0.45 -1,-0.45 -1.26,0l-3.36 5.82c-0.13,0.23 -0.13,0.5 0,0.73 0.13,0.23 0.37,0.36 0.63,0.36l1.07 0 0 4.31c0,1.26 1.03,2.29 2.29,2.29l11.25 0 0 -1.45 -11.25 0c-0.46,0 -0.84,-0.38 -0.84,-0.84l0 -4.31 1.68 0 0 2.75c0,0.4 0.33,0.73 0.73,0.73l9.68 0 0 -1.45 -8.95 0 0 -2.02zm-4.39 -1.45l2.1 -3.63 2.1 3.63c-1.73,0 -2.83,0 -4.2,0z"/>
   <path class="fil0" d="M39.36 27.4l1.91 0 0 -5.29 -15.41 0 0 5.29 1.91 0 0 3.46 -7.17 0 0 16.1c14.64,0 11.03,0 25.93,0l0 -16.1 -7.18 0 0 -3.46zm-12.04 -1.45l0 -2.38 12.5 0 0 2.38c-5.38,0 -7.23,0 -12.5,0zm0.46 19.55l-5.72 0 0 -13.19 5.72 0 0 13.19zm4.18 0l0 -6.77 0.88 0 0 6.77 -0.88 0zm2.34 0l0 -6.77 0.88 0 0 6.77 -0.88 0zm3.61 0l-1.27 0 0 -8.22 -6.13 0 0 8.22 -1.27 0c0,-11 0,-11.68 0,-18.1l8.68 0 0 3.46 0 14.64zm7.18 -13.19l0 13.19 -5.72 0 0 -13.19 5.72 0z"/>
   <rect class="fil0" x="22.97" y="33.97" width="3.89" height="1.45"/>
   <rect class="fil0" x="22.97" y="37.09" width="3.89" height="1.45"/>
   <rect class="fil0" x="22.97" y="40.2" width="3.89" height="1.45"/>
   <rect class="fil0" x="40.28" y="33.97" width="3.89" height="1.45"/>
   <rect class="fil0" x="40.28" y="37.09" width="3.89" height="1.45"/>
   <rect class="fil0" x="40.28" y="40.2" width="3.89" height="1.45"/>
   <rect class="fil0" x="31.23" y="28.59" width="1.42" height="1.45"/>
   <rect class="fil0" x="34.34" y="28.59" width="1.42" height="1.45"/>
   <rect class="fil0" x="31.23" y="30.86" width="1.42" height="1.45"/>
   <rect class="fil0" x="34.34" y="30.86" width="1.42" height="1.45"/>
   <rect class="fil0" transform="matrix(-0.00115268 -0.0908263 0.0908263 -0.00115268 31.2426 34.6083)" width="16.01" height="15.64"/>
   <rect class="fil0" transform="matrix(-0.00115268 -0.0908263 0.0908263 -0.00115268 34.3494 34.5685)" width="16.01" height="15.64"/>
   <path class="fil0" d="M17.43 0l-12.3 0c-0.15,0 -0.38,0.08 -0.51,0.21l-4.4 4.4c-0.15,0.15 -0.21,0.39 -0.21,0.51l0 16.81c0,0.4 0.33,0.73 0.73,0.73l16.7 0c0.4,0 0.73,-0.33 0.73,-0.73l0 -21.22c0,-0.4 -0.33,-0.73 -0.73,-0.73zm-13.02 2.48l0 1.92 -1.92 0 1.92 -1.92zm12.3 18.73l-15.24 0 0 -15.36 3.68 0c0.4,0 0.73,-0.33 0.73,-0.73l0 -3.68 10.84 0 0 19.76z"/>
   <rect class="fil0" x="3.57" y="18.37" width="11.02" height="1.45"/>
   <rect class="fil0" x="7.08" y="15.49" width="7.5" height="1.45"/>
   <rect class="fil0" x="7.08" y="12.62" width="7.5" height="1.45"/>
   <rect class="fil0" x="7.08" y="9.74" width="7.5" height="1.45"/>
   <rect class="fil0" x="3.57" y="15.49" width="2.01" height="1.45"/>
   <rect class="fil0" x="3.57" y="12.62" width="2.01" height="1.45"/>
   <rect class="fil0" x="3.57" y="9.74" width="2.01" height="1.45"/>
   <rect class="fil0" x="3.57" y="6.86" width="11.02" height="1.45"/>
   <rect class="fil0" x="7.88" y="3.99" width="6.7" height="1.45"/>
  </g>
 </g>
</svg>
