<?xml version="1.0" encoding="UTF-8"?>
<!DOCTYPE svg PUBLIC "-//W3C//DTD SVG 1.1//EN" "http://www.w3.org/Graphics/SVG/1.1/DTD/svg11.dtd">
<!-- Creator: CorelDRAW 2019 (64-Bit Evaluation Version) -->
<svg xmlns="http://www.w3.org/2000/svg" xml:space="preserve" width="26mm" height="26.0099mm" version="1.1" style="shape-rendering:geometricPrecision; text-rendering:geometricPrecision; image-rendering:optimizeQuality; fill-rule:evenodd; clip-rule:evenodd"
viewBox="0 0 47.37 47.39"
 xmlns:xlink="http://www.w3.org/1999/xlink"
 xmlns:xodm="http://www.corel.com/coreldraw/odm/2003">
 <defs>
  <style type="text/css">
   <![CDATA[
    .fil0 {fill:black;fill-rule:nonzero}
   ]]>
  </style>
 </defs>
 <g id="Layer_x0020_1">
  <metadata id="CorelCorpID_0Corel-Layer"/>
  <g id="_1627107392848">
   <path class="fil0" d="M20.29 20.69c-0.23,-5.85 -4.69,-10.54 -10.15,-10.54 -5.46,0 -9.92,4.68 -10.15,10.54 1.26,0.75 5.46,3.01 10.15,3.01 4.7,0 8.89,-2.26 10.15,-3z"/>
   <circle class="fil0" cx="10.15" cy="4.23" r="4.23"/>
   <circle class="fil0" cx="37.23" cy="27.93" r="4.23"/>
   <path class="fil0" d="M37.23 33.85c-5.46,0 -9.92,4.68 -10.15,10.54 1.26,0.75 5.46,3.01 10.15,3.01 4.7,0 8.89,-2.26 10.15,-3 -0.23,-5.85 -4.69,-10.54 -10.15,-10.54z"/>
   <path class="fil0" d="M13.53 42.31l6.77 0c0.47,0 0.85,-0.38 0.85,-0.85 0,-0.47 -0.38,-0.85 -0.85,-0.85l-6.77 0c-3.27,-0 -5.92,-2.65 -5.92,-5.92l0 -1.34 1.94 1.94c0.16,0.16 0.37,0.25 0.6,0.25 0.47,0 0.85,-0.38 0.85,-0.85 0,-0.22 -0.09,-0.44 -0.25,-0.6l-3.39 -3.39c-0.16,-0.16 -0.37,-0.25 -0.6,-0.25 -0.22,0 -0.44,0.09 -0.6,0.25l-3.39 3.39c-0.16,0.16 -0.25,0.37 -0.25,0.6 0,0.47 0.38,0.85 0.85,0.85 0.22,0 0.44,-0.09 0.6,-0.25l1.94 -1.94 0 1.34c0,4.2 3.41,7.61 7.62,7.62l-0 0z"/>
   <path class="fil0" d="M33.84 5.08l-6.77 0c-0.47,0 -0.85,0.38 -0.85,0.85 0,0.47 0.38,0.85 0.85,0.85l6.77 0c3.27,0 5.92,2.65 5.92,5.92l0 1.34 -1.94 -1.94c-0.16,-0.16 -0.37,-0.25 -0.6,-0.25 -0.47,0 -0.85,0.38 -0.85,0.85 0,0.22 0.09,0.44 0.25,0.6l3.39 3.39c0.16,0.16 0.37,0.25 0.6,0.25 0.22,0 0.44,-0.09 0.6,-0.25l3.39 -3.39c0.16,-0.16 0.25,-0.37 0.25,-0.6 0,-0.47 -0.38,-0.85 -0.85,-0.85 -0.22,0 -0.44,0.09 -0.6,0.25l-1.94 1.94 0 -1.34c-0,-4.2 -3.41,-7.61 -7.62,-7.62l0 0z"/>
  </g>
 </g>
</svg>
