<?xml version="1.0" encoding="UTF-8"?>
<!DOCTYPE svg PUBLIC "-//W3C//DTD SVG 1.1//EN" "http://www.w3.org/Graphics/SVG/1.1/DTD/svg11.dtd">
<!-- Creator: CorelDRAW 2019 (64-Bit Evaluation Version) -->
<svg xmlns="http://www.w3.org/2000/svg" xml:space="preserve" width="26mm" height="25.8977mm" version="1.1" style="shape-rendering:geometricPrecision; text-rendering:geometricPrecision; image-rendering:optimizeQuality; fill-rule:evenodd; clip-rule:evenodd"
viewBox="0 0 47.37 47.19"
 xmlns:xlink="http://www.w3.org/1999/xlink"
 xmlns:xodm="http://www.corel.com/coreldraw/odm/2003">
 <defs>
  <style type="text/css">
   <![CDATA[
    .str0 {stroke:black;stroke-width:0.31;stroke-miterlimit:22.9256}
    .fil0 {fill:black;fill-rule:nonzero}
   ]]>
  </style>
 </defs>
 <g id="Layer_x0020_1">
  <metadata id="CorelCorpID_0Corel-Layer"/>
  <g id="_1626885772448">
   <g>
    <circle class="fil0" cx="21.5" cy="11.42" r="0.76"/>
    <circle class="fil0" cx="26.07" cy="11.42" r="0.76"/>
    <path class="fil0" d="M45.54 26.41l-2.11 -0.42 -0.36 -1.42c-0.25,-1.02 -1.17,-1.73 -2.22,-1.73l-5.23 0c-0.57,0 -1.1,0.22 -1.51,0.57 -0.2,-0.59 -0.49,-1.15 -0.87,-1.65 -0.92,-1.23 -2.26,-2.05 -3.78,-2.3l-2.07 -0.34 -0.35 -1.05c1.28,-0.82 2.23,-2.1 2.62,-3.6l0.2 0c1.68,0 3.04,-1.37 3.04,-3.04 0,-0.72 -0.26,-1.37 -0.68,-1.9l0.55 -2.04c0.09,-0.35 0.13,-0.72 0.13,-1.08 0,-1.87 -1.18,-3.55 -2.93,-4.19l-5.01 -1.82c-0.7,-0.26 -1.44,-0.39 -2.18,-0.39 -2,0 -3.91,0.96 -5.11,2.56l-0.39 0.51c-1.49,0.2 -2.64,1.48 -2.64,3.02 0,1.22 0.43,2.73 0.66,3.45 -0.41,0.52 -0.66,1.16 -0.66,1.87 0,1.68 1.37,3.04 3.04,3.04l0.2 0c0.39,1.51 1.34,2.79 2.62,3.6l-0.35 1.05 -2.07 0.34c-1.4,0.23 -2.65,0.95 -3.56,2.03l-5.98 -6.64 -8.56 9.51 2.47 0 0 9.13 10.66 0 0 6.09 2.32 0c0.39,4.26 3.97,7.61 8.33,7.61 4.36,0 7.95,-3.35 8.33,-7.61l2.32 0 0 -6.09c0.99,0 1.83,-0.64 2.14,-1.52l3.33 0c0.32,0.88 1.15,1.52 2.14,1.52 0.99,0 1.83,-0.64 2.14,-1.52l0.9 0c1.26,0 2.28,-1.02 2.28,-2.28l0 -1.04c0,-1.09 -0.77,-2.03 -1.84,-2.24zm-17.83 -5.7l-1.81 3.17 -1.04 -1.04 2.23 -2.23 0.62 0.1zm2.16 -7.77l0 -3.04c0.84,0 1.52,0.68 1.52,1.52 0,0.84 -0.68,1.52 -1.52,1.52zm-13.7 -1.52c0,-0.84 0.68,-1.52 1.52,-1.52l0 3.04c-0.84,0 -1.52,-0.68 -1.52,-1.52zm2.19 -3.04l-0.67 0c-0.38,0 -0.75,0.08 -1.08,0.21 -0.2,-0.7 -0.44,-1.69 -0.44,-2.49 0,-0.84 0.68,-1.52 1.52,-1.52l0.38 0 0.82 -1.1c0.91,-1.22 2.37,-1.95 3.89,-1.95 0.57,0 1.13,0.1 1.66,0.29l5.01 1.82c1.16,0.42 1.93,1.53 1.93,2.76 0,0.24 -0.03,0.48 -0.08,0.7l-0.4 1.47c-0.33,-0.12 -0.68,-0.2 -1.04,-0.2l-0.67 0 -0.29 -0.07c-1.68,-0.42 -3.27,-1.12 -4.71,-2.08l-0.42 -0.28 -0.42 0.28c-1.44,0.96 -3.03,1.66 -4.71,2.08l-0.29 0.07zm0.85 4.57l0 -3.21c1.62,-0.42 3.15,-1.09 4.57,-1.97 1.42,0.88 2.95,1.55 4.57,1.97l0 3.21c0,2.52 -2.05,4.57 -4.57,4.57 -2.52,0 -4.57,-2.05 -4.57,-4.57zm4.57 6.09c0.66,0 1.29,-0.11 1.89,-0.3l0.29 0.86 -2.17 2.17 -2.17 -2.17 0.29 -0.86c0.59,0.19 1.23,0.3 1.89,0.3zm-3.31 1.58l2.23 2.23 -1.04 1.04 -1.81 -3.17 0.62 -0.1zm-11.92 -3.48l5.14 5.71 -10.28 0 5.14 -5.71zm-4.57 7.23l9.13 0 0 7.61 -2.28 0 0 -4.57 -4.57 0 0 4.57 -2.28 0 0 -7.61zm5.33 7.61l-1.52 0 0 -3.04 1.52 0 0 3.04zm14.46 13.7c-3.78,0 -6.85,-3.07 -6.85,-6.85 0,-3.78 3.07,-6.85 6.85,-6.85 3.78,0 6.85,3.07 6.85,6.85 0,3.78 -3.07,6.85 -6.85,6.85zm9.13 -7.61l-0.8 0c-0.39,-4.26 -3.97,-7.61 -8.33,-7.61 -4.36,0 -7.95,3.35 -8.33,7.61l-0.8 0 0 -4.57 0 -0.76 0 -8.37 2.47 0 -1.55 -1.72c0.67,-0.87 1.62,-1.45 2.69,-1.65l3.07 5.38 2.45 -2.45 2.45 2.45 3.07 -5.38c1.09,0.2 2.06,0.8 2.73,1.69 0.54,0.72 0.85,1.58 0.88,2.45l0 0.9 -1.97 0.39c-1.06,0.21 -1.84,1.15 -1.84,2.24l0 1.04c0,1.26 1.02,2.28 2.28,2.28l0.9 0c0.13,0.36 0.34,0.68 0.62,0.93l0 5.16zm1.52 -6.09c-0.42,0 -0.76,-0.34 -0.76,-0.76 0,-0.42 0.34,-0.76 0.76,-0.76 0.42,0 0.76,0.34 0.76,0.76 0,0.42 -0.34,0.76 -0.76,0.76zm7.61 0c-0.42,0 -0.76,-0.34 -0.76,-0.76 0,-0.42 0.34,-0.76 0.76,-0.76 0.42,0 0.76,0.34 0.76,0.76 0,0.42 -0.34,0.76 -0.76,0.76zm3.81 -2.28c0,0.42 -0.34,0.76 -0.76,0.76l-0.9 0c-0.32,-0.88 -1.15,-1.52 -2.14,-1.52 -0.99,0 -1.83,0.64 -2.14,1.52l-3.33 0c-0.32,-0.88 -1.15,-1.52 -2.14,-1.52 -0.99,0 -1.83,0.64 -2.14,1.52l-0.9 0c-0.42,0 -0.76,-0.34 -0.76,-0.76l0 -1.04c0,-0.36 0.26,-0.68 0.61,-0.75l3.05 -0.61 0.59 -2.36c0.09,-0.34 0.39,-0.58 0.74,-0.58l5.23 0c0.35,0 0.65,0.24 0.74,0.58l0.59 2.36 3.06 0.61c0.35,0.07 0.61,0.38 0.61,0.75l0 1.04z"/>
   </g>
   <g>
    <path class="fil0 str0" d="M28.21 36.41c0,-0.01 0,-0.01 0,-0.02 0,-0.01 -0,-0.01 -0,-0.02 -0,-0.01 0,-0.01 0,-0.01 -0.01,-0.02 -0.02,-0.03 -0.03,-0.04l0 0 -2.17 -2.16 0 0c-0.01,-0.01 -0.03,-0.02 -0.04,-0.03l-0.01 0c-0.01,-0 -0.03,-0.01 -0.04,-0.01l-0.01 0 -3.78 0c-0.25,0 -0.45,0.2 -0.45,0.45l0 2.98c-0.17,0.1 -0.36,0.16 -0.56,0.2 -0.61,0.11 -1,0.58 -1.13,0.77l-0.11 -0 0 -0.01c0,-0.17 -0.14,-0.3 -0.3,-0.3l-1.06 0c-0.17,0 -0.3,0.14 -0.3,0.3l0 2.16c0,0.17 0.14,0.3 0.3,0.3l1.06 0c0.17,0 0.3,-0.14 0.3,-0.3l0 0 0.22 0c0.36,0.24 0.79,0.37 1.22,0.38 0.12,-0 0.24,-0.01 0.36,-0.04l0 0.88c-0,0.25 0.2,0.45 0.45,0.45l5.62 0c0.25,0 0.45,-0.2 0.45,-0.45l0 -5.48c0,0 0,-0.01 0,-0.01zm-2.16 -1.78l1.64 1.64 -1.49 0c-0.08,0 -0.15,-0.07 -0.15,-0.15l0 -1.49zm-6.48 6.05l-1.06 0 0 -2.16 1.06 0 0 2.16zm0.66 -0.28c-0.03,-0.02 -0.06,-0.03 -0.09,-0.03 -0,0 -0,0 -0,0l-0.27 0 0 -1.54 0.2 0c0,0 0,0 0,0 0.05,0 0.1,-0.03 0.13,-0.07 0.03,-0.04 0.37,-0.59 0.97,-0.7 0.34,-0.06 0.66,-0.2 0.93,-0.42l0.72 -0.58c0.11,0.09 0.17,0.21 0.18,0.35 0,0.23 -0.23,0.48 -0.65,0.73 -0.04,0.03 -0.07,0.07 -0.07,0.12 -0.05,0.54 -0.4,1 -0.9,1.21 -0.04,0.03 -0.06,0.07 -0.06,0.12 0,0.08 0.07,0.15 0.15,0.15 0.01,0 0.02,-0 0.03,-0 0.06,-0.03 0.12,-0.06 0.18,-0.09l0 1.05c-0.73,0.18 -1.44,-0.3 -1.45,-0.31l0.01 0zm7.52 1.64l-5.63 0c-0.08,0 -0.15,-0.07 -0.15,-0.15l0 -2.45c0.32,-0.28 0.53,-0.67 0.59,-1.09 0.49,-0.3 0.73,-0.62 0.74,-0.95 0,-0.42 -0.39,-0.67 -0.41,-0.68 -0.02,-0.01 -0.05,-0.02 -0.08,-0.02 -0.03,0 -0.07,0.01 -0.1,0.03l-0.75 0.61 0 -2.78c0,-0.08 0.07,-0.15 0.15,-0.15l3.62 0 0 1.7c0,0.25 0.2,0.45 0.45,0.45l1.7 0 0 5.32c0,0.08 -0.07,0.15 -0.15,0.15l0 0z"/>
    <path class="fil0 str0" d="M25.1 35.15c0,-0.08 -0.07,-0.15 -0.15,-0.15l-2.22 0c-0.08,0 -0.15,0.07 -0.15,0.15 0,0.08 0.07,0.15 0.15,0.15l2.22 0c0.08,0 0.15,-0.07 0.15,-0.15z"/>
    <path class="fil0 str0" d="M25.27 36.12c0,-0.08 -0.07,-0.15 -0.15,-0.15l-2.22 0c-0.08,0 -0.15,0.07 -0.15,0.15 0,0.08 0.07,0.15 0.15,0.15l2.22 0c0.08,0 0.15,-0.07 0.15,-0.15z"/>
    <path class="fil0 str0" d="M26.81 38.21l-2.22 0c-0.08,0 -0.15,0.07 -0.15,0.15 0,0.08 0.07,0.15 0.15,0.15l2.22 0c0.08,0 0.15,-0.07 0.15,-0.15 0,-0.08 -0.07,-0.15 -0.15,-0.15l0 0z"/>
    <path class="fil0 str0" d="M26.81 39.5l-3.74 0c-0.08,0 -0.15,0.07 -0.15,0.15 0,0.08 0.07,0.15 0.15,0.15l3.74 0c0.08,0 0.15,-0.07 0.15,-0.15 0,-0.08 -0.07,-0.15 -0.15,-0.15l0 0z"/>
    <path class="fil0 str0" d="M26.81 40.78l-3.74 0c-0.08,0 -0.15,0.07 -0.15,0.15 0,0.08 0.07,0.15 0.15,0.15l3.74 0c0.08,0 0.15,-0.07 0.15,-0.15 0,-0.08 -0.07,-0.15 -0.15,-0.15l0 0z"/>
   </g>
  </g>
 </g>
</svg>
