<?xml version="1.0" encoding="UTF-8"?>
<!DOCTYPE svg PUBLIC "-//W3C//DTD SVG 1.1//EN" "http://www.w3.org/Graphics/SVG/1.1/DTD/svg11.dtd">
<!-- Creator: CorelDRAW 2019 (64-Bit Evaluation Version) -->
<svg xmlns="http://www.w3.org/2000/svg" xml:space="preserve" width="25.9622mm" height="20.6792mm" version="1.1" style="shape-rendering:geometricPrecision; text-rendering:geometricPrecision; image-rendering:optimizeQuality; fill-rule:evenodd; clip-rule:evenodd"
viewBox="0 0 47.23 37.62"
 xmlns:xlink="http://www.w3.org/1999/xlink"
 xmlns:xodm="http://www.corel.com/coreldraw/odm/2003">
 <defs>
  <style type="text/css">
   <![CDATA[
    .str0 {stroke:black;stroke-width:0.36;stroke-miterlimit:22.9256}
    .fil0 {fill:black}
    .fil1 {fill:black;fill-rule:nonzero}
   ]]>
  </style>
 </defs>
 <g id="Layer_x0020_1">
  <metadata id="CorelCorpID_0Corel-Layer"/>
  <g id="_1626924342688">
   <path class="fil0" d="M1.88 0l43.47 0c1.03,0 1.88,0.85 1.88,1.88l0 33.86c0,1.03 -0.85,1.88 -1.88,1.88l-43.47 0c-1.03,0 -1.88,-0.85 -1.88,-1.88l0 -33.86c0,-1.03 0.85,-1.88 1.88,-1.88zm1 1.09l41.48 0c0.97,0 1.77,0.8 1.77,1.77l0 31.9c0,0.97 -0.8,1.77 -1.77,1.77l-41.48 0c-0.97,0 -1.77,-0.8 -1.77,-1.77l0 -31.9c0,-0.97 0.8,-1.77 1.77,-1.77z"/>
   <g>
    <rect class="fil0" x="7.05" y="15.52" width="23.09" height="1.82" rx="0.96" ry="0.91"/>
    <rect class="fil0" x="7.05" y="19.22" width="23.09" height="1.82" rx="0.96" ry="0.91"/>
    <path class="fil0 str0" d="M9.79 6.4l27.65 0c2.01,0 3.65,1.64 3.65,3.65l0 0c0,2.01 -1.64,3.65 -3.65,3.65l-27.65 0c-2.01,0 -3.65,-1.64 -3.65,-3.65l0 0c0,-2.01 1.64,-3.65 3.65,-3.65zm0 1.83l27.65 0c0.99,0 1.8,0.81 1.8,1.8l0 0c0,0.99 -0.81,1.8 -1.8,1.8l-27.65 0c-0.99,0 -1.8,-0.81 -1.8,-1.8l0 0c0,-0.99 0.81,-1.8 1.8,-1.8z"/>
    <path class="fil1" d="M21.66 29.36c-0.61,0 -1.21,0 -1.82,0 -1.37,-0.01 -2.6,0.32 -3.69,1.21 -1,0.82 -2.11,0.85 -3.05,0.21 -0.44,-0.3 -0.7,-0.73 -0.93,-1.3 -0.48,0.5 -0.91,0.93 -1.33,1.37 -0.32,0.33 -0.7,0.45 -1.13,0.25 -0.41,-0.19 -0.55,-0.54 -0.54,-0.98 0.01,-0.48 0,-0.96 -0.11,-1.46 -0.26,0.6 -0.52,1.2 -0.79,1.8 -0.3,0.67 -0.75,0.89 -1.29,0.65 -0.5,-0.22 -0.66,-0.73 -0.4,-1.36 0.86,-2.02 1.73,-4.04 2.6,-6.06 0.23,-0.54 0.68,-0.81 1.1,-0.68 0.53,0.16 0.72,0.53 0.71,1.08 -0.02,1.27 -0.01,2.54 -0.01,3.82 0.21,0.07 0.27,-0.12 0.37,-0.21 0.56,-0.54 1.1,-1.1 1.66,-1.64 0.36,-0.35 0.78,-0.47 1.24,-0.17 0.4,0.26 0.51,0.75 0.25,1.27 -0.27,0.53 -0.46,1.08 -0.45,1.69 0.01,0.5 0.3,0.68 0.74,0.43 0.34,-0.2 0.66,-0.45 0.98,-0.68 0.96,-0.67 2.04,-1 3.19,-1.04 0.89,-0.03 1.79,-0.02 2.68,-0.02 0.79,0 1.19,0.32 1.19,0.91 0.01,0.6 -0.38,0.9 -1.17,0.9z"/>
   </g>
  </g>
 </g>
</svg>
