<?xml version="1.0" encoding="UTF-8"?>
<!DOCTYPE svg PUBLIC "-//W3C//DTD SVG 1.1//EN" "http://www.w3.org/Graphics/SVG/1.1/DTD/svg11.dtd">
<!-- Creator: CorelDRAW 2019 (64-Bit Evaluation Version) -->
<svg xmlns="http://www.w3.org/2000/svg" xml:space="preserve" width="26mm" height="24.376mm" version="1.1" style="shape-rendering:geometricPrecision; text-rendering:geometricPrecision; image-rendering:optimizeQuality; fill-rule:evenodd; clip-rule:evenodd"
viewBox="0 0 47.38 44.42"
 xmlns:xlink="http://www.w3.org/1999/xlink"
 xmlns:xodm="http://www.corel.com/coreldraw/odm/2003">
 <defs>
  <style type="text/css">
   <![CDATA[
    .fil0 {fill:black;fill-rule:nonzero}
   ]]>
  </style>
 </defs>
 <g id="Layer_x0020_1">
  <metadata id="CorelCorpID_0Corel-Layer"/>
  <g id="_1626882348256">
   <path class="fil0" d="M0.08 9.26l6.58 22.99 0 -5.38 -5.16 -18.02c-0.02,-0.06 -0.03,-0.13 -0.03,-0.19 0,-0.29 0.19,-0.55 0.47,-0.64l4.72 -1.42 0 -1.55 -5.14 1.55c-0.9,0.28 -1.52,1.12 -1.52,2.06 0,0.2 0.03,0.4 0.08,0.59z"/>
   <path class="fil0" d="M45.86 6.61l-5.14 -1.55 0 1.55 4.72 1.42c0.28,0.09 0.47,0.35 0.47,0.64 0,0.06 -0.01,0.13 -0.03,0.19l-5.16 18.02 0 5.38 6.58 -22.99c0.05,-0.19 0.08,-0.39 0.08,-0.59 0,-0.95 -0.62,-1.78 -1.52,-2.06l0 -0z"/>
   <path class="fil0" d="M32.58 4.81l-17.77 0c-0.41,0 -0.74,0.33 -0.74,0.74 0,0.41 0.33,0.74 0.74,0.74l17.77 0c0.41,0 0.74,-0.33 0.74,-0.74 0,-0.41 -0.33,-0.74 -0.74,-0.74l0 0z"/>
   <path class="fil0" d="M32.58 7.77l-17.77 0c-0.41,0 -0.74,0.33 -0.74,0.74 0,0.41 0.33,0.74 0.74,0.74l17.77 0c0.41,0 0.74,-0.33 0.74,-0.74 0,-0.41 -0.33,-0.74 -0.74,-0.74l0 0z"/>
   <path class="fil0" d="M32.58 10.74l-17.77 0c-0.41,0 -0.74,0.33 -0.74,0.74 0,0.41 0.33,0.74 0.74,0.74l17.77 0c0.41,0 0.74,-0.33 0.74,-0.74 0,-0.41 -0.33,-0.74 -0.74,-0.74l0 0z"/>
   <path class="fil0" d="M32.58 13.7l-17.77 0c-0.41,0 -0.74,0.33 -0.74,0.74 0,0.41 0.33,0.74 0.74,0.74l17.77 0c0.41,0 0.74,-0.33 0.74,-0.74 0,-0.41 -0.33,-0.74 -0.74,-0.74l0 0z"/>
   <path class="fil0" d="M32.58 16.66l-17.77 0c-0.41,0 -0.74,0.33 -0.74,0.74 0,0.41 0.33,0.74 0.74,0.74l17.77 0c0.41,0 0.74,-0.33 0.74,-0.74 0,-0.41 -0.33,-0.74 -0.74,-0.74l0 0z"/>
   <path class="fil0" d="M32.58 19.62l-17.77 0c-0.41,0 -0.74,0.33 -0.74,0.74 0,0.41 0.33,0.74 0.74,0.74l17.77 0c0.41,0 0.74,-0.33 0.74,-0.74 0,-0.41 -0.33,-0.74 -0.74,-0.74l0 0z"/>
   <path class="fil0" d="M33.32 23.32c0,-0.41 -0.33,-0.74 -0.74,-0.74l-17.77 0c-0.41,0 -0.74,0.33 -0.74,0.74 0,0.41 0.33,0.74 0.74,0.74l17.77 0c0.41,0 0.74,-0.33 0.74,-0.74l0 0z"/>
   <path class="fil0" d="M14.07 29.25c0,0.41 0.33,0.74 0.74,0.74l11.24 0c0.05,-0.51 0.16,-1 0.34,-1.48l-11.58 -0c-0.41,0 -0.74,0.33 -0.74,0.74l0 0z"/>
   <path class="fil0" d="M10.36 42.94c-0.41,-0 -0.74,-0.33 -0.74,-0.74l0 -39.98c0,-0.41 0.33,-0.74 0.74,-0.74l26.65 0c0.41,0 0.74,0.33 0.74,0.74l0 25.78c0.38,0.8 0.57,1.68 0.57,2.57 0,0.89 -0.2,1.77 -0.57,2.57l0 4.06 0.16 0c0.46,0 0.91,0.1 1.32,0.29l0 -35.28c-0,-1.23 -1,-2.22 -2.22,-2.22l-26.65 0c-1.23,0 -2.22,1 -2.22,2.22l0 39.98c0,1.23 1,2.22 2.22,2.22l13.45 0c-0.28,-0.44 -0.45,-0.95 -0.48,-1.48l-12.97 0z"/>
   <path class="fil0" d="M37.92 38.69l-2.35 0 0 -0.18c0,-0.87 -0.46,-1.55 -1.09,-1.67 0.16,-1.03 0.5,-2.02 0.99,-2.94l0.01 -0.03c0.88,-0.87 1.37,-2.05 1.37,-3.28 0,-0 0,-0.01 0,-0.01 0,-0 0,-0.01 0,-0.02 0,-2.58 -2.09,-4.68 -4.68,-4.68 -2.58,0 -4.68,2.09 -4.68,4.68 0,1.29 0.54,2.53 1.48,3.42l0.01 0.02c0.46,0.89 0.79,1.85 0.95,2.84 -0.64,0.12 -1.09,0.8 -1.09,1.67l0 0.18 -2.35 0c-0.93,0 -1.69,0.76 -1.69,1.69l0 2.36c0,0.93 0.76,1.69 1.69,1.69l11.42 0c0.93,0 1.69,-0.76 1.69,-1.69l0 -2.36c-0,-0.93 -0.76,-1.69 -1.69,-1.69l0 0zm0.21 4.05c-0,0.12 -0.09,0.21 -0.21,0.21 -0,0 -0,0 -0,0l-11.42 0c-0,0 -0,0 -0,0 -0.12,0 -0.21,-0.09 -0.21,-0.21l0 -2.36c0,-0.11 0.09,-0.21 0.21,-0.21 0,0 0,0 0,0l3.09 0c0.41,0 0.74,-0.33 0.74,-0.74l0 -0.92c0,-0 0,-0 0,-0.01 0,-0.07 0.01,-0.14 0.03,-0.2l0.42 0c0,0 0,0 0,0 0.41,0 0.74,-0.33 0.74,-0.74 0,-0.02 -0,-0.05 -0,-0.07 -0.11,-1.44 -0.52,-2.85 -1.19,-4.13l-0.07 -0.15c-0.04,-0.09 -0.11,-0.17 -0.18,-0.24 -0.68,-0.6 -1.07,-1.47 -1.07,-2.39 0,-1.76 1.43,-3.19 3.19,-3.19 1.76,0 3.18,1.42 3.19,3.18 0,0 0,0 0,0.01 0,0.88 -0.37,1.71 -1.01,2.31 -0.07,0.06 -0.12,0.13 -0.16,0.22l-0.07 0.14c-0.7,1.31 -1.12,2.76 -1.24,4.24 -0,0.02 -0,0.05 -0,0.07 0,0.41 0.33,0.74 0.74,0.74 0,0 0,0 0,0l0.42 0c0.02,0.07 0.03,0.13 0.03,0.2 0,0 0,0 0,0.01l0 0.92c0,0.41 0.33,0.74 0.74,0.74l3.09 0c0,0 0,0 0,0 0.12,0 0.21,0.09 0.21,0.21l0 2.36z"/>
   <path class="fil0" d="M23.72 32.83c-0.23,-0.17 -0.51,-0.25 -0.8,-0.25 -0.15,0 -0.3,0.02 -0.44,0.07 -0.79,0.28 -1.1,1.24 -1.43,2.25 -0.15,0.55 -0.37,1.08 -0.67,1.58 -0.03,-0.09 -0.06,-0.19 -0.08,-0.26 -0.19,-0.67 -0.55,-1.9 -1.82,-1.77 -1.02,0.11 -1.46,1.02 -1.85,1.82 -0.42,0.86 -0.71,1.39 -1.31,1.48 -0.03,0 -0.06,0.01 -0.09,0.01 -0,0 -0.01,0 -0.01,-0 -0.14,-0.3 0.05,-1.41 0.4,-2.31 0.03,-0.08 0.05,-0.17 0.05,-0.27 0,-0.41 -0.33,-0.74 -0.74,-0.74 -0.31,0 -0.58,0.19 -0.69,0.47 -0.24,0.63 -0.98,2.78 -0.15,3.8 0.27,0.33 0.68,0.53 1.11,0.53 0.02,0 0.03,-0 0.05,-0 0.1,-0 0.21,-0.01 0.31,-0.02 1.41,-0.21 1.99,-1.42 2.42,-2.31 0.2,-0.41 0.44,-0.92 0.65,-0.99 0.11,0.22 0.2,0.46 0.26,0.7 0.16,0.56 0.35,1.2 0.96,1.44 0.13,0.05 0.28,0.07 0.42,0.07 0.27,0 0.53,-0.08 0.74,-0.24 0.78,-0.48 1.12,-1.52 1.46,-2.53 0.12,-0.44 0.29,-0.86 0.5,-1.26 0.11,0.06 0.24,0.1 0.37,0.1 0.41,0 0.74,-0.33 0.74,-0.74 0,-0.25 -0.13,-0.49 -0.35,-0.63l0 -0z"/>
   <path class="fil0" d="M14.07 26.28c0,0.41 0.33,0.74 0.74,0.74l12.35 0c0.41,-0.57 0.92,-1.08 1.49,-1.48l-13.85 0c-0.41,0 -0.74,0.33 -0.74,0.74l0 -0z"/>
  </g>
 </g>
</svg>
